# Blender v2.82 (sub 7) OBJ File: ''
# www.blender.org
o anymal_LH_ADAPTER_TO_FOOT_constraints_in_LFleg_reduced_anymal_LH_ADAPTER_TO_FOOT_constraints_in_LFleg
v -0.165377 0.439508 0.263751
v -0.439092 -0.586913 -0.036861
v -0.820542 0.504001 0.270387
v -0.565215 0.586554 0.095671
v -0.927450 0.200288 0.287722
v -1.021075 -0.416310 -0.013813
v -0.172761 -0.538143 -0.183247
v 0.037763 -0.130863 0.088996
v 0.015358 -0.210325 -0.168401
v -0.974642 -0.347853 -0.353721
v -1.102755 -0.082015 -0.193558
v -1.074465 0.313263 0.058696
v 0.069751 0.262465 0.068344
v -0.704559 0.366097 -0.116649
vn -0.3657 0.7551 -0.5440
vn 0.1925 -0.0661 -0.9791
vn 0.8631 -0.4989 0.0789
vn -0.4271 0.5079 -0.7480
vn 0.0885 0.8444 0.5283
vn -0.2755 0.3952 -0.8763
vn 0.1269 -0.3098 0.9423
vn -0.8605 -0.1124 0.4969
vn -0.0894 -0.4266 0.9000
vn 0.6342 -0.0110 0.7731
vn -0.2822 -0.9323 -0.2263
vn 0.0152 0.0516 0.9985
vn -0.1045 -0.8708 -0.4803
vn 0.4553 -0.6454 0.6134
vn -0.9243 -0.3294 -0.1926
vn 0.0208 -0.2861 0.9580
vn 0.4292 0.8633 -0.2657
vn -0.9613 -0.0960 0.2583
vn -0.4449 0.8620 -0.2429
vn 0.2620 0.5784 -0.7725
vn -0.7324 0.2929 0.6146
vn 0.9946 -0.0841 -0.0606
vn 0.2634 0.4075 -0.8744
vn 0.1421 0.2631 -0.9542
s off
f 12//1 4//1 14//1
f 10//2 9//2 7//2
f 7//3 9//3 8//3
f 11//4 12//4 14//4
f 3//5 1//5 4//5
f 10//6 11//6 14//6
f 5//7 2//7 1//7
f 12//8 6//8 5//8
f 6//9 2//9 5//9
f 1//10 8//10 13//10
f 10//11 2//11 6//11
f 3//12 5//12 1//12
f 10//13 7//13 2//13
f 2//14 7//14 8//14
f 10//15 6//15 11//15
f 2//16 8//16 1//16
f 13//17 4//17 1//17
f 11//18 6//18 12//18
f 4//19 12//19 3//19
f 13//20 14//20 4//20
f 5//21 3//21 12//21
f 8//22 9//22 13//22
f 9//23 14//23 13//23
f 9//24 10//24 14//24
