# Blender v2.82 (sub 7) OBJ File: ''
# www.blender.org
o anymal_LH_ADAPTER_TO_FOOT_constraints_in_RFleg_reduced_anymal_LH_ADAPTER_TO_FOOT_constraints_in_RFleg
v -1.100410 0.755076 0.062101
v -0.897196 0.564402 0.330778
v 0.019937 0.455601 0.234825
v -0.126616 -0.094974 0.010972
v -0.122039 0.894579 0.144817
v -1.085692 0.130535 0.014251
v -0.918945 0.075692 -0.200447
v -0.918128 0.903494 -0.133036
v -0.822707 -0.093010 0.088603
v -0.035712 0.498074 -0.211321
v -0.956268 0.509074 -0.346670
v -0.192159 1.017895 -0.052346
v 0.117589 0.663314 -0.038782
v -0.877001 0.967024 0.128533
vn 0.1412 0.3282 -0.9340
vn -0.8170 -0.0632 0.5731
vn 0.9480 -0.2979 0.1122
vn -0.5811 0.3884 0.7152
vn -0.0570 -0.8704 -0.4890
vn 0.4754 0.3850 -0.7911
vn -0.8023 0.3424 -0.4890
vn 0.7424 0.6541 0.1451
vn 0.0712 0.8569 0.5106
vn 0.8374 -0.2997 -0.4571
vn -0.5831 -0.7711 -0.2559
vn -0.7942 -0.2546 -0.5518
vn 0.1290 0.2391 0.9624
vn 0.1006 -0.3976 0.9120
vn -0.6751 0.7342 -0.0722
vn 0.1648 -0.3682 -0.9150
vn -0.9424 0.0034 -0.3344
vn 0.7603 0.3571 0.5425
vn 0.0230 0.4744 -0.8800
vn -0.5163 -0.3469 0.7830
vn -0.1287 0.9681 -0.2149
vn 0.0237 0.4478 0.8938
vn 0.0580 -0.3393 0.9389
vn 0.1349 -0.3063 -0.9423
s off
f 11//1 12//1 10//1
f 1//2 6//2 2//2
f 13//3 3//3 4//3
f 1//4 2//4 14//4
f 9//5 7//5 4//5
f 13//6 10//6 12//6
f 11//7 1//7 8//7
f 12//8 5//8 13//8
f 14//9 5//9 12//9
f 4//10 10//10 13//10
f 7//11 9//11 6//11
f 11//12 7//12 6//12
f 2//13 3//13 5//13
f 3//14 9//14 4//14
f 1//15 14//15 8//15
f 7//16 10//16 4//16
f 11//17 6//17 1//17
f 3//18 13//18 5//18
f 11//19 8//19 12//19
f 6//20 9//20 2//20
f 8//21 14//21 12//21
f 2//22 5//22 14//22
f 3//23 2//23 9//23
f 7//24 11//24 10//24
