# Blender v2.82 (sub 7) OBJ File: ''
# www.blender.org
o anymal_RH_ADAPTER_TO_FOOT_constraints_in_LHleg_reduced_anymal_RH_ADAPTER_TO_FOOT_constraints_in_LHleg
v 0.568270 -0.553144 0.172210
v 0.358842 0.050240 0.036446
v -0.279440 -0.413852 0.325643
v 0.340142 -0.442839 -0.307453
v -0.392516 0.083338 0.034741
v -0.515748 -0.612924 -0.225867
v 0.575566 -0.265754 -0.073685
v 0.126261 0.118921 -0.084471
v -0.558635 -0.737425 0.222750
v 0.561440 -0.824994 -0.095559
v 0.272109 -0.841804 -0.227781
v 0.182569 -1.026347 0.002050
v 0.435996 -0.883445 0.170346
v -0.347829 -0.996020 -0.044034
vn 0.7007 0.0102 -0.7134
vn 0.0386 0.8990 0.4363
vn -0.8534 -0.4754 -0.2135
vn 0.7957 0.3819 0.4700
vn 0.2880 -0.7984 -0.5288
vn -0.1518 0.3142 -0.9371
vn 0.4753 -0.8793 0.0309
vn 0.1662 -0.0721 0.9835
vn 0.5050 0.5717 -0.6466
vn 0.0095 -0.7815 -0.6238
vn -0.6101 0.2922 0.7365
vn -0.1398 -0.4739 -0.8694
vn 0.2159 0.2851 0.9339
vn 0.0204 0.5084 0.8609
vn 0.8740 -0.3519 0.3350
vn 0.9997 -0.0253 0.0001
vn -0.9811 0.1891 -0.0413
vn -0.0996 -0.7526 0.6509
vn 0.0051 -0.3070 0.9517
vn -0.0670 -0.7085 0.7025
vn 0.4147 -0.2457 -0.8762
vn -0.0565 -0.1862 -0.9809
vn 0.4197 0.4684 -0.7775
vn -0.2319 0.3767 -0.8968
s off
f 7//1 10//1 4//1
f 2//2 8//2 5//2
f 14//3 9//3 6//3
f 7//4 2//4 1//4
f 12//5 11//5 10//5
f 6//6 8//6 4//6
f 13//7 12//7 10//7
f 13//8 1//8 3//8
f 2//9 7//9 8//9
f 12//10 14//10 11//10
f 9//11 3//11 5//11
f 11//12 14//12 6//12
f 2//13 3//13 1//13
f 2//14 5//14 3//14
f 13//15 10//15 1//15
f 1//16 10//16 7//16
f 9//17 5//17 6//17
f 12//18 9//18 14//18
f 13//19 3//19 9//19
f 12//20 13//20 9//20
f 10//21 11//21 4//21
f 11//22 6//22 4//22
f 7//23 4//23 8//23
f 6//24 5//24 8//24
