# Blender v2.82 (sub 7) OBJ File: ''
# www.blender.org
o anymal_RF_ADAPTER_TO_FOOT_constraints_in_LFleg_reduced_anymal_RF_ADAPTER_TO_FOOT_constraints_in_LFleg
v 0.436488 -0.737797 0.325197
v 0.460258 -0.820644 -0.163280
v -0.472447 -0.972230 0.072860
v -0.464544 -0.732475 0.219669
v 0.497648 -0.024729 0.149760
v 0.428938 -0.958985 0.081930
v 0.101712 -1.059501 -0.046258
v 0.594675 -0.573310 -0.146424
v -0.640792 -0.202126 -0.051874
v -0.329540 0.139473 0.043236
v 0.371842 0.087229 -0.058914
v -0.351875 -0.536895 -0.371837
v -0.523948 -0.775931 -0.219930
vn 0.8729 -0.4641 -0.1504
vn 0.0178 -0.7637 0.6453
vn -0.9394 -0.1559 0.3052
vn 0.0487 -0.4974 -0.8662
vn -0.1124 0.2138 0.9704
vn 0.2291 -0.0583 -0.9716
vn -0.0367 -0.7388 0.6729
vn 0.9368 -0.2729 0.2190
vn -0.5200 0.2460 0.8180
vn -0.0067 -0.5329 -0.8461
vn 0.1268 0.9039 0.4085
vn -0.9775 -0.2085 0.0322
vn -0.0760 0.2444 0.9667
vn 0.9484 -0.0034 0.3169
vn -0.2321 -0.8263 -0.5132
vn -0.7076 0.0621 -0.7039
vn -0.3078 0.5050 -0.8064
vn -0.1026 -0.5170 0.8498
vn 0.2342 0.2049 -0.9503
vn 0.4103 -0.8157 -0.4078
vn -0.0845 0.5232 -0.8480
vn 0.8747 0.3407 -0.3446
s off
f 2//1 8//1 6//1
f 7//2 1//2 3//2
f 3//3 4//3 9//3
f 2//4 7//4 12//4
f 4//5 1//5 10//5
f 2//6 12//6 8//6
f 7//7 6//7 1//7
f 6//8 8//8 1//8
f 4//9 10//9 9//9
f 13//10 12//10 7//10
f 5//11 11//11 10//11
f 13//12 3//12 9//12
f 5//13 10//13 1//13
f 8//14 5//14 1//14
f 3//15 13//15 7//15
f 12//16 13//16 9//16
f 12//17 9//17 10//17
f 1//18 4//18 3//18
f 8//19 12//19 11//19
f 6//20 7//20 2//20
f 11//21 12//21 10//21
f 8//22 11//22 5//22
