# Blender v2.82 (sub 7) OBJ File: ''
# www.blender.org
o anymal_RH_ADAPTER_TO_FOOT_constraints_in_RFleg_reduced_anymal_RH_ADAPTER_TO_FOOT_constraints_in_RFleg
v -0.848266 0.547819 -0.236704
v -1.045419 0.285633 -0.220215
v 0.070843 -0.431651 0.096090
v -0.652539 -0.518612 0.317749
v -0.070356 0.511469 -0.083819
v -0.745566 0.516915 0.031202
v 0.153306 -0.098593 0.152061
v -0.942810 0.137654 -0.335159
v -0.858305 -0.440684 -0.077650
v -0.942155 -0.204870 0.335754
v -0.169804 0.313242 -0.255345
v -1.067862 0.361690 -0.031959
v -1.099175 -0.345813 0.075821
v -0.370493 -0.576307 0.163937
vn -0.7676 0.5573 -0.3167
vn 0.0259 0.9942 0.1048
vn -0.4604 0.8444 0.2739
vn 0.1564 0.0879 0.9838
vn -0.8761 0.1103 0.4694
vn -0.2356 -0.9694 -0.0684
vn -0.9915 0.0244 -0.1280
vn 0.7443 -0.0727 -0.6638
vn -0.5524 -0.5461 0.6298
vn -0.4780 0.3077 -0.8227
vn 0.1567 0.4056 0.9005
vn 0.2165 -0.2137 0.9526
vn 0.0501 0.2222 -0.9737
vn 0.1335 -0.7245 -0.6763
vn -0.3634 -0.9316 0.0055
vn 0.1822 0.5895 -0.7869
vn 0.8190 0.0806 -0.5681
vn 0.1797 -0.3781 -0.9082
vn -0.5993 -0.3971 -0.6951
vn -0.3739 0.4452 0.8137
vn -0.8351 -0.1736 -0.5220
vn 0.1206 0.3579 0.9260
vn 0.3771 -0.3927 0.8388
vn 0.1740 -0.3736 -0.9111
s off
f 2//1 12//1 1//1
f 5//2 1//2 6//2
f 12//3 6//3 1//3
f 4//4 7//4 10//4
f 13//5 10//5 12//5
f 14//6 4//6 9//6
f 13//7 12//7 2//7
f 7//8 3//8 11//8
f 4//9 10//9 13//9
f 2//10 1//10 8//10
f 7//11 5//11 6//11
f 7//12 14//12 3//12
f 8//13 1//13 11//13
f 9//14 3//14 14//14
f 9//15 4//15 13//15
f 1//16 5//16 11//16
f 7//17 11//17 5//17
f 11//18 9//18 8//18
f 8//19 9//19 13//19
f 12//20 10//20 6//20
f 8//21 13//21 2//21
f 10//22 7//22 6//22
f 7//23 4//23 14//23
f 11//24 3//24 9//24
