# Blender v2.79 (sub 0) OBJ File: ''
# www.blender.org
o anymal_COM_constraints_in_LFleg_effector_frame_quasi_static.000
v -0.112253 0.229012 0.548757
v -0.242575 -0.017352 0.652694
v 0.037196 -0.150480 0.541696
v -0.786524 -0.032667 0.242410
v 0.074540 0.121345 0.468167
v 0.247888 -0.369828 0.320184
v -0.621373 -0.593873 0.244774
v -0.631777 -0.151785 0.507676
v -0.122686 -0.561291 0.464687
v -0.329887 -0.684072 0.360032
v 0.108413 -0.606330 0.230614
v -0.571541 0.206401 0.498955
v -0.349583 -0.535586 0.511327
v -0.367727 -0.248774 0.615472
vn 0.4258 0.1511 0.8921
vn 0.1807 0.3416 -0.9223
vn -0.8805 -0.2574 0.3981
vn 0.4711 0.1694 0.8656
vn 0.2815 -0.8518 0.4419
vn -0.3736 0.0853 0.9236
vn -0.4431 -0.6680 0.5979
vn 0.0499 0.6525 -0.7561
vn -0.8226 0.1517 0.5480
vn -0.1182 0.4384 0.8910
vn 0.0592 0.7051 -0.7066
vn 0.2419 -0.2689 0.9323
vn -0.5860 -0.4243 0.6903
vn -0.0196 -0.0100 -0.9998
vn 0.4892 -0.3409 0.8028
vn -0.0251 -0.8171 -0.5759
vn 0.2269 -0.2731 0.9348
vn 0.1543 -0.3286 0.9318
vn -0.3629 0.0465 0.9307
vn 0.1584 0.2666 -0.9507
vn 0.5353 -0.5564 0.6355
vn 0.7572 0.0716 0.6493
vn -0.4580 -0.3289 0.8259
vn 0.0643 -0.7080 0.7033
s 1
f 1//1 2//1 3//1
f 4//2 5//2 6//2
f 7//3 8//3 4//3
f 1//4 3//4 5//4
f 9//5 10//5 11//5
f 8//6 2//6 12//6
f 10//7 13//7 7//7
f 1//8 5//8 12//8
f 4//9 8//9 12//9
f 12//10 2//10 1//10
f 4//11 12//11 5//11
f 9//12 3//12 2//12
f 8//13 7//13 13//13
f 11//14 7//14 4//14
f 6//15 3//15 9//15
f 11//16 10//16 7//16
f 9//17 2//17 14//17
f 13//18 9//18 14//18
f 8//19 14//19 2//19
f 11//20 4//20 6//20
f 9//21 11//21 6//21
f 6//22 5//22 3//22
f 13//23 14//23 8//23
f 10//24 9//24 13//24
