# Blender v2.79 (sub 0) OBJ File: ''
# www.blender.org
o anymal_COM_constraints_in_RFleg_effector_frame_quasi_static_red
v -0.708207 0.112251 0.394356
v -0.435213 0.204652 0.622306
v -0.561954 0.621084 0.346834
v -0.619029 0.561871 0.247282
v -0.745337 0.287197 0.238623
v 0.193794 -0.064310 0.446920
v -0.727515 -0.040907 0.280840
v 0.252900 0.458251 0.268038
v 0.152133 0.300993 0.469989
v 0.027558 0.667570 0.315130
v -0.151250 0.109629 0.643488
v -0.180620 -0.241292 0.593868
v -0.176723 0.538777 0.500221
v -0.519770 -0.178641 0.537358
vn -0.6692 0.2574 0.6971
vn -0.8784 0.3955 0.2684
vn 0.1588 -0.3358 -0.9284
vn 0.8704 0.0685 0.4876
vn 0.5804 0.4763 0.6605
vn -0.0945 0.8785 -0.4684
vn 0.0261 0.0195 -0.9995
vn 0.4258 -0.1615 0.8903
vn 0.0556 0.2758 -0.9596
vn 0.0359 0.3184 0.9473
vn -0.0370 0.8389 0.5430
vn 0.4115 0.4698 0.7810
vn -0.1168 -0.1295 0.9847
vn 0.0986 -0.7509 -0.6530
vn -0.2314 0.4868 0.8423
vn 0.0506 -0.1248 -0.9909
vn -0.8140 -0.2761 0.5110
vn -0.8130 0.2813 0.5098
vn -0.1927 -0.1716 0.9661
vn -0.1000 -0.9081 -0.4066
vn 0.4956 0.0017 0.8685
vn 0.3119 0.3175 0.8955
vn -0.9788 -0.0270 0.2030
vn -0.6344 -0.0312 0.7724
s 1
f 1//1 2//1 3//1
f 3//2 4//2 5//2
f 6//3 7//3 8//3
f 9//4 6//4 8//4
f 9//5 8//5 10//5
f 4//6 3//6 10//6
f 5//7 4//7 8//7
f 11//8 12//8 6//8
f 8//9 4//9 10//9
f 11//10 13//10 2//10
f 3//11 13//11 10//11
f 9//12 10//12 13//12
f 12//13 11//13 2//13
f 12//14 7//14 6//14
f 2//15 13//15 3//15
f 7//16 5//16 8//16
f 7//17 14//17 1//17
f 1//18 3//18 5//18
f 14//19 12//19 2//19
f 14//20 7//20 12//20
f 11//21 6//21 9//21
f 11//22 9//22 13//22
f 1//23 5//23 7//23
f 14//24 2//24 1//24
