# Blender v2.77 (sub 0) OBJ File: ''
# www.blender.org
mtllib LF_HAA_com_constraints.mtl
o foo.019
v -0.541378 -0.041848 -0.802963
v -0.509806 -0.427987 -0.705647
v -0.697420 -0.403214 -0.548808
v -0.846739 -0.256632 -0.403639
v -0.867629 -0.091324 -0.432386
v -0.808901 0.062390 -0.532830
v 0.382092 -0.471502 0.764301
v 0.488343 -0.285007 0.789529
v 0.197286 -0.229211 0.920457
v 0.016761 -0.536410 0.815322
v 0.945702 -0.192281 -0.166795
v 0.965244 -0.070101 -0.095316
v 0.943694 0.199829 0.035387
v 0.937839 0.174502 0.169477
v 0.938581 -0.194558 0.169948
v 0.939363 -0.241899 -0.061599
v 0.581067 0.235683 0.704507
v 0.396193 0.382872 0.640646
v -0.038158 0.353526 0.827847
v 0.422596 0.192088 0.830867
v -0.366350 -0.150726 -0.893616
v -0.084939 -0.112363 -0.965344
v -0.100823 -0.349902 -0.908706
v -0.372201 -0.485572 -0.759304
v -0.662699 0.427868 0.328856
v 0.060790 0.529812 0.343751
v -0.609975 -0.721161 -0.228416
v -0.749786 -0.612856 0.111814
v -0.867530 -0.429958 0.065598
v -0.886616 -0.329254 -0.198681
v -0.673732 -0.626921 -0.282647
v -0.303623 -0.166352 0.911964
v -0.521435 -0.134948 0.794315
v -0.592478 -0.351774 0.691409
v 0.172584 -0.620649 -0.735738
v 0.156656 -0.696094 -0.667426
v -0.293974 -0.794228 -0.471411
v 0.089575 -0.400230 -0.880875
v 0.746442 0.148181 0.589877
v 0.744003 0.020506 0.611250
v 0.841746 -0.242303 0.413243
v -0.972614 0.029817 -0.051239
v -0.958084 0.132418 0.137461
v -0.948462 0.138260 -0.174340
v 0.820233 0.235961 0.377132
v -0.057482 0.143078 -0.959956
v -0.332313 0.190058 -0.891700
v -0.219117 0.261544 -0.877818
v 0.003879 0.205171 -0.943399
v 0.072789 0.129092 -0.963250
v 0.590065 -0.051979 0.775549
v 0.604436 -0.365756 0.667426
v 0.750435 -0.460009 0.394199
v -0.392246 -0.814467 -0.365115
v -0.593772 -0.570235 -0.518612
v 0.402263 -0.869278 0.162587
v 0.127863 -0.965045 0.048939
v 0.230047 -0.903350 -0.290587
v 0.530100 -0.817109 0.044427
v 0.401360 0.501180 -0.330774
v -0.393663 0.428502 -0.555354
v -0.786300 0.371887 -0.237378
v -0.824598 0.381467 -0.021526
v -0.247934 -0.939075 -0.002874
v -0.322739 -0.889250 0.227355
v -0.542934 -0.760439 0.266281
v 0.524764 0.490559 -0.088643
v 0.824314 0.228707 -0.440999
v 0.511987 0.334740 -0.607584
v -0.231754 0.255036 0.877190
v 0.559347 -0.479356 -0.633225
v 0.498922 -0.715001 -0.449742
v 0.324126 -0.775734 -0.494416
v 0.221061 -0.387870 -0.865185
v 0.365956 -0.344823 -0.831430
v -0.718207 0.248496 0.589858
v -0.510264 0.225733 0.775246
v -0.358507 0.231947 0.860371
v 0.503313 0.048019 -0.829836
v 0.609175 -0.084785 -0.761053
v 0.249904 0.034890 -0.934938
v -0.123446 -0.966198 -0.025769
v -0.094068 -0.913823 -0.309960
v -0.663938 0.110448 0.698102
v 0.538862 0.476243 0.180802
v 0.337750 0.466318 0.480616
v 0.246760 -0.807934 0.483015
v 0.454387 -0.664303 0.539395
v 0.388880 -0.806835 0.362766
v -0.028270 -0.866299 0.439104
v -0.087216 -0.934046 0.270030
v 0.737806 -0.486370 -0.408401
v 0.734867 -0.548750 -0.320968
v 0.831899 -0.473515 -0.176648
v 0.703178 -0.674378 0.022222
v 0.604849 0.153237 -0.732726
v 0.307616 0.243527 -0.855653
v -0.127331 -0.400442 0.876540
v -0.091450 -0.310918 0.913257
v -0.130764 -0.261469 0.921560
v -0.540352 -0.517250 0.609549
v -0.235877 -0.614038 0.718115
v 0.605469 -0.696026 0.321995
v -0.857277 -0.340166 0.309170
v -0.783146 -0.249766 0.505333
v -0.837958 0.108329 0.474453
v -0.955698 0.064056 0.193399
v -0.725095 0.146318 0.625594
v -0.930863 0.208308 0.125419
v 0.738497 -0.602416 0.201962
v -0.630113 -0.594160 0.432049
v -0.830524 0.242706 -0.400967
v 0.847142 -0.273680 -0.386256
v 0.902997 -0.013674 -0.377197
v 0.141423 -0.350369 -0.893880
v -0.562047 0.106448 -0.782726
v -0.226163 0.308919 -0.826832
v -0.431445 0.277619 -0.794300
v -0.598322 0.217041 -0.704717
vn -0.911800 -0.107500 0.396200
vn -0.911600 -0.106500 0.397100
vn -0.912200 -0.109000 0.395000
vn -0.150700 0.987400 -0.048100
vn -0.106300 0.992600 -0.058100
vn -0.126000 0.990300 -0.059000
vn -0.864600 0.348300 0.362200
vn -0.843300 0.381500 0.378500
vn -0.824300 0.319400 0.467400
vn 0.397100 -0.135200 -0.907800
vn 0.323400 -0.157000 -0.933200
vn 0.245600 -0.128300 -0.960800
vn 0.835500 0.341400 0.430600
vn 0.883800 0.156700 0.440800
vn 0.645100 0.601100 0.471800
vn 0.989200 -0.145900 0.015900
vn 0.988400 -0.151200 -0.011800
vn 0.996400 -0.068600 0.050500
vn 0.917600 0.044300 0.395000
vn 0.931500 0.060300 0.358800
vn 0.398100 -0.590400 -0.702200
vn 0.394900 -0.633700 -0.665200
vn 0.383000 -0.599100 -0.703100
vn -0.620800 0.317800 0.716600
vn -0.626800 0.313100 0.713500
vn -0.657100 0.287900 0.696700
vn -0.988900 -0.119000 0.088900
vn -0.987400 -0.143300 -0.067400
vn -0.975400 -0.212100 0.059900
vn -0.069400 0.320500 -0.944700
vn 0.002900 0.254900 -0.967000
vn -0.111600 0.361100 -0.925800
vn 0.363300 -0.044200 0.930600
vn 0.495600 0.080100 0.864800
vn 0.464600 0.119900 0.877400
vn -0.744400 -0.164700 -0.647100
vn -0.729700 -0.127500 -0.671800
vn -0.764900 -0.348500 -0.541700
vn -0.477100 0.054900 0.877100
vn -0.469100 0.049600 0.881700
vn -0.482600 0.056900 0.874000
vn 0.943600 -0.132100 -0.303700
vn 0.956900 -0.094500 -0.274500
vn 0.920300 -0.185700 -0.344400
vn -0.925200 0.374500 -0.061900
vn -0.970900 0.239100 -0.012100
vn -0.941400 0.321400 -0.102300
vn -0.524800 0.347900 -0.776900
vn -0.512000 0.337200 -0.790000
vn -0.499500 0.326900 -0.802300
vn 0.043000 0.143000 0.988800
vn 0.108800 0.198800 0.974000
vn -0.001300 0.142200 0.989800
vn 0.029700 -0.753300 0.657000
vn 0.092200 -0.726000 0.681500
vn -0.023700 -0.750300 0.660700
vn -0.721600 0.642600 0.257700
vn -0.724000 0.635300 0.268700
vn -0.718900 0.650000 0.246100
vn 0.644700 -0.675400 -0.358100
vn 0.700600 -0.475300 -0.532200
vn 0.679000 -0.678900 -0.279400
vn 0.439800 -0.771600 0.459600
vn 0.446000 -0.770100 0.456000
vn 0.409100 -0.778300 0.476300
vn -0.912800 0.137600 -0.384500
vn -0.916700 0.137100 -0.375200
vn -0.903200 0.138500 -0.406200
vn 0.199900 -0.936300 0.288700
vn 0.190000 -0.937200 0.292300
vn 0.225700 -0.932400 0.282300
vn -0.118800 -0.985400 0.121700
vn -0.028600 -0.993400 0.111500
vn -0.132500 -0.983000 0.127300
vn -0.426900 -0.065700 -0.901900
vn -0.330500 0.044600 -0.942700
vn -0.243000 0.037200 -0.969300
vn 0.048700 -0.984100 -0.170600
vn 0.047800 -0.984300 -0.170000
vn 0.041800 -0.985200 -0.166400
vn 0.390400 -0.914500 -0.106500
vn 0.414300 -0.891600 -0.182600
vn 0.441100 -0.856400 -0.268300
vn -0.721400 -0.449500 0.526800
vn -0.739600 -0.446000 0.504000
vn -0.739900 -0.526600 0.418700
vn -0.484600 0.762500 -0.428700
vn -0.623300 0.555800 -0.550000
vn -0.573500 0.643600 -0.506800
vn 0.227000 0.972200 -0.057800
vn 0.367300 0.912500 -0.180200
vn 0.132400 0.987800 0.081700
vn 0.469100 0.839300 -0.274900
vn 0.453000 0.832300 -0.319400
vn -0.324100 -0.808000 0.492100
vn -0.350000 -0.616500 0.705300
vn -0.389800 -0.764000 0.514100
vn 0.063900 -0.033100 -0.997400
vn 0.096100 -0.130300 -0.986800
vn 0.891700 -0.420200 0.168100
vn 0.882600 -0.452300 0.128200
vn 0.894600 -0.439500 0.080600
vn 0.485200 0.650800 -0.584000
vn 0.484800 0.650900 -0.584200
vn 0.450400 0.651400 -0.610600
vn -0.802400 -0.551600 -0.227900
vn -0.820000 -0.554200 -0.142900
vn -0.820200 -0.518200 -0.242300
vn 0.729200 0.093900 -0.677800
vn 0.501700 0.231800 -0.833400
vn 0.671800 0.161200 -0.723000
vn -0.376700 -0.353100 0.856400
vn -0.419300 -0.403800 0.813100
vn -0.274900 -0.426900 0.861500
vn 0.877800 -0.376900 -0.295500
vn 0.912000 -0.362300 -0.192300
vn 0.877400 -0.394000 -0.273700
vn 0.322000 0.257200 -0.911100
vn 0.340700 0.290100 -0.894300
vn 0.580500 0.812300 0.056600
vn 0.599300 0.786900 0.147400
vn 0.592700 0.804100 0.045800
vn -0.039500 0.937400 0.346100
vn 0.079600 0.919500 0.384900
vn -0.051800 0.941700 0.332300
vn -0.090400 0.813000 -0.575300
vn -0.242500 0.622600 -0.744000
vn -0.213000 0.763700 -0.609400
vn 0.561400 -0.318400 -0.763900
vn 0.680600 -0.561900 0.470100
vn 0.672400 -0.559000 0.485300
vn 0.610800 -0.552500 0.567200
vn -0.963500 -0.132600 -0.232800
vn -0.956000 -0.163200 -0.243800
vn -0.974300 -0.186700 -0.125800
vn 0.958600 0.203000 -0.199600
vn 0.952800 0.220900 -0.208300
vn 0.943200 0.247900 -0.221300
vn 0.759000 -0.183400 0.624700
vn 0.727600 -0.239000 0.643100
vn 0.765700 -0.269300 0.584100
vn -0.748000 -0.103300 0.655600
vn -0.784600 -0.072000 0.615800
vn -0.739500 -0.100400 0.665700
vn -0.154200 -0.536900 0.829500
vn 0.159100 -0.718000 0.677600
vn 0.240000 -0.677700 0.695100
vn 0.577400 -0.507700 0.639500
vn 0.518900 -0.398000 0.756500
vn 0.533900 -0.494200 0.686100
vn 0.273800 0.697800 0.661900
vn 0.280400 0.696900 0.660100
vn 0.325800 0.689800 0.646600
vn 0.094800 0.893700 -0.438500
vn 0.098300 0.874200 -0.475500
vn -0.128700 -0.907500 -0.399800
vn 0.034500 -0.859000 -0.510700
vn 0.069600 -0.868300 -0.491100
vn 0.750900 -0.653100 -0.098100
vn 0.586300 -0.788700 0.184800
vn 0.580800 -0.787200 0.207500
vn 0.510100 -0.824300 0.245600
vn -0.340400 -0.912000 -0.229100
vn -0.153700 -0.875500 -0.458200
vn 0.187400 -0.363400 0.912600
vn 0.018200 -0.151500 0.988300
vn 0.041000 -0.270200 0.961900
vn -0.287800 0.833700 0.471200
vn -0.278100 0.824800 0.492300
vn -0.306900 0.823200 0.477600
vn 0.147800 -0.462900 -0.874000
vn 0.148100 -0.471400 -0.869400
vn 0.148900 -0.504100 -0.850700
vn -0.788600 -0.487300 0.375100
vn -0.776900 -0.562000 0.283900
vn -0.539600 -0.841900 0.011500
vn -0.511700 -0.858000 -0.044000
vn -0.396200 -0.911900 -0.107100
vn 0.122200 -0.392900 0.911400
vn -0.308100 -0.298100 -0.903400
vn -0.266600 -0.285700 -0.920500
vn -0.398300 -0.335500 -0.853700
vn -0.523700 -0.634700 -0.568200
vn -0.495300 -0.717000 -0.490500
vn -0.598300 -0.696700 -0.395800
vn 0.702600 -0.413100 -0.579300
vn 0.759500 -0.241700 -0.604000
vn 0.766400 -0.235400 -0.597600
vn -0.095400 -0.602600 -0.792300
vn -0.111300 -0.629400 -0.769000
vn -0.137800 -0.659500 -0.739000
vn 0.645900 0.166100 0.745100
vn 0.612500 0.191900 0.766800
vn 0.475900 0.824500 0.306100
vn 0.474400 0.815400 0.331600
vn 0.462600 0.834600 0.299100
vn -0.896000 0.433200 -0.097700
vn -0.853800 0.507600 -0.115800
vn -0.830200 0.527700 -0.179800
vn -0.729100 0.320700 -0.604700
vn -0.712000 0.233500 -0.662200
vn -0.911200 -0.105100 0.398300
vn -0.069100 0.994600 -0.077100
vn -0.178700 0.982200 -0.058100
vn -0.136100 0.988400 -0.068000
vn -0.805500 0.243300 0.540400
vn -0.800200 0.362800 0.477500
vn -0.882100 0.316400 0.349000
vn 0.165300 -0.203700 -0.965000
vn 0.410200 -0.139800 -0.901200
vn 0.268200 -0.157600 -0.950400
vn 0.997100 0.053600 0.053700
vn 0.996700 0.029400 0.076000
vn 0.995800 -0.050600 0.076400
vn 0.929000 0.002300 0.370200
vn 0.894800 0.053000 0.443400
vn 0.336000 -0.510200 -0.791700
vn 0.372400 -0.526300 -0.764400
vn 0.390100 -0.625900 -0.675400
vn 0.357700 -0.667100 -0.653400
vn -0.608500 0.327500 0.722800
vn -0.972200 -0.203500 0.115900
vn -0.997600 0.019400 0.066300
vn -0.151900 0.414800 -0.897200
vn -0.153900 0.412600 -0.897800
vn 0.389100 -0.115000 0.914000
vn -0.594700 -0.076700 -0.800300
vn -0.620200 -0.239000 -0.747200
vn -0.807500 -0.347000 -0.477000
vn -0.583800 0.029400 -0.811400
vn -0.487900 0.061100 0.870800
vn -0.484100 0.061100 0.872900
vn 0.975000 -0.026800 -0.220700
vn -0.539300 0.360000 -0.761200
vn -0.149900 0.106700 0.982900
vn -0.028800 0.087100 0.995800
vn -0.006400 0.084300 0.996400
vn 0.056200 0.178800 0.982300
vn -0.725900 0.629100 0.278000
vn 0.473200 -0.763000 0.440200
vn -0.931500 0.135200 -0.337700
vn 0.199300 -0.931600 0.303900
vn 0.146700 -0.934800 0.323400
vn 0.161000 -0.939100 0.303600
vn -0.209600 -0.967500 0.141300
vn -0.197100 -0.971200 0.134000
vn -0.233400 0.045600 -0.971300
vn 0.056600 -0.982900 -0.175300
vn 0.386500 -0.851400 -0.354700
vn 0.344500 -0.937900 -0.041400
vn 0.343900 -0.937000 -0.060700
vn -0.731800 -0.473200 0.490500
vn -0.480200 0.746900 -0.460000
vn -0.496500 0.767300 -0.406000
vn 0.156400 0.978100 0.137300
vn 0.134700 0.988400 0.070300
vn -0.410200 -0.742700 0.529300
vn -0.429100 -0.636700 0.640700
vn -0.243500 -0.868000 0.432700
vn -0.284600 -0.826700 0.485300
vn 0.058700 -0.246100 -0.967500
vn 0.057500 -0.307600 -0.949800
vn -0.022700 0.023500 -0.999500
vn 0.834300 -0.549800 -0.040200
vn 0.878500 -0.392300 0.272700
vn 0.877500 -0.404800 0.257000
vn 0.517700 0.649100 -0.557400
vn -0.752000 -0.536000 -0.383600
vn -0.785000 -0.605800 -0.129800
vn -0.811300 -0.568600 -0.136100
vn 0.784000 0.092900 -0.613800
vn 0.783700 0.090900 -0.614500
vn -0.188900 -0.306900 0.932800
vn -0.212200 -0.305900 0.928100
vn -0.487900 -0.238600 0.839600
vn 0.825600 -0.472000 -0.309000
vn 0.844100 -0.431100 -0.318800
vn 0.921900 -0.368900 -0.118400
vn 0.203600 0.415700 -0.886400
vn 0.234500 0.365800 -0.900700
vn 0.586900 0.803700 -0.098300
vn 0.576700 0.816200 -0.034900
vn 0.601700 0.791600 0.106500
vn -0.138800 0.939300 0.313700
vn 0.121900 0.897600 0.423500
vn -0.338700 0.665500 -0.665200
vn 0.735100 -0.565800 0.373500
vn -0.967100 -0.063900 -0.246100
vn 0.969500 0.165100 -0.181100
vn 0.762200 -0.366400 0.533700
vn 0.723500 -0.195100 0.662200
vn 0.625700 -0.228400 0.745900
vn -0.720000 -0.090600 0.688100
vn -0.711700 -0.120100 0.692200
vn -0.791000 -0.068700 0.607900
vn 0.287000 -0.679800 0.675000
vn 0.241500 0.701700 0.670300
vn -0.051500 0.901800 -0.429000
vn 0.166700 0.873000 -0.458300
vn 0.059800 0.801300 -0.595200
vn -0.015600 0.731400 -0.681800
vn 0.100100 -0.863500 -0.494400
vn 0.608600 -0.768600 -0.197200
vn 0.478600 -0.828600 0.290500
vn 0.648100 -0.745100 0.157500
vn 0.661900 -0.731700 0.162900
vn -0.243600 -0.949000 -0.200100
vn -0.341400 0.807000 0.482000
vn -0.209800 0.928600 0.306200
vn -0.271500 0.818500 0.506400
vn 0.145100 -0.388200 -0.910100
vn -0.844900 -0.489400 0.216000
vn -0.691500 -0.658500 0.296900
vn -0.501600 -0.864800 0.024200
vn -0.588400 -0.808400 0.015600
vn 0.025300 -0.388000 0.921300
vn 0.272000 -0.366100 0.889900
vn 0.339000 -0.313200 0.887100
vn -0.458300 -0.324000 -0.827600
vn -0.214000 -0.213000 -0.953300
vn -0.597400 -0.486100 -0.637900
vn -0.526500 -0.546100 -0.651700
vn -0.446800 -0.631700 -0.633500
vn -0.429800 -0.696400 -0.574700
vn -0.650800 -0.658100 -0.378600
vn 0.798300 -0.151200 -0.583000
vn -0.154400 -0.694500 -0.702700
vn -0.138600 -0.667500 -0.731600
vn -0.025700 -0.556500 -0.830400
vn 0.607600 0.119800 0.785100
vn 0.463600 0.819000 0.338100
vn 0.499300 0.785600 0.365400
vn -0.829800 0.524700 -0.190000
usemtl None.020
s 1
f 105//1 107//2 104//3
f 25//4 26//5 61//6
f 109//7 106//8 76//9
f 79//10 75//11 81//12
f 39//13 45//14 17//15
f 16//16 11//17 12//18
f 41//19 45//14 40//20
f 71//21 73//22 35//23
f 84//24 76//25 108//26
f 107//27 42//28 29//29
f 49//30 50//31 46//32
f 9//33 51//34 20//35
f 5//36 6//37 3//38
f 33//39 32//40 78//41
f 114//42 11//43 113//44
f 109//45 42//46 43//47
f 116//48 118//49 47//50
f 9//51 19//52 70//53
f 90//54 10//55 102//56
f 109//57 25//58 63//59
f 72//60 92//61 93//62
f 89//63 88//64 87//65
f 112//66 5//67 44//68
f 87//69 57//70 89//71
f 82//72 57//73 91//74
f 21//75 47//76 22//77
f 57//78 83//79 58//80
f 59//81 58//82 72//83
f 101//84 105//85 111//86
f 61//87 119//88 112//89
f 67//90 60//91 26//92
f 60//91 68//93 69//94
f 65//95 102//96 66//97
f 50//98 81//12 22//99
f 15//100 110//101 16//102
f 69//103 96//104 97//105
f 31//106 29//107 30//108
f 80//109 79//110 96//111
f 32//112 34//113 98//114
f 113//115 11//116 94//117
f 79//110 81//118 97//119
f 85//120 14//121 13//122
f 19//123 86//124 26//125
f 117//126 47//127 118//128
f 80//129 71//129 75//129
f 103//130 53//131 88//132
f 5//133 4//134 30//135
f 13//136 114//137 68//138
f 40//139 52//140 41//141
f 84//142 108//143 105//144
f 102//96 10//145 98//114
f 87//146 7//147 10//55
f 52//148 8//149 7//150
f 18//151 20//152 17//153
f 60//154 97//155 117//126
f 83//156 36//157 58//158
f 95//159 72//60 93//62
f 59//160 103//161 56//162
f 54//163 37//164 83//156
f 9//165 100//166 99//167
f 77//168 19//169 25//170
f 38//171 74//172 35//173
f 111//86 104//174 28//175
f 66//176 27//177 64//178
f 10//179 9//165 99//167
f 21//180 23//181 24//182
f 55//183 54//184 27//185
f 71//186 80//187 113//188
f 23//189 35//190 24//191
f 51//34 40//192 17//193
f 18//194 45//195 86//196
f 44//197 63//198 62//199
f 6//200 119//88 116//201
f 105//1 106//202 107//2
f 60//203 61//6 26//5
f 62//204 63//205 25//4
f 25//4 61//6 62//204
f 108//206 76//9 106//8
f 109//7 43//207 107//208
f 107//208 106//8 109//7
f 115//209 81//12 75//11
f 79//10 80//210 75//11
f 75//11 74//211 115//209
f 13//212 14//213 12//18
f 15//214 16//16 12//18
f 12//18 14//213 15//214
f 39//13 40//20 45//14
f 41//19 15//215 14//216
f 14//216 45//14 41//19
f 35//23 74//217 75//218
f 75//218 71//21 35//23
f 72//219 73//22 71//21
f 36//220 35//23 73//22
f 84//24 77//221 76//25
f 30//135 29//29 42//28
f 104//222 107//27 29//29
f 43//223 42//28 107//27
f 46//32 47//224 48//225
f 48//225 49//30 46//32
f 9//33 8//226 51//34
f 1//227 21//75 2//228
f 2//228 3//38 1//227
f 4//229 5//36 3//38
f 6//37 116//230 1//227
f 1//227 3//38 6//37
f 78//41 77//231 33//39
f 84//232 33//39 77//231
f 114//42 12//233 11//43
f 109//45 44//197 42//46
f 116//48 119//234 118//49
f 78//235 32//236 70//53
f 100//237 9//51 70//53
f 20//238 19//52 9//51
f 70//53 32//236 100//237
f 90//54 87//146 10//55
f 109//57 76//239 25//58
f 72//60 71//186 92//61
f 89//63 103//240 88//64
f 112//66 6//241 5//67
f 56//242 89//71 57//70
f 87//69 90//243 91//244
f 91//244 57//70 87//69
f 91//74 65//245 64//246
f 64//246 82//72 91//74
f 46//247 22//77 47//76
f 21//75 1//227 47//76
f 116//230 47//76 1//227
f 57//78 82//248 83//79
f 73//249 72//83 58//82
f 59//81 56//250 57//251
f 57//251 58//82 59//81
f 104//174 111//86 105//85
f 101//84 34//252 105//85
f 112//89 62//253 61//87
f 61//87 118//254 119//88
f 26//92 86//255 85//256
f 85//256 67//90 26//92
f 60//91 67//90 68//93
f 111//257 66//97 101//258
f 65//95 91//259 90//260
f 90//260 102//96 65//95
f 101//258 66//97 102//96
f 23//261 115//209 38//262
f 46//263 50//98 22//99
f 81//12 115//209 22//99
f 23//261 22//99 115//209
f 94//264 16//102 110//101
f 15//100 41//265 53//266
f 53//266 110//101 15//100
f 95//159 94//264 110//101
f 69//103 68//267 96//104
f 30//108 4//229 31//106
f 3//38 55//268 31//106
f 31//106 27//269 28//270
f 28//270 29//107 31//106
f 4//229 3//38 31//106
f 96//111 68//271 114//272
f 114//272 80//109 96//111
f 101//258 102//96 34//113
f 98//114 99//273 100//274
f 100//274 32//112 98//114
f 33//275 34//113 32//112
f 102//96 98//114 34//113
f 94//117 93//276 92//277
f 92//277 113//115 94//117
f 11//116 16//278 94//117
f 49//279 97//119 50//280
f 96//111 79//110 97//119
f 81//118 50//280 97//119
f 13//122 68//281 67//282
f 67//282 85//120 13//122
f 45//283 14//121 85//120
f 26//125 25//284 19//123
f 19//123 18//285 86//124
f 117//126 48//286 47//127
f 7//150 88//132 52//148
f 103//130 110//287 53//131
f 53//131 52//148 88//132
f 30//135 42//28 5//133
f 44//288 5//133 42//28
f 13//136 12//289 114//137
f 53//290 41//141 52//140
f 40//139 51//291 52//140
f 8//292 52//140 51//291
f 105//144 34//293 33//294
f 33//294 84//142 105//144
f 108//143 106//295 105//144
f 87//146 88//296 7//147
f 18//151 19//297 20//152
f 118//128 61//298 117//126
f 60//154 69//299 97//155
f 97//155 49//300 117//126
f 117//126 61//298 60//154
f 49//300 48//301 117//126
f 73//302 58//158 36//157
f 83//156 37//164 36//157
f 72//60 95//159 59//303
f 94//264 95//159 93//62
f 89//304 56//162 103//161
f 59//160 95//305 103//161
f 110//306 103//161 95//305
f 83//156 82//307 64//178
f 64//178 54//163 83//156
f 25//170 76//308 77//168
f 77//168 78//309 70//310
f 70//310 19//169 77//168
f 38//171 115//311 74//172
f 29//312 28//175 104//174
f 66//313 111//86 28//175
f 54//163 64//178 27//177
f 65//314 66//176 64//178
f 28//315 27//177 66//176
f 99//167 98//316 10//179
f 10//179 7//317 9//165
f 8//318 9//165 7//317
f 24//182 2//319 21//180
f 21//180 22//320 23//181
f 55//183 3//321 2//322
f 2//322 24//323 55//183
f 37//324 54//184 55//183
f 27//185 31//325 55//183
f 55//183 24//323 37//324
f 114//326 113//188 80//187
f 92//61 71//186 113//188
f 37//327 24//191 36//328
f 23//189 38//329 35//190
f 35//190 36//328 24//191
f 39//330 17//193 40//192
f 20//35 51//34 17//193
f 85//331 86//196 45//195
f 18//194 17//332 45//195
f 62//199 112//333 44//197
f 44//197 109//45 63//198
f 6//200 112//89 119//88
