# Blender v2.77 (sub 0) OBJ File: ''
# www.blender.org
mtllib LF_HAA_08_com_constraints.mtl
o foo.019
v -0.626517 -0.199813 0.404266
v -0.764558 0.051245 0.154719
v -0.685822 -0.272133 0.247336
v -0.530159 0.342294 0.263085
v 0.048632 0.423850 0.275001
v -0.314930 0.342802 -0.444283
v -0.744690 0.166646 0.100335
v -0.670366 0.086663 0.379562
v -0.574566 0.198797 0.471886
v 0.402650 0.038415 -0.663869
v 0.292765 -0.275858 -0.665144
v 0.199923 0.027912 -0.747950
v 0.597154 0.118545 0.471902
v 0.656186 0.188769 0.301706
v 0.464854 0.188546 0.563606
v 0.751490 -0.193519 -0.049279
v 0.756562 -0.153825 -0.133436
v 0.772195 -0.056081 -0.076253
v 0.673397 -0.193842 0.330594
v 0.595202 0.016405 0.489000
v 0.447478 -0.383485 -0.506580
v 0.259301 -0.620587 -0.395533
v 0.138067 -0.496519 -0.588590
v -0.531150 0.088358 0.558482
v -0.580076 0.117054 0.500475
v -0.778091 0.023854 -0.040991
v -0.694024 -0.343966 0.052478
v 0.003103 0.164137 -0.754719
v 0.058231 0.103274 -0.770600
v -0.045986 0.114462 -0.767965
v 0.157829 -0.183369 0.736366
v 0.472052 -0.041583 0.620439
v 0.338077 0.153670 0.664694
v -0.694103 -0.073059 -0.345909
v -0.647121 0.049912 -0.426264
v -0.557936 -0.322571 -0.439046
v -0.417148 -0.107958 0.635452
v -0.242898 -0.133082 0.729571
v -0.286806 0.185558 0.688297
v 0.722398 -0.010939 -0.301758
v 0.677714 -0.218944 -0.309005
v -0.766467 0.105934 0.109969
v -0.449638 0.085158 -0.626181
v -0.345156 0.222095 -0.635440
v -0.265850 0.152046 -0.713360
v -0.030526 0.282821 0.662278
v -0.185403 0.204029 0.701752
v -0.022616 -0.693039 0.351283
v 0.013409 -0.429128 0.652258
v -0.188702 -0.491230 0.574492
v -0.659678 0.305174 -0.017221
v 0.399138 -0.572001 -0.359794
v 0.590245 -0.389096 -0.326721
v 0.587894 -0.439000 -0.256774
v 0.311104 -0.645468 0.290213
v 0.363510 -0.531442 0.431516
v 0.197408 -0.646347 0.386412
v -0.664419 0.194165 -0.320774
v -0.758770 0.110608 -0.139472
v 0.102290 -0.772036 0.039151
v -0.098757 -0.772958 -0.020615
v -0.069773 -0.747237 0.216024
v -0.293080 -0.120581 -0.714893
v -0.067951 -0.089890 -0.772275
v -0.075254 -0.731058 -0.247968
v 0.184038 -0.722680 -0.232470
v 0.424080 -0.653687 0.035542
v -0.432282 -0.413800 0.487639
v -0.504090 -0.475328 0.345639
v -0.478658 0.173633 -0.563774
v 0.419811 0.392447 -0.070914
v 0.321088 0.400944 -0.264619
v 0.659451 0.182966 -0.352799
v 0.409590 0.267792 -0.486067
v -0.258191 -0.711400 0.181884
v -0.434347 -0.608351 0.213025
v 0.750865 -0.155646 0.135958
v 0.590798 -0.481933 0.161570
v 0.483879 0.122590 -0.586181
v 0.246093 0.194822 -0.684522
v -0.538986 -0.501537 -0.226118
v -0.709293 -0.263403 -0.158945
v 0.487340 -0.067828 -0.608842
v -0.473982 -0.281419 0.553127
v -0.101865 -0.320354 0.701232
v 0.665519 -0.378812 -0.141318
v 0.431090 0.380994 0.144642
v 0.750271 0.139602 0.135582
v 0.754955 0.159863 0.028310
v 0.270200 0.373054 0.384493
v -0.180930 0.247135 -0.661466
v 0.484375 -0.556821 0.257596
v 0.600348 -0.368007 0.315359
v -0.677391 -0.205306 -0.322911
v 0.483549 -0.292605 0.533941
v 0.305674 -0.377202 0.611441
v 0.390674 -0.228006 0.631623
v 0.316954 0.306298 0.512517
v 0.125325 -0.556875 -0.533941
v 0.562542 -0.539502 0.017778
v 0.321810 -0.695422 0.130070
v -0.313797 -0.651574 -0.292092
v -0.235179 -0.635382 -0.377129
v -0.104611 -0.209175 0.737248
v -0.073160 -0.248734 0.730606
v -0.408211 0.180586 0.620197
v 0.071660 -0.320184 -0.704700
v 0.176849 -0.310296 -0.692148
v -0.599829 -0.490285 0.089451
v -0.487980 -0.576929 -0.182733
v -0.198347 -0.751260 -0.002299
v -0.080658 -0.279922 -0.726965
v -0.297761 -0.388458 -0.607443
v -0.475018 -0.456188 -0.414890
v -0.629040 0.297510 -0.189902
v 0.113138 -0.280295 -0.715104
v -0.175294 0.209235 -0.702254
v -0.433102 -0.033478 -0.642370
v -0.407845 -0.342390 -0.564518
vn -0.911800 -0.107500 0.396200
vn -0.911600 -0.106500 0.397100
vn -0.912200 -0.109000 0.395000
vn -0.150700 0.987400 -0.048100
vn -0.106300 0.992600 -0.058100
vn -0.126000 0.990300 -0.059000
vn -0.864600 0.348300 0.362200
vn -0.843300 0.381500 0.378500
vn -0.824300 0.319400 0.467400
vn 0.397100 -0.135200 -0.907800
vn 0.323400 -0.157000 -0.933200
vn 0.245600 -0.128300 -0.960800
vn 0.835500 0.341400 0.430600
vn 0.883800 0.156700 0.440800
vn 0.645100 0.601100 0.471800
vn 0.989200 -0.145900 0.015900
vn 0.988400 -0.151200 -0.011800
vn 0.996400 -0.068600 0.050500
vn 0.917600 0.044300 0.395000
vn 0.931500 0.060300 0.358800
vn 0.398100 -0.590400 -0.702200
vn 0.394900 -0.633700 -0.665200
vn 0.383000 -0.599100 -0.703100
vn -0.620800 0.317800 0.716600
vn -0.626800 0.313100 0.713500
vn -0.657100 0.287900 0.696700
vn -0.988900 -0.119000 0.088900
vn -0.987400 -0.143300 -0.067400
vn -0.975400 -0.212100 0.059900
vn -0.069400 0.320500 -0.944700
vn 0.002900 0.254900 -0.967000
vn -0.111600 0.361100 -0.925800
vn 0.363300 -0.044200 0.930600
vn 0.495600 0.080100 0.864800
vn 0.464600 0.119900 0.877400
vn -0.744400 -0.164700 -0.647100
vn -0.729700 -0.127500 -0.671800
vn -0.764900 -0.348500 -0.541700
vn -0.477100 0.054900 0.877100
vn -0.469100 0.049600 0.881700
vn -0.482600 0.056900 0.874000
vn 0.943600 -0.132100 -0.303700
vn 0.956900 -0.094500 -0.274500
vn 0.920300 -0.185700 -0.344400
vn -0.925200 0.374500 -0.061900
vn -0.970900 0.239100 -0.012100
vn -0.941400 0.321400 -0.102300
vn -0.524800 0.347900 -0.776900
vn -0.512000 0.337200 -0.790000
vn -0.499500 0.326900 -0.802300
vn 0.043000 0.143000 0.988800
vn 0.108800 0.198800 0.974000
vn -0.001300 0.142200 0.989800
vn 0.029700 -0.753300 0.657000
vn 0.092200 -0.726000 0.681500
vn -0.023700 -0.750300 0.660700
vn -0.721600 0.642600 0.257700
vn -0.724000 0.635300 0.268700
vn -0.718900 0.650000 0.246100
vn 0.644700 -0.675400 -0.358100
vn 0.700600 -0.475300 -0.532200
vn 0.679000 -0.678900 -0.279400
vn 0.439800 -0.771600 0.459600
vn 0.446000 -0.770100 0.456000
vn 0.409100 -0.778300 0.476300
vn -0.912800 0.137600 -0.384500
vn -0.916700 0.137100 -0.375200
vn -0.903200 0.138500 -0.406200
vn 0.199900 -0.936300 0.288700
vn 0.190000 -0.937200 0.292300
vn 0.225700 -0.932400 0.282300
vn -0.118800 -0.985400 0.121700
vn -0.028600 -0.993400 0.111500
vn -0.132500 -0.983000 0.127300
vn -0.426900 -0.065700 -0.901900
vn -0.330500 0.044600 -0.942700
vn -0.243000 0.037200 -0.969300
vn 0.048700 -0.984100 -0.170600
vn 0.047800 -0.984300 -0.170000
vn 0.041800 -0.985200 -0.166400
vn 0.390400 -0.914500 -0.106500
vn 0.414300 -0.891600 -0.182600
vn 0.441100 -0.856400 -0.268300
vn -0.721400 -0.449500 0.526800
vn -0.739600 -0.446000 0.504000
vn -0.739900 -0.526600 0.418700
vn -0.484600 0.762500 -0.428700
vn -0.623300 0.555800 -0.550000
vn -0.573500 0.643600 -0.506800
vn 0.227000 0.972200 -0.057800
vn 0.367300 0.912500 -0.180200
vn 0.132400 0.987800 0.081700
vn 0.469100 0.839300 -0.274900
vn 0.453000 0.832300 -0.319400
vn -0.324100 -0.808000 0.492100
vn -0.350000 -0.616500 0.705300
vn -0.389800 -0.764000 0.514100
vn 0.063900 -0.033100 -0.997400
vn 0.096100 -0.130300 -0.986800
vn 0.891700 -0.420200 0.168100
vn 0.882600 -0.452300 0.128200
vn 0.894600 -0.439500 0.080600
vn 0.485200 0.650800 -0.584000
vn 0.484800 0.650900 -0.584200
vn 0.450400 0.651400 -0.610600
vn -0.802400 -0.551600 -0.227900
vn -0.820000 -0.554200 -0.142900
vn -0.820200 -0.518200 -0.242300
vn 0.729200 0.093900 -0.677800
vn 0.501700 0.231800 -0.833400
vn 0.671800 0.161200 -0.723000
vn -0.376700 -0.353100 0.856400
vn -0.419300 -0.403800 0.813100
vn -0.274900 -0.426900 0.861500
vn 0.877800 -0.376900 -0.295500
vn 0.912000 -0.362300 -0.192300
vn 0.877400 -0.394000 -0.273700
vn 0.322000 0.257200 -0.911100
vn 0.340700 0.290100 -0.894300
vn 0.580500 0.812300 0.056600
vn 0.599300 0.786900 0.147400
vn 0.592700 0.804100 0.045800
vn -0.039500 0.937400 0.346100
vn 0.079600 0.919500 0.384900
vn -0.051800 0.941700 0.332300
vn -0.090400 0.813000 -0.575300
vn -0.242500 0.622600 -0.744000
vn -0.213000 0.763700 -0.609400
vn 0.561400 -0.318400 -0.763900
vn 0.680600 -0.561900 0.470100
vn 0.672400 -0.559000 0.485300
vn 0.610800 -0.552500 0.567200
vn -0.963500 -0.132600 -0.232800
vn -0.956000 -0.163200 -0.243800
vn -0.974300 -0.186700 -0.125800
vn 0.958600 0.203000 -0.199600
vn 0.952800 0.220900 -0.208300
vn 0.943200 0.247900 -0.221300
vn 0.759000 -0.183400 0.624700
vn 0.727600 -0.239000 0.643100
vn 0.765700 -0.269300 0.584100
vn -0.748000 -0.103300 0.655600
vn -0.784600 -0.072000 0.615800
vn -0.739500 -0.100400 0.665700
vn -0.154200 -0.536900 0.829500
vn 0.159100 -0.718000 0.677600
vn 0.240000 -0.677700 0.695100
vn 0.577400 -0.507700 0.639500
vn 0.518900 -0.398000 0.756500
vn 0.533900 -0.494200 0.686100
vn 0.273800 0.697800 0.661900
vn 0.280400 0.696900 0.660100
vn 0.325800 0.689800 0.646600
vn 0.094800 0.893700 -0.438500
vn 0.098300 0.874200 -0.475500
vn -0.128700 -0.907500 -0.399800
vn 0.034500 -0.859000 -0.510700
vn 0.069600 -0.868300 -0.491100
vn 0.750900 -0.653100 -0.098100
vn 0.586300 -0.788700 0.184800
vn 0.580800 -0.787200 0.207500
vn 0.510100 -0.824300 0.245600
vn -0.340400 -0.912000 -0.229100
vn -0.153700 -0.875500 -0.458200
vn 0.187400 -0.363400 0.912600
vn 0.018200 -0.151500 0.988300
vn 0.041000 -0.270200 0.961900
vn -0.287800 0.833700 0.471200
vn -0.278100 0.824800 0.492300
vn -0.306900 0.823200 0.477600
vn 0.147800 -0.462900 -0.874000
vn 0.148100 -0.471400 -0.869400
vn 0.148900 -0.504100 -0.850700
vn -0.788600 -0.487300 0.375100
vn -0.776900 -0.562000 0.283900
vn -0.539600 -0.841900 0.011500
vn -0.511700 -0.858000 -0.044000
vn -0.396200 -0.911900 -0.107100
vn 0.122200 -0.392900 0.911400
vn -0.308100 -0.298100 -0.903400
vn -0.266600 -0.285700 -0.920500
vn -0.398300 -0.335500 -0.853700
vn -0.523700 -0.634700 -0.568200
vn -0.495300 -0.717000 -0.490500
vn -0.598300 -0.696700 -0.395800
vn 0.702600 -0.413100 -0.579300
vn 0.759500 -0.241700 -0.604000
vn 0.766400 -0.235400 -0.597600
vn -0.095400 -0.602600 -0.792300
vn -0.111300 -0.629400 -0.769000
vn -0.137800 -0.659500 -0.739000
vn 0.645900 0.166100 0.745100
vn 0.612500 0.191900 0.766800
vn 0.475900 0.824500 0.306100
vn 0.474400 0.815400 0.331600
vn 0.462600 0.834600 0.299100
vn -0.896000 0.433200 -0.097700
vn -0.853800 0.507600 -0.115800
vn -0.830200 0.527700 -0.179800
vn -0.729100 0.320700 -0.604700
vn -0.712000 0.233500 -0.662200
vn -0.911200 -0.105100 0.398300
vn -0.069100 0.994600 -0.077100
vn -0.178700 0.982200 -0.058100
vn -0.136100 0.988400 -0.068000
vn -0.805500 0.243300 0.540400
vn -0.800200 0.362800 0.477500
vn -0.882100 0.316400 0.349000
vn 0.165300 -0.203700 -0.965000
vn 0.410200 -0.139800 -0.901200
vn 0.268200 -0.157600 -0.950400
vn 0.997100 0.053600 0.053700
vn 0.996700 0.029400 0.076000
vn 0.995800 -0.050600 0.076400
vn 0.929000 0.002300 0.370200
vn 0.894800 0.053000 0.443400
vn 0.336000 -0.510200 -0.791700
vn 0.372400 -0.526300 -0.764400
vn 0.390100 -0.625900 -0.675400
vn 0.357800 -0.667100 -0.653400
vn -0.608500 0.327500 0.722800
vn -0.972200 -0.203500 0.115900
vn -0.997600 0.019400 0.066300
vn -0.151900 0.414800 -0.897200
vn -0.153900 0.412600 -0.897800
vn 0.389100 -0.115000 0.914000
vn -0.594700 -0.076700 -0.800300
vn -0.620200 -0.239000 -0.747200
vn -0.807500 -0.347000 -0.477000
vn -0.583800 0.029400 -0.811400
vn -0.487900 0.061100 0.870800
vn -0.484100 0.061100 0.872900
vn 0.975000 -0.026800 -0.220700
vn -0.539300 0.360000 -0.761200
vn -0.149900 0.106700 0.982900
vn -0.028800 0.087100 0.995800
vn -0.006400 0.084300 0.996400
vn 0.056200 0.178800 0.982300
vn -0.725900 0.629100 0.278000
vn 0.473200 -0.763000 0.440200
vn -0.931500 0.135200 -0.337700
vn 0.199300 -0.931600 0.303900
vn 0.146700 -0.934800 0.323400
vn 0.161000 -0.939100 0.303600
vn -0.209600 -0.967500 0.141300
vn -0.197100 -0.971200 0.134000
vn -0.233400 0.045600 -0.971300
vn 0.056600 -0.982900 -0.175300
vn 0.386500 -0.851400 -0.354700
vn 0.344500 -0.937900 -0.041400
vn 0.343900 -0.937000 -0.060700
vn -0.731800 -0.473200 0.490500
vn -0.480200 0.746900 -0.460000
vn -0.496500 0.767300 -0.406000
vn 0.156400 0.978100 0.137300
vn 0.134700 0.988400 0.070300
vn -0.410200 -0.742700 0.529300
vn -0.429100 -0.636700 0.640700
vn -0.243500 -0.868000 0.432700
vn -0.284600 -0.826700 0.485300
vn 0.058700 -0.246100 -0.967500
vn 0.057500 -0.307600 -0.949800
vn -0.022700 0.023500 -0.999500
vn 0.834300 -0.549800 -0.040200
vn 0.878500 -0.392300 0.272700
vn 0.877500 -0.404800 0.257000
vn 0.517700 0.649100 -0.557400
vn -0.752000 -0.536000 -0.383600
vn -0.785000 -0.605800 -0.129800
vn -0.811300 -0.568600 -0.136100
vn 0.784000 0.092900 -0.613800
vn 0.783700 0.090900 -0.614500
vn -0.188900 -0.306900 0.932800
vn -0.212200 -0.305900 0.928100
vn -0.487900 -0.238600 0.839600
vn 0.825600 -0.472000 -0.309000
vn 0.844100 -0.431100 -0.318800
vn 0.921900 -0.368900 -0.118400
vn 0.203600 0.415700 -0.886400
vn 0.234500 0.365800 -0.900700
vn 0.586900 0.803700 -0.098300
vn 0.576700 0.816200 -0.034900
vn 0.601700 0.791600 0.106500
vn -0.138800 0.939300 0.313700
vn 0.121900 0.897600 0.423500
vn -0.338700 0.665500 -0.665200
vn 0.735100 -0.565800 0.373500
vn -0.967100 -0.063900 -0.246100
vn 0.969500 0.165100 -0.181100
vn 0.762200 -0.366400 0.533700
vn 0.723500 -0.195100 0.662200
vn 0.625700 -0.228400 0.745900
vn -0.720000 -0.090600 0.688100
vn -0.711700 -0.120100 0.692200
vn -0.791000 -0.068700 0.607900
vn 0.287000 -0.679800 0.675000
vn 0.241500 0.701700 0.670300
vn -0.051500 0.901800 -0.429000
vn 0.166700 0.873000 -0.458300
vn 0.059800 0.801300 -0.595200
vn -0.015600 0.731400 -0.681800
vn 0.100100 -0.863500 -0.494400
vn 0.608600 -0.768600 -0.197200
vn 0.478600 -0.828600 0.290500
vn 0.648100 -0.745100 0.157500
vn 0.661900 -0.731700 0.162900
vn -0.243600 -0.949000 -0.200100
vn -0.341400 0.807000 0.482000
vn -0.209800 0.928600 0.306200
vn -0.271500 0.818500 0.506400
vn 0.145100 -0.388200 -0.910100
vn -0.844900 -0.489400 0.216000
vn -0.691500 -0.658500 0.296900
vn -0.501600 -0.864800 0.024200
vn -0.588400 -0.808400 0.015600
vn 0.025300 -0.388000 0.921300
vn 0.272000 -0.366100 0.889900
vn 0.339000 -0.313200 0.887100
vn -0.458300 -0.324000 -0.827600
vn -0.214000 -0.213000 -0.953300
vn -0.597400 -0.486100 -0.637900
vn -0.526500 -0.546100 -0.651700
vn -0.446800 -0.631700 -0.633500
vn -0.429800 -0.696400 -0.574700
vn -0.650800 -0.658100 -0.378600
vn 0.798300 -0.151200 -0.583000
vn -0.154400 -0.694500 -0.702700
vn -0.138600 -0.667500 -0.731600
vn -0.025700 -0.556500 -0.830400
vn 0.607600 0.119800 0.785100
vn 0.463600 0.819000 0.338100
vn 0.499300 0.785600 0.365400
vn -0.829800 0.524700 -0.190000
usemtl None.020
s 1
f 1//1 2//2 3//3
f 4//4 5//5 6//6
f 7//7 8//8 9//9
f 10//10 11//11 12//12
f 13//13 14//14 15//15
f 16//16 17//17 18//18
f 19//19 14//14 20//20
f 21//21 22//22 23//23
f 24//24 9//25 25//26
f 2//27 26//28 27//29
f 28//30 29//31 30//32
f 31//33 32//34 33//35
f 34//36 35//37 36//38
f 37//39 38//40 39//41
f 40//42 17//43 41//44
f 7//45 26//46 42//47
f 43//48 44//49 45//50
f 31//51 46//52 47//53
f 48//54 49//55 50//56
f 7//57 4//58 51//59
f 52//60 53//61 54//62
f 55//63 56//64 57//65
f 58//66 34//67 59//68
f 57//69 60//70 55//71
f 61//72 60//73 62//74
f 63//75 45//76 64//77
f 60//78 65//79 66//80
f 67//81 66//82 52//83
f 68//84 1//85 69//86
f 6//87 70//88 58//89
f 71//90 72//91 5//92
f 72//91 73//93 74//94
f 75//95 50//96 76//97
f 29//98 12//12 64//99
f 77//100 78//101 16//102
f 74//103 79//104 80//105
f 81//106 27//107 82//108
f 83//109 10//110 79//111
f 38//112 84//113 85//114
f 41//115 17//116 86//117
f 10//110 12//118 80//119
f 87//120 88//121 89//122
f 46//123 90//124 5//125
f 91//126 45//127 44//128
f 83//129 21//129 11//129
f 92//130 93//131 56//132
f 34//133 94//134 82//135
f 89//136 40//137 73//138
f 20//139 95//140 19//141
f 24//142 25//143 1//144
f 50//96 49//145 85//114
f 57//146 96//147 49//55
f 95//148 97//149 96//150
f 98//151 33//152 15//153
f 72//154 80//155 91//126
f 65//156 99//157 66//158
f 100//159 52//60 54//62
f 67//160 92//161 101//162
f 102//163 103//164 65//156
f 31//165 104//166 105//167
f 106//168 46//169 4//170
f 107//171 108//172 23//173
f 69//86 3//174 109//175
f 76//176 110//177 111//178
f 49//179 31//165 105//167
f 63//180 112//181 113//182
f 114//183 102//184 110//185
f 21//186 83//187 41//188
f 112//189 23//190 113//191
f 32//34 20//192 15//193
f 98//194 14//195 90//196
f 59//197 51//198 115//199
f 35//200 70//88 43//201
f 1//1 8//202 2//2
f 72//203 6//6 5//5
f 115//204 51//205 4//4
f 4//4 6//6 115//204
f 25//206 9//9 8//8
f 7//7 42//207 2//208
f 2//208 8//8 7//7
f 116//209 12//12 11//11
f 10//10 83//210 11//11
f 11//11 108//211 116//209
f 89//212 88//213 18//18
f 77//214 16//16 18//18
f 18//18 88//213 77//214
f 13//13 20//20 14//14
f 19//19 77//215 88//216
f 88//216 14//14 19//19
f 23//23 108//217 11//218
f 11//218 21//21 23//23
f 52//219 22//22 21//21
f 99//220 23//23 22//22
f 24//24 106//221 9//25
f 82//135 27//29 26//28
f 3//222 2//27 27//29
f 42//223 26//28 2//27
f 30//32 45//224 117//225
f 117//225 28//30 30//32
f 31//33 97//226 32//34
f 118//227 63//75 119//228
f 119//228 36//38 118//227
f 94//229 34//36 36//38
f 35//37 43//230 118//227
f 118//227 36//38 35//37
f 39//41 106//231 37//39
f 24//232 37//39 106//231
f 40//42 18//233 17//43
f 7//45 59//197 26//46
f 43//48 70//234 44//49
f 39//235 38//236 47//53
f 104//237 31//51 47//53
f 33//238 46//52 31//51
f 47//53 38//236 104//237
f 48//54 57//146 49//55
f 7//57 9//239 4//58
f 52//60 21//186 53//61
f 55//63 92//240 56//64
f 58//66 35//241 34//67
f 101//242 55//71 60//70
f 57//69 48//243 62//244
f 62//244 60//70 57//69
f 62//74 75//245 111//246
f 111//246 61//72 62//74
f 30//247 64//77 45//76
f 63//75 118//227 45//76
f 43//230 45//76 118//227
f 60//78 61//248 65//79
f 22//249 52//83 66//82
f 67//81 101//250 60//251
f 60//251 66//82 67//81
f 3//174 69//86 1//85
f 68//84 84//252 1//85
f 58//89 115//253 6//87
f 6//87 44//254 70//88
f 5//92 90//255 87//256
f 87//256 71//90 5//92
f 72//91 71//90 73//93
f 69//257 76//97 68//258
f 75//95 62//259 48//260
f 48//260 50//96 75//95
f 68//258 76//97 50//96
f 112//261 116//209 107//262
f 30//263 29//98 64//99
f 12//12 116//209 64//99
f 112//261 64//99 116//209
f 86//264 16//102 78//101
f 77//100 19//265 93//266
f 93//266 78//101 77//100
f 100//159 86//264 78//101
f 74//103 73//267 79//104
f 82//108 94//229 81//106
f 36//38 114//268 81//106
f 81//106 110//269 109//270
f 109//270 27//107 81//106
f 94//229 36//38 81//106
f 79//111 73//271 40//272
f 40//272 83//109 79//111
f 68//258 50//96 84//113
f 85//114 105//273 104//274
f 104//274 38//112 85//114
f 37//275 84//113 38//112
f 50//96 85//114 84//113
f 86//117 54//276 53//277
f 53//277 41//115 86//117
f 17//116 16//278 86//117
f 28//279 80//119 29//280
f 79//111 10//110 80//119
f 12//118 29//280 80//119
f 89//122 73//281 71//282
f 71//282 87//120 89//122
f 14//283 88//121 87//120
f 5//125 4//284 46//123
f 46//123 98//285 90//124
f 91//126 117//286 45//127
f 96//150 56//132 95//148
f 92//130 78//287 93//131
f 93//131 95//148 56//132
f 82//135 26//28 34//133
f 59//288 34//133 26//28
f 89//136 18//289 40//137
f 93//290 19//141 95//140
f 20//139 32//291 95//140
f 97//292 95//140 32//291
f 1//144 84//293 37//294
f 37//294 24//142 1//144
f 25//143 8//295 1//144
f 57//146 56//296 96//147
f 98//151 46//297 33//152
f 44//128 6//298 91//126
f 72//154 74//299 80//155
f 80//155 28//300 91//126
f 91//126 6//298 72//154
f 28//300 117//301 91//126
f 22//302 66//158 99//157
f 65//156 103//164 99//157
f 52//60 100//159 67//303
f 86//264 100//159 54//62
f 55//304 101//162 92//161
f 67//160 100//305 92//161
f 78//306 92//161 100//305
f 65//156 61//307 111//178
f 111//178 102//163 65//156
f 4//170 9//308 106//168
f 106//168 39//309 47//310
f 47//310 46//169 106//168
f 107//171 116//311 108//172
f 27//312 109//175 3//174
f 76//313 69//86 109//175
f 102//163 111//178 110//177
f 75//314 76//176 111//178
f 109//315 110//177 76//176
f 105//167 85//316 49//179
f 49//179 96//317 31//165
f 97//318 31//165 96//317
f 113//182 119//319 63//180
f 63//180 64//320 112//181
f 114//183 36//321 119//322
f 119//322 113//323 114//183
f 103//324 102//184 114//183
f 110//185 81//325 114//183
f 114//183 113//323 103//324
f 40//326 41//188 83//187
f 53//61 21//186 41//188
f 103//327 113//191 99//328
f 112//189 107//329 23//190
f 23//190 99//328 113//191
f 13//330 15//193 20//192
f 33//35 32//34 15//193
f 87//331 90//196 14//195
f 98//194 15//332 14//195
f 115//199 58//333 59//197
f 59//197 7//45 51//198
f 35//200 58//89 70//88
