# Blender v2.77 (sub 0) OBJ File: ''
# www.blender.org
mtllib LH_HAA_com_constraints.mtl
o foo.001
v 0.965305 -0.028268 -0.116137
v 0.927564 0.217813 -0.174280
v 0.941556 0.193392 0.115218
v 0.957025 -0.104018 0.079092
v -0.713971 -0.333807 0.570128
v -0.744810 -0.158186 0.597749
v -0.844227 -0.107968 0.460248
v -0.845902 -0.320452 0.355464
v -0.150221 -0.935366 0.220508
v -0.174739 -0.950288 -0.067946
v -0.007617 -0.967566 -0.048607
v 0.040565 -0.948000 -0.182699
v 0.241060 -0.926673 -0.102480
v 0.381945 -0.807878 0.381255
v 0.022092 -0.880652 0.373913
v -0.164667 -0.348419 -0.893112
v -0.218831 -0.153452 -0.932475
v -0.060872 0.018831 -0.968995
v 0.000717 -0.034893 -0.971319
v 0.048233 0.037184 -0.968379
v 0.245920 -0.128816 -0.930144
v 0.122895 -0.308142 -0.916471
v 0.705962 0.066844 0.665649
v 0.429753 0.290007 0.815073
v 0.324416 0.201784 0.885762
v 0.483263 -0.072240 0.831767
v 0.624800 -0.068255 0.736121
v -0.597401 -0.627052 -0.442359
v -0.516045 -0.541096 -0.615241
v -0.262129 -0.754094 -0.555560
v -0.370384 -0.746020 -0.491837
v -0.355399 -0.825359 -0.350197
v -0.555187 -0.733387 -0.315485
v 0.602567 -0.738030 0.189090
v 0.587643 -0.716378 0.290330
v 0.303466 -0.896303 -0.195426
v 0.505305 -0.814177 -0.142784
v 0.916140 -0.195959 -0.269763
v 0.898763 -0.342806 -0.137502
v 0.937201 -0.264791 -0.065805
v 0.900126 -0.370815 -0.013812
v 0.806496 -0.554351 -0.038843
v 0.801165 -0.450885 -0.286420
v 0.803228 -0.305532 -0.441351
v -0.050981 -0.483967 0.839796
v 0.095498 -0.647173 0.721858
v 0.338973 -0.502667 0.749968
v 0.393084 -0.355103 0.805976
v 0.073663 -0.253673 0.927844
v -0.173219 -0.309255 0.898487
v -0.726059 -0.093621 0.629431
v -0.757214 0.061702 0.584544
v -0.697116 0.178598 0.638447
v -0.813570 0.222285 0.453890
v -0.945855 0.174191 0.144440
v -0.942289 0.074700 0.197560
v -0.414187 0.487700 -0.378262
v -0.449548 0.400500 -0.523720
v -0.724640 0.234225 -0.558064
v -0.746231 0.226756 -0.532997
v -0.873791 0.242732 -0.254281
v -0.617281 0.431258 0.154192
v 0.886045 0.213864 -0.318349
v 0.856894 0.008423 -0.460596
v 0.537295 -0.736199 -0.340967
v 0.296622 -0.863255 -0.316804
v 0.373825 -0.717304 -0.540757
v 0.582974 -0.489197 -0.601948
v 0.638731 -0.381791 -0.620947
v 0.698654 -0.255078 -0.623377
v 0.647855 -0.617019 -0.380689
v 0.840757 0.267959 0.318280
v 0.681860 0.452652 0.107326
v 0.680332 0.312840 0.552854
v 0.875994 0.271322 -0.284651
v 0.772932 0.351919 -0.229592
v 0.853714 0.173027 0.418456
v -0.349436 0.236969 0.836521
v 0.105094 0.285682 0.890671
v 0.220003 0.363172 0.795578
v -0.136683 0.496240 0.540285
v -0.296220 0.520642 0.331558
v -0.581897 0.420056 0.365295
v -0.512852 0.220843 0.786172
v 0.869911 -0.231732 0.360434
v 0.758209 -0.391679 0.467502
v 0.903077 -0.316351 0.198338
v -0.379828 -0.363277 0.814311
v -0.407443 -0.240135 0.830447
v -0.389807 -0.884521 -0.108537
v -0.301410 -0.845562 0.360698
v -0.514967 -0.709837 0.402424
v -0.611877 -0.724378 0.218154
v -0.635997 -0.730715 0.023855
v 0.436627 -0.246609 0.824537
v 0.553027 -0.294552 0.742929
v -0.650245 -0.151410 -0.694102
v -0.545468 -0.385071 -0.709285
v -0.846517 -0.422497 -0.222485
v -0.870459 -0.079868 -0.436255
v -0.362155 -0.402771 0.803546
v 0.619551 -0.564048 0.485683
v -0.007333 0.531028 -0.378066
v 0.739963 0.286202 -0.498957
v 0.341518 0.361212 -0.737336
v 0.180410 0.368524 -0.770104
v -0.943576 -0.248893 0.056917
v -0.877827 -0.356577 0.202324
v -0.043305 -0.890112 -0.364249
v 0.604705 -0.437957 0.614808
v 0.884657 0.033830 0.397006
v 0.153595 0.217221 0.915245
v 0.039875 -0.522049 -0.817722
v 0.259154 -0.359611 -0.866514
v 0.290552 -0.656915 -0.646012
v -0.049097 -0.681179 -0.691432
v -0.084515 -0.575465 -0.772195
v -0.521607 0.064335 -0.817140
v -0.430189 0.010367 -0.862892
v -0.443204 -0.193055 -0.836311
v -0.443818 -0.296625 -0.814547
v -0.505921 -0.547057 0.613248
v -0.431668 -0.524833 0.681219
v 0.407625 -0.617185 0.631251
v 0.573368 -0.271450 -0.735431
v -0.944119 0.160329 -0.073721
v -0.949444 0.091139 -0.182843
v -0.946894 -0.026383 -0.191712
v -0.258880 0.204795 -0.905641
v 0.032404 0.166918 -0.943484
v 0.646183 0.215473 -0.670019
v 0.346724 0.201354 -0.878659
v 0.223446 0.233342 -0.906107
v 0.076227 -0.860487 -0.429683
v -0.712196 -0.619709 -0.175002
v -0.702003 -0.558456 0.359286
v -0.828745 -0.490374 0.138363
v -0.483087 0.146568 -0.812392
v -0.113744 -0.786008 0.577119
v 0.276852 -0.755968 0.537699
v 0.391959 0.007665 -0.892315
v 0.692128 0.111810 -0.674777
v 0.596244 -0.088608 -0.757459
v -0.797639 0.119462 -0.521740
v -0.797578 0.155971 -0.511022
v -0.171203 -0.414836 -0.865424
v -0.898237 0.159581 -0.319080
vn 0.995200 0.097800 0.008500
vn -0.831400 -0.234400 0.503900
vn 0.149500 -0.977000 0.151800
vn -0.000400 -0.175500 -0.984500
vn 0.530600 0.114200 0.839900
vn -0.461000 -0.722600 -0.515000
vn 0.400700 -0.910300 0.103600
vn 0.877600 -0.412000 -0.245100
vn 0.146700 -0.423000 0.894200
vn -0.880800 0.092100 0.464400
vn -0.494400 0.849100 -0.185800
vn 0.955100 0.044300 -0.292900
vn 0.413800 -0.849900 -0.326200
vn 0.753000 -0.451700 -0.478500
vn 0.577700 0.778200 0.246200
vn 0.689900 0.723400 0.027100
vn 0.867100 0.412700 0.278900
vn -0.230200 0.833700 0.501900
vn 0.860400 -0.357900 0.362900
vn -0.573400 -0.105100 0.812500
vn 0.545400 -0.654300 -0.523800
vn -0.415200 -0.897000 0.151900
vn 0.540300 -0.160500 0.826000
vn -0.767500 -0.373000 -0.521400
vn -0.225800 -0.430800 0.873700
vn -0.493500 0.744400 0.449800
vn 0.794500 -0.554700 0.247000
vn 0.263800 0.937500 -0.226800
vn -0.952200 -0.134000 0.274600
vn -0.183000 -0.948300 -0.259100
vn 0.780900 -0.181800 0.597600
vn 0.214900 0.938500 0.270400
vn -0.140500 0.244800 0.959300
vn 0.170500 -0.585500 -0.792500
vn -0.573400 -0.149100 -0.805600
vn -0.557300 -0.408200 0.723000
vn 0.531200 -0.483000 0.696100
vn 0.437600 -0.501300 -0.746500
vn 0.969100 -0.008800 0.246400
vn -0.999900 -0.003900 0.012600
vn -0.280400 0.959600 0.024000
vn -0.072100 0.200500 -0.977000
vn 0.834000 0.101800 0.542300
vn -0.615000 0.783600 0.087700
vn -0.192500 0.046300 0.980200
vn 0.427000 0.651700 -0.626800
vn 0.172300 -0.809200 -0.561700
vn 0.141300 -0.947800 -0.285700
vn -0.825800 -0.562900 0.033200
vn -0.739100 -0.602600 -0.300800
vn -0.430100 0.645600 -0.631000
vn 0.696700 -0.703800 -0.138800
vn 0.133700 -0.854000 0.502800
vn -0.379700 -0.727600 0.571300
vn -0.211500 -0.617200 0.757800
vn 0.181900 0.547800 0.816600
vn -0.715800 -0.543400 0.438600
vn 0.002400 0.682900 -0.730500
vn 0.034100 0.999000 0.029800
vn 0.550300 0.163600 -0.818800
vn -0.741600 0.023100 -0.670500
vn -0.669500 0.266100 -0.693500
vn -0.308400 -0.571800 -0.760200
vn 0.980500 -0.194700 -0.027800
vn 0.210200 0.103100 -0.972200
vn -0.567900 -0.804000 -0.176500
vn -0.950000 -0.223800 -0.217600
vn 0.494500 -0.717800 0.490200
vn -0.132400 -0.862900 -0.487600
vn -0.775200 0.491900 -0.396400
vn 0.908800 0.317700 -0.270600
vn 0.787700 -0.141700 -0.599600
vn 0.267800 -0.656600 0.705100
vn 0.237400 -0.076700 0.968400
vn -0.010300 -0.408400 -0.912700
vn -0.321200 -0.264700 -0.909300
vn -0.324500 0.040800 -0.945000
vn -0.911400 0.374000 -0.171600
vn -0.133900 0.869900 -0.474700
vn 0.822000 0.240700 -0.516100
vn 0.416300 -0.210600 -0.884500
vn -0.921200 0.073300 -0.382200
vn 0.783400 0.337700 -0.521800
vn -0.805400 0.591100 -0.044000
vn -0.374400 0.736000 -0.564100
vn 0.702700 0.393900 0.592400
vn -0.115000 -0.912000 0.393700
usemtl None.003
s 1
f 1//1 2//1 3//1 4//1
f 5//2 6//2 7//2 8//2
f 9//3 10//3 11//3 12//3 13//3 14//3 15//3
f 16//4 17//4 18//4 19//4 20//4 21//4 22//4
f 23//5 24//5 25//5 26//5 27//5
f 28//6 29//6 30//6 31//6 32//6 33//6
f 34//7 35//7 14//7 13//7 36//7 37//7
f 38//8 39//8 40//8 41//8 42//8 43//8 44//8
f 45//9 46//9 47//9 48//9 49//9 50//9
f 51//10 52//10 53//10 54//10 55//10 56//10 7//10 6//10
f 57//11 58//11 59//11 60//11 61//11 62//11
f 63//12 2//12 1//12 38//12 64//12
f 65//13 37//13 36//13 66//13 67//13
f 68//14 69//14 70//14 44//14 43//14 71//14
f 72//15 73//15 74//15
f 72//16 3//16 2//16 75//16 76//16 73//16
f 77//17 3//17 72//17
f 78//18 79//18 80//18 81//18 82//18 83//18 84//18
f 85//19 86//19 87//19
f 5//20 88//20 50//20 89//20 84//20 53//20 52//20 51//20 6//20
f 71//21 65//21 67//21 68//21
f 90//22 10//22 9//22 91//22 92//22 93//22 94//22
f 27//23 26//23 95//23 96//23
f 97//24 98//24 29//24 28//24 99//24 100//24
f 50//25 88//25 101//25 45//25
f 83//26 54//26 53//26 84//26
f 86//27 102//27 35//27 34//27 42//27 41//27 87//27
f 103//28 73//28 76//28 75//28 104//28 105//28 106//28
f 8//29 7//29 56//29 107//29 108//29
f 10//30 90//30 32//30 109//30 12//30 11//30
f 23//31 27//31 96//31 110//31 86//31 85//31 111//31
f 73//32 81//32 80//32 24//32 74//32
f 78//33 112//33 79//33
f 113//34 22//34 114//34 115//34 116//34 117//34
f 118//35 119//35 120//35 121//35 98//35 97//35
f 5//36 122//36 123//36 101//36 88//36
f 48//37 47//37 124//37 102//37 86//37 110//37 96//37 95//37
f 114//38 125//38 69//38 68//38 67//38 115//38
f 4//39 3//39 77//39 111//39 85//39 87//39
f 55//40 126//40 127//40 128//40 107//40 56//40
f 82//41 57//41 62//41 83//41
f 18//42 129//42 130//42 20//42 19//42
f 23//43 111//43 77//43
f 61//44 55//44 54//44 83//44 62//44
f 78//45 84//45 89//45 50//45 49//45 112//45
f 104//46 131//46 132//46 133//46 105//46
f 134//47 116//47 115//47 67//47 66//47
f 66//48 36//48 13//48 12//48 109//48 134//48
f 107//49 99//49 135//49 94//49 93//49 136//49 137//49 108//49
f 135//50 99//50 28//50 33//50
f 59//51 129//51 138//51
f 71//52 43//52 42//52 34//52 37//52 65//52
f 139//53 15//53 14//53 140//53 46//53
f 122//54 92//54 91//54 139//54 123//54
f 139//55 46//55 45//55 101//55 123//55
f 25//56 24//56 80//56 79//56 112//56
f 136//57 93//57 92//57 122//57 5//57 8//57 108//57 137//57
f 130//58 129//58 106//58 105//58 133//58
f 57//59 82//59 81//59 73//59 103//59
f 141//60 132//60 131//60 142//60 143//60
f 97//61 100//61 144//61 118//61
f 145//62 60//62 59//62 138//62 118//62 144//62
f 146//63 113//63 117//63 116//63 30//63 29//63 98//63 121//63
f 87//64 41//64 40//64 39//64 38//64 1//64 4//64
f 20//65 130//65 133//65 132//65 141//65 21//65
f 94//66 135//66 33//66 32//66 90//66
f 107//67 128//67 100//67 99//67
f 140//68 14//68 35//68 102//68 124//68
f 109//69 32//69 31//69 30//69 116//69 134//69
f 147//70 61//70 60//70 145//70
f 63//71 75//71 2//71
f 143//72 142//72 64//72 38//72 44//72 70//72 69//72 125//72
f 46//73 140//73 124//73 47//73
f 48//74 95//74 26//74 25//74 112//74 49//74
f 22//75 113//75 146//75 16//75
f 17//76 16//76 146//76 121//76 120//76
f 18//77 17//77 120//77 119//77 118//77 138//77 129//77
f 61//78 147//78 127//78 126//78
f 57//79 103//79 106//79 129//79 58//79
f 63//80 64//80 142//80
f 125//81 114//81 22//81 21//81 141//81 143//81
f 147//82 145//82 144//82 100//82 128//82 127//82
f 104//83 75//83 63//83 142//83 131//83
f 61//84 126//84 55//84
f 58//85 129//85 59//85
f 23//86 77//86 72//86 74//86 24//86
f 9//87 15//87 139//87 91//87
