# Blender v2.77 (sub 0) OBJ File: ''
# www.blender.org
mtllib LH_HAA_08_com_constraints.mtl
o foo.020
v -0.444150 -0.586710 -0.252388
v -0.311846 -0.707617 -0.086830
v -0.508798 -0.584572 0.019084
v 0.545488 0.362122 0.085861
v 0.176002 0.290538 0.636462
v 0.544266 0.250272 0.442283
v -0.520196 -0.121128 -0.555282
v -0.638062 0.124777 -0.408818
v -0.579712 0.187380 -0.446451
v 0.765620 -0.083214 0.063274
v 0.722462 -0.253081 0.158670
v 0.749761 -0.211833 -0.052644
v -0.325954 -0.192108 0.664358
v -0.595848 -0.126549 0.478199
v -0.571177 -0.267046 0.456102
v -0.561602 -0.446765 0.287429
v -0.404737 -0.437646 0.490598
v 0.017674 -0.704522 0.299130
v -0.241128 -0.676450 0.288558
v -0.120177 -0.748293 0.176406
v 0.518284 -0.493615 -0.304551
v 0.299060 -0.573843 -0.432606
v 0.466379 -0.391358 -0.481558
v 0.343802 0.232006 0.652058
v 0.259533 0.161427 0.708610
v 0.386610 -0.057792 0.665414
v -0.596985 0.181405 -0.426398
v -0.699033 0.194186 -0.203425
v -0.331350 0.390160 -0.302610
v 0.495641 -0.451238 0.388546
v 0.326100 -0.493748 0.505001
v 0.305556 -0.646302 0.305004
v 0.564770 0.053475 0.532519
v 0.707726 0.027064 0.317605
v 0.682971 0.138422 0.334765
v 0.606567 -0.313343 0.374002
v 0.470114 -0.573102 0.232264
v -0.753831 0.059760 0.158048
v -0.755295 0.128263 -0.058977
v -0.757515 -0.021106 -0.153370
v 0.732912 -0.156767 -0.215810
v 0.719010 -0.274245 -0.110002
v -0.718590 0.127665 -0.255264
v 0.499840 -0.054604 0.588897
v 0.695929 -0.185386 0.288347
v 0.232442 -0.525532 -0.516810
v -0.034644 -0.712090 -0.291399
v -0.039278 -0.544943 -0.553146
v 0.207323 -0.287689 -0.693211
v 0.458694 -0.217160 -0.588345
v 0.753245 0.154714 0.092174
v 0.144328 0.294819 -0.616083
v 0.178757 0.186674 -0.724886
v 0.025923 0.133534 -0.754787
v -0.569757 -0.495767 -0.140002
v -0.477921 -0.501642 -0.353887
v -0.675382 -0.086374 0.368198
v -0.676722 -0.256362 0.284371
v -0.677214 -0.337998 -0.177988
v -0.436374 -0.308057 -0.567428
v 0.708836 0.171091 -0.254679
v 0.700795 0.217058 -0.227721
v 0.742051 0.174250 -0.139424
v -0.650856 0.177828 0.363112
v -0.493825 0.345006 0.123354
v -0.756684 0.139353 0.115552
v -0.759555 0.072911 -0.146274
v -0.090995 -0.628806 0.461695
v -0.345334 -0.419866 0.544975
v -0.411974 -0.567870 0.321939
v -0.207104 0.163836 -0.724513
v -0.175065 -0.122762 -0.745980
v -0.417286 0.051468 -0.653712
v -0.236976 0.416514 0.265246
v -0.005866 0.424822 -0.302453
v -0.139791 -0.760230 -0.054357
v -0.006094 -0.774053 -0.038886
v -0.412836 -0.432877 -0.492193
v -0.136962 -0.331869 -0.692339
v -0.209703 -0.603275 -0.444448
v -0.489502 -0.579502 0.174523
v 0.242773 -0.717042 -0.156341
v 0.618346 0.281535 -0.183674
v -0.284319 -0.660287 -0.280158
v 0.313567 0.006132 -0.713852
v 0.196736 -0.103053 -0.744115
v 0.685515 0.006738 -0.368477
v 0.591970 0.228962 -0.399166
v -0.662996 -0.392299 0.110690
v -0.754861 -0.199114 0.045534
v -0.702262 -0.285262 0.161859
v -0.303862 -0.290622 0.651449
v -0.138575 -0.247404 0.718790
v 0.221482 -0.604774 0.430159
v 0.076398 -0.517738 0.577486
v 0.122876 0.173777 0.732196
v 0.084075 0.228546 0.712537
v -0.109346 0.396992 0.432228
v -0.410282 0.176674 0.628938
v 0.553702 0.089448 -0.539822
v 0.558923 -0.204062 -0.498702
v 0.476995 -0.070886 -0.605967
v -0.605771 0.049362 0.467635
v 0.483764 -0.350366 0.491846
v 0.277379 0.161083 -0.702927
v 0.273214 0.288970 -0.589869
v 0.516946 0.172378 -0.536015
v 0.058930 -0.202938 0.742275
v 0.442422 -0.235642 0.594343
v -0.296307 -0.596816 -0.393470
v -0.359638 0.320400 -0.418976
v -0.386470 0.117254 -0.649914
v 0.038586 0.029747 -0.774703
v 0.000574 -0.027914 -0.777055
v -0.048698 0.015065 -0.775196
v -0.289724 -0.322217 0.642837
v 0.271178 -0.402134 0.599974
v 0.772244 -0.022614 -0.092910
v 0.645197 -0.443481 -0.031074
v 0.482054 -0.590424 0.151272
v 0.404244 -0.651342 -0.114227
v -0.696367 -0.063894 -0.349004
v -0.580847 -0.074897 0.503545
v 0.237298 -0.690604 -0.253443
v -0.355054 -0.237300 -0.651638
v 0.429836 -0.588959 -0.272774
v 0.720101 -0.296652 -0.011050
v -0.465518 0.336045 0.292236
v -0.557693 0.142878 0.510758
v 0.349302 -0.197287 0.659630
v -0.131734 -0.278735 -0.714490
vn -0.557600 -0.808600 -0.187400
vn -0.523400 -0.831000 -0.188600
vn -0.616300 -0.774900 -0.140700
vn 0.220300 0.937400 0.269700
vn 0.218500 0.935500 0.277800
vn 0.258100 0.918700 0.298900
vn -0.742600 0.071600 -0.665900
vn -0.695700 0.118100 -0.708600
vn -0.701900 0.196300 -0.684600
vn 0.986300 -0.159600 0.042100
vn 0.968700 -0.235200 0.079200
vn 0.975900 -0.213400 -0.046300
vn -0.512900 -0.179100 0.839500
vn -0.589500 -0.218600 0.777600
vn -0.581700 -0.285800 0.761500
vn -0.713600 -0.499300 0.491500
vn -0.708600 -0.554300 0.436700
vn -0.637700 -0.570100 0.518000
vn -0.115000 -0.911800 0.394100
vn -0.115000 -0.909600 0.399300
vn -0.114500 -0.888000 0.445300
vn 0.544900 -0.656700 -0.521400
vn 0.545300 -0.655100 -0.523000
vn 0.547500 -0.645000 -0.533200
vn 0.513300 0.115000 0.850500
vn 0.487400 0.111900 0.866000
vn 0.535400 0.112800 0.837000
vn -0.499400 0.827200 -0.257600
vn -0.500200 0.846800 -0.181200
vn -0.488600 0.840600 -0.233800
vn 0.516900 -0.709100 0.479500
vn 0.480100 -0.720500 0.500300
vn 0.485800 -0.721300 0.493600
vn 0.834000 0.101800 0.542300
vn 0.827700 -0.499400 0.256000
vn 0.800000 -0.518900 0.301300
vn 0.781800 -0.566300 0.261100
vn -0.999900 -0.011700 0.005400
vn -0.999900 -0.003800 0.016800
vn -0.999700 -0.003400 0.023000
vn 0.817600 -0.416100 -0.398000
vn 0.867800 -0.435500 -0.239300
vn 0.769300 -0.557800 -0.311400
vn -0.768900 0.509500 -0.386400
vn -0.783400 0.467200 -0.409900
vn -0.790800 0.442300 -0.423000
vn 0.775600 -0.183900 0.603800
vn 0.766800 -0.204500 0.608500
vn 0.801800 -0.149200 0.578700
vn 0.116000 -0.828300 -0.548100
vn -0.054700 -0.902700 -0.426800
vn 0.058500 -0.840900 -0.538000
vn 0.481000 -0.479700 -0.733900
vn 0.426000 -0.489200 -0.761000
vn 0.588700 -0.340200 -0.733200
vn 0.965500 0.043400 0.256900
vn 0.970500 -0.044600 0.237000
vn 0.970600 0.063800 0.232100
vn 0.059700 0.706800 -0.704900
vn -0.018800 0.706100 -0.707800
vn -0.035800 0.666600 -0.744600
vn -0.742000 -0.598400 -0.302200
vn -0.731800 -0.613200 -0.297400
vn -0.718100 -0.632200 -0.291000
vn -0.830900 -0.233600 0.505000
vn -0.831100 -0.233800 0.504700
vn -0.833900 -0.238800 0.497600
vn -0.769400 -0.372600 -0.518900
vn -0.770700 -0.367500 -0.520500
vn -0.755300 -0.405700 -0.514700
vn 0.908800 0.317700 -0.270600
vn -0.611900 0.778100 0.141800
vn -0.614100 0.782600 0.101800
vn -0.615800 0.784100 0.077700
vn -0.911400 0.377500 -0.164100
vn -0.911400 0.371800 -0.176200
vn -0.911300 0.366300 -0.187800
vn -0.384800 -0.729400 0.565600
vn -0.365800 -0.721400 0.588000
vn -0.377700 -0.729600 0.570100
vn -0.324600 0.060300 -0.943900
vn -0.337000 -0.092200 -0.937000
vn -0.436100 0.009300 -0.899900
vn -0.079400 0.996100 0.037400
vn 0.080400 0.995600 0.048800
vn -0.007100 0.999900 0.011700
vn -0.805400 0.591100 -0.044000
vn 0.080500 -0.983800 0.160400
vn -0.109600 -0.992100 0.060600
vn 0.112400 -0.993300 0.028500
vn -0.339500 -0.559000 -0.756500
vn -0.116500 -0.518500 -0.847100
vn -0.298900 -0.598700 -0.743100
vn -0.423100 -0.886400 0.188100
vn -0.454200 -0.872800 0.178700
vn -0.395200 -0.911000 0.118100
vn 0.312600 -0.938900 0.144300
vn 0.224800 -0.972600 -0.060100
vn 0.700900 0.705300 0.106700
vn 0.691000 0.717100 0.091600
vn 0.670700 0.741400 0.022200
vn -0.158100 -0.953800 -0.255600
vn -0.229900 -0.909900 -0.345400
vn 0.443500 -0.202500 -0.873100
vn 0.451800 -0.196100 -0.870300
vn 0.245100 -0.231100 -0.941600
vn 0.709000 0.411400 0.572800
vn 0.738700 0.569200 0.360800
vn 0.718200 0.648800 0.251600
vn 0.810500 0.269300 -0.520200
vn 0.799400 0.299000 -0.521100
vn 0.792600 0.344700 -0.503000
vn -0.804200 -0.591900 -0.054800
vn -0.771400 -0.635400 0.035200
vn -0.837400 -0.544300 0.051100
vn -0.950200 -0.144000 0.276400
vn -0.939200 -0.234400 0.251100
vn -0.951400 -0.145400 0.271400
vn -0.496100 -0.298000 0.815500
vn -0.326100 -0.194400 0.925100
vn 0.145500 -0.865500 0.479400
vn 0.121000 -0.797900 0.590500
vn 0.118200 -0.838700 0.531700
vn 0.691300 0.359400 0.626800
vn 0.655300 0.370200 0.658400
vn -0.254600 0.127500 0.958600
vn -0.228600 0.119600 0.966100
vn -0.192000 0.066200 0.979200
vn -0.233000 0.832400 0.502800
vn -0.349900 0.796300 0.493500
vn -0.131300 0.807100 0.575600
vn 0.761000 -0.076700 -0.644200
vn 0.733200 -0.205200 -0.648300
vn 0.720900 -0.108000 -0.684600
vn -0.868100 0.049900 0.493800
vn -0.842000 0.090500 0.531900
vn -0.881200 0.117400 0.457900
vn 0.342200 0.909900 -0.234300
vn 0.503500 0.823200 -0.262500
vn 0.363300 0.893900 -0.262600
vn 0.513100 -0.500300 0.697500
vn 0.617200 -0.526300 0.584900
vn 0.565100 -0.505600 0.652000
vn -0.949000 -0.223200 -0.222500
vn -0.950700 -0.224300 -0.214300
vn -0.955000 -0.227200 -0.190600
vn 0.372300 0.621500 -0.689300
vn 0.413500 0.631100 -0.656300
vn 0.453300 0.683100 -0.572600
vn 0.207400 -0.023800 0.978000
vn 0.169900 -0.002500 0.985500
vn 0.155200 -0.315000 0.936300
vn 0.542300 -0.159500 0.824900
vn 0.535500 -0.163100 0.828600
vn 0.556300 -0.151900 0.817000
vn -0.446000 -0.717200 -0.535500
vn -0.483600 -0.709900 -0.512000
vn -0.461400 -0.674800 -0.576000
vn -0.382200 0.715400 -0.584900
vn -0.399800 0.710800 -0.578800
vn -0.361600 0.720500 -0.591800
vn -0.017500 0.137300 -0.990400
vn -0.001400 0.041700 -0.999100
vn -0.049800 0.163400 -0.985300
vn -0.161000 -0.570700 0.805200
vn -0.158200 -0.527700 0.834600
vn -0.219000 -0.504200 0.835400
vn 0.209400 -0.410800 0.887400
vn 0.109600 -0.456200 0.883100
vn 0.189800 0.547400 0.815100
vn 0.247300 0.544600 0.801400
vn 0.146500 0.553100 0.820100
vn 0.995700 0.091900 0.014100
vn 0.995000 0.099700 0.006700
vn 0.997200 0.044600 0.059600
vn 0.771400 -0.610800 -0.178200
vn 0.656900 -0.753700 -0.019600
vn 0.674800 -0.728800 -0.115800
vn 0.102300 -0.538100 -0.836600
vn 0.148600 -0.578900 -0.801700
vn -0.074200 -0.589400 -0.804400
vn -0.946200 0.026600 -0.322600
vn -0.922600 0.068400 -0.379700
vn -0.919900 0.081100 -0.383800
vn 0.226600 0.083400 -0.970400
vn 0.186300 0.122800 -0.974800
vn 0.210100 0.130800 -0.968900
vn -0.287000 0.957200 0.037000
vn -0.151900 0.988200 -0.020600
vn 0.023000 -0.160600 -0.986700
vn -0.067600 -0.195400 -0.978400
vn -0.122200 -0.097300 -0.987700
vn 0.955200 0.039800 -0.293200
vn 0.954300 0.039100 -0.296200
vn 0.955100 0.072900 -0.287100
vn -0.602000 -0.092300 0.793200
vn -0.584400 -0.008200 0.811400
vn 0.105800 -0.961700 -0.252700
vn 0.112900 -0.957100 -0.267000
vn 0.267600 -0.657500 0.704300
vn 0.268400 -0.652400 0.708700
vn 0.274700 -0.607800 0.745100
vn -0.132400 0.869700 -0.475600
vn -0.139100 0.870600 -0.472000
vn -0.093200 0.865300 -0.492600
vn 0.529100 0.198500 -0.825000
vn 0.570800 0.064600 -0.818500
vn 0.554800 0.159700 -0.816500
vn 0.213800 0.942500 -0.256800
vn 0.230200 0.946100 -0.227900
vn -0.476600 -0.181800 -0.860100
vn 0.415100 -0.853500 -0.315100
vn 0.395600 -0.825800 -0.401800
vn 0.413500 -0.846800 -0.334500
vn -0.665600 -0.730500 -0.152700
vn -0.441000 -0.855200 -0.272200
vn 0.280200 0.895500 0.345800
vn 0.180200 0.952700 0.244800
vn -0.623700 0.333000 -0.707200
vn -0.698300 0.209300 -0.684500
vn -0.756500 0.026600 -0.653500
vn -0.753700 0.380400 -0.535900
vn 0.938800 -0.285100 -0.193100
vn 0.967300 -0.192800 -0.164900
vn 0.988100 -0.133600 -0.075900
vn 0.951400 -0.301300 0.064100
vn -0.554400 -0.392500 0.733900
vn -0.556600 -0.406800 0.724400
vn -0.525000 -0.434400 0.731800
vn -0.622200 -0.640500 0.450000
vn -0.801000 -0.478500 0.359800
vn -0.823000 -0.477100 0.308300
vn -0.823800 -0.460300 0.330800
vn -0.632600 -0.671700 0.385700
vn -0.115100 -0.927700 0.355100
vn 0.541400 -0.671100 -0.506500
vn 0.555400 0.097200 0.825900
vn 0.548000 0.112600 0.828900
vn -0.487900 0.867800 -0.094100
vn -0.462200 0.808600 -0.364000
vn -0.493900 0.852500 -0.171400
vn 0.413900 -0.743800 0.524800
vn 0.523700 -0.711200 0.469000
vn 0.787900 -0.566800 0.240900
vn 0.815400 -0.539600 0.209400
vn 0.879700 -0.463300 0.106700
vn 0.860400 -0.357900 0.362900
vn 0.753700 -0.572300 0.323100
vn -0.997500 -0.026600 0.065500
vn -0.999900 -0.001300 0.012200
vn -0.999200 -0.038700 -0.005500
vn 0.904100 -0.414600 -0.103800
vn 0.772500 -0.424900 -0.472000
vn 0.797400 -0.409200 -0.443400
vn 0.924600 -0.369300 -0.093800
vn -0.764600 0.520700 -0.379800
vn 0.819300 -0.122600 0.560100
vn 0.799300 -0.154700 0.580700
vn 0.735100 -0.242500 0.633100
vn 0.704900 -0.314100 0.635900
vn -0.164800 -0.866400 -0.471400
vn 0.116900 -0.833600 -0.539900
vn 0.138000 -0.850900 -0.506900
vn 0.438300 -0.585000 -0.682400
vn 0.423400 -0.549000 -0.720700
vn 0.962300 -0.094900 0.254900
vn 0.962400 -0.103600 0.251000
vn 0.944100 0.166000 0.284700
vn -0.012400 0.657200 -0.753600
vn 0.168700 0.725300 -0.667500
vn -0.750800 -0.585200 -0.306300
vn -0.826700 -0.226200 0.515100
vn -0.689400 -0.464900 -0.555500
vn -0.751600 -0.386200 -0.534800
vn -0.779000 -0.345900 -0.523000
vn -0.616500 0.787000 0.023900
vn -0.610200 0.779100 0.143600
vn -0.911100 0.384300 -0.149400
vn -0.315700 -0.744400 0.588300
vn -0.376400 -0.756600 0.534600
vn -0.426500 0.250000 -0.869300
vn -0.268400 0.042100 -0.962400
vn 0.081600 0.995200 0.054000
vn -0.340500 -0.531600 -0.775500
vn -0.362800 -0.522100 -0.771900
vn -0.304500 -0.949500 0.075000
vn -0.374500 -0.917900 0.130900
vn -0.465900 -0.828600 0.310400
vn -0.492700 -0.865600 0.089400
vn 0.360300 -0.927900 0.096000
vn 0.412000 -0.899400 0.146100
vn 0.483800 -0.838500 0.250700
vn 0.175300 -0.966700 0.186500
vn 0.645600 0.762400 0.043800
vn 0.638300 0.766300 0.073200
vn 0.685800 0.693700 0.220000
vn -0.319900 -0.840600 -0.437000
vn -0.073700 -0.970400 -0.229800
vn -0.236500 -0.935500 -0.262700
vn 0.245200 -0.244600 -0.938100
vn 0.488300 -0.164300 -0.857100
vn 0.782200 0.411300 -0.468000
vn 0.790700 0.313400 -0.525900
vn 0.748700 0.357500 -0.558300
vn -0.911700 -0.392500 0.121500
vn -0.904500 -0.426300 0.011500
vn -0.851900 -0.520700 -0.056000
vn -0.750900 -0.638600 0.168200
vn -0.751400 -0.613900 0.241900
vn -0.954900 -0.125300 0.269300
vn -0.953100 -0.121700 0.277300
vn 0.131400 -0.876600 0.462900
vn 0.172500 -0.894400 0.412600
vn -0.270500 0.030600 0.962200
vn -0.199100 0.079400 0.976800
vn -0.128700 0.048300 0.990500
vn -0.280700 0.904700 0.320300
vn -0.383600 0.817200 0.430200
vn -0.462300 0.752000 0.469800
vn -0.497100 0.743400 0.447500
vn -0.092800 0.823900 0.559100
vn 0.817900 -0.147600 -0.556100
vn 0.848200 -0.208700 -0.486800
vn -0.916100 0.162800 0.366300
vn -0.914400 0.134300 0.381800
vn -0.817200 -0.044600 0.574600
vn -0.818900 -0.018600 0.573600
vn -0.816200 0.164200 0.553900
vn 0.451900 -0.438500 0.776800
vn 0.412100 -0.396100 0.820500
vn 0.471500 -0.455700 0.755000
vn 0.676900 -0.486200 0.552600
vn -0.943800 -0.220000 -0.246900
vn 0.457100 0.705100 -0.542100
vn 0.321100 0.633100 -0.704300
vn 0.271100 -0.217100 0.937700
vn 0.258200 -0.072900 0.963300
vn 0.516700 -0.173000 0.838500
vn -0.439600 -0.802700 -0.403100
vn -0.472000 -0.764000 -0.439900
vn -0.414200 -0.667200 -0.619100
vn -0.420600 0.704900 -0.571200
vn -0.096300 0.227600 -0.969000
vn -0.070500 0.212300 -0.974700
vn -0.253900 -0.608700 0.751700
vn -0.185600 -0.586200 0.788600
vn -0.268500 -0.363300 0.892100
vn -0.000900 -0.463800 0.885900
vn 0.110100 0.538200 0.835600
vn 0.316600 0.511100 0.799100
vn 0.989000 0.143200 -0.035700
vn 0.695600 -0.699700 -0.163000
vn 0.047500 -0.388300 -0.920300
vn -0.877700 0.124600 -0.462700
vn -0.937000 0.006000 -0.349200
vn 0.246500 0.125300 -0.961000
vn 0.218900 0.036100 -0.975100
vn 0.120200 0.201200 -0.972100
vn -0.319400 0.941900 0.103500
vn 0.144800 -0.055100 -0.987900
vn 0.011200 -0.245900 -0.969200
vn 0.957100 0.081100 -0.278100
vn 0.953700 -0.004200 -0.300600
vn -0.651400 0.044200 0.757500
vn -0.722900 0.054100 0.688800
vn 0.261000 -0.696500 0.668400
vn -0.186200 0.872900 -0.451000
vn -0.091700 0.863700 -0.495500
vn 0.555600 0.186900 -0.810100
vn 0.519900 0.240700 -0.819600
vn 0.110600 0.935700 -0.334900
vn 0.256800 0.942800 -0.212500
vn -0.577600 -0.156500 -0.801200
vn -0.310300 -0.308900 -0.899000
vn -0.602600 -0.220400 -0.767000
vn -0.312600 -0.339100 -0.887300
vn 0.426200 -0.864200 -0.267400
vn 0.421400 -0.868700 -0.260300
usemtl None.021
s 1
f 1//1 2//2 3//3
f 4//4 5//5 6//6
f 7//7 8//8 9//9
f 10//10 11//11 12//12
f 13//13 14//14 15//15
f 15//16 16//17 17//18
f 18//19 19//20 20//21
f 21//22 22//23 23//24
f 24//25 25//26 26//27
f 27//28 28//29 29//30
f 30//31 31//32 32//33
f 33//34 34//34 35//34
f 11//35 36//36 37//37
f 38//38 39//39 40//40
f 41//41 42//42 21//43
f 43//44 27//45 8//46
f 44//47 36//48 45//49
f 46//50 47//51 48//52
f 23//53 49//54 50//55
f 34//56 10//57 51//58
f 52//59 53//60 54//61
f 55//62 56//63 1//64
f 15//65 57//66 58//67
f 59//68 60//69 56//70
f 61//71 62//71 63//71
f 64//72 65//73 66//74
f 28//75 67//76 39//77
f 68//78 69//79 70//80
f 71//81 72//82 73//83
f 74//84 4//85 75//86
f 28//87 39//87 66//87
f 20//88 76//89 77//90
f 78//91 79//92 80//93
f 19//94 81//95 2//96
f 32//97 77//90 82//98
f 4//99 51//100 83//101
f 47//51 76//102 84//103
f 85//104 50//105 86//106
f 6//107 35//108 51//109
f 87//110 88//111 61//112
f 55//113 3//114 89//115
f 90//116 91//117 58//118
f 92//119 93//120 13//13
f 94//121 95//122 68//123
f 33//124 6//107 24//125
f 96//126 97//127 93//128
f 98//129 99//130 97//131
f 100//132 101//133 102//134
f 57//135 103//136 64//137
f 83//138 62//139 88//140
f 31//141 30//142 104//143
f 40//144 59//145 90//146
f 105//147 106//148 107//149
f 25//150 96//151 108//152
f 26//153 109//154 44//155
f 110//156 56//157 78//158
f 111//159 112//160 9//161
f 113//162 114//163 115//164
f 95//165 93//166 116//167
f 117//168 108//152 95//169
f 5//170 96//171 25//172
f 118//173 51//174 10//175
f 119//176 120//177 121//178
f 49//179 46//180 48//181
f 40//182 43//183 122//184
f 85//185 113//186 53//187
f 65//188 74//84 29//189
f 114//190 72//191 115//192
f 118//193 87//194 61//195
f 123//196 13//13 99//197
f 82//98 47//198 124//199
f 95//200 31//201 117//202
f 75//203 71//204 111//205
f 100//206 102//207 85//208
f 83//138 106//209 75//210
f 72//82 125//211 73//83
f 124//212 22//213 126//214
f 3//3 55//215 1//1
f 1//1 84//216 2//2
f 24//217 6//6 5//5
f 4//4 98//218 5//5
f 9//9 112//219 73//220
f 73//220 7//7 9//9
f 122//221 8//8 7//7
f 27//222 9//9 8//8
f 42//223 41//224 12//12
f 118//225 10//10 12//12
f 11//11 127//226 12//12
f 12//12 41//224 118//225
f 15//15 17//227 69//228
f 69//228 116//229 92//119
f 92//119 13//13 15//15
f 123//196 14//14 13//13
f 15//15 69//228 92//119
f 70//230 17//18 16//17
f 15//16 58//231 16//17
f 91//232 89//233 16//17
f 16//17 81//234 70//230
f 58//231 91//232 16//17
f 18//19 68//235 19//20
f 21//22 126//236 22//23
f 26//27 44//237 33//238
f 33//238 24//25 26//27
f 65//239 29//30 28//29
f 111//240 9//241 27//28
f 27//28 29//30 111//240
f 94//242 32//33 31//32
f 37//243 30//31 32//33
f 37//37 120//244 11//35
f 119//245 127//246 11//35
f 11//35 45//247 36//36
f 36//36 30//248 37//37
f 120//244 119//245 11//35
f 67//249 40//40 39//39
f 90//250 38//38 40//40
f 66//251 39//39 38//38
f 127//252 119//176 42//42
f 21//43 23//253 101//254
f 101//254 41//41 21//43
f 42//42 12//255 127//252
f 119//176 21//43 42//42
f 43//44 28//256 27//45
f 34//257 33//258 45//49
f 44//47 109//259 36//48
f 104//260 36//48 109//259
f 45//49 33//258 44//47
f 80//261 48//52 47//51
f 46//50 22//262 47//51
f 124//263 47//51 22//262
f 50//55 101//133 23//53
f 23//53 22//264 46//265
f 46//265 49//54 23//53
f 34//56 45//266 10//57
f 11//267 10//57 45//266
f 51//58 35//268 34//56
f 54//61 71//269 52//59
f 52//59 106//270 53//60
f 55//62 59//271 56//63
f 15//65 14//272 57//66
f 78//273 56//70 60//69
f 59//68 122//274 7//275
f 7//275 60//69 59//68
f 28//276 66//74 65//73
f 64//72 128//277 65//73
f 28//75 43//278 67//76
f 17//279 70//80 69//79
f 19//280 68//78 70//80
f 73//83 112//281 71//81
f 71//81 115//282 72//82
f 74//84 98//283 4//85
f 48//181 80//93 79//92
f 78//91 60//284 125//285
f 125//285 79//92 78//91
f 76//286 20//287 2//96
f 19//94 70//288 81//95
f 81//95 3//289 2//96
f 2//96 20//287 19//94
f 82//98 121//290 32//97
f 120//291 37//292 32//97
f 32//97 18//293 77//90
f 20//88 77//90 18//293
f 121//290 120//291 32//97
f 63//294 62//295 83//101
f 83//101 51//100 63//294
f 6//296 51//100 4//99
f 84//103 110//297 80//261
f 80//261 47//51 84//103
f 77//298 76//102 47//51
f 2//299 84//103 76//102
f 49//300 86//106 50//105
f 85//104 102//301 50//105
f 62//302 61//112 88//111
f 87//110 100//303 88//111
f 107//304 88//111 100//303
f 91//305 90//306 89//115
f 59//307 55//113 89//115
f 3//114 81//308 89//115
f 89//115 90//306 59//307
f 81//308 16//309 89//115
f 58//118 57//310 38//311
f 38//311 90//116 58//118
f 68//123 18//312 94//121
f 32//313 94//121 18//312
f 33//124 35//108 6//107
f 13//314 93//128 99//315
f 108//316 96//126 93//128
f 97//127 99//315 93//128
f 98//129 74//317 128//318
f 128//318 64//319 129//320
f 129//320 99//130 128//318
f 97//131 5//321 98//129
f 98//129 128//318 99//130
f 50//55 102//134 101//133
f 100//132 87//322 101//133
f 41//323 101//133 87//322
f 66//324 38//325 64//137
f 57//135 14//326 123//327
f 103//136 129//328 64//137
f 57//135 123//327 103//136
f 64//137 38//325 57//135
f 109//329 130//330 117//331
f 117//331 31//141 104//143
f 30//142 36//332 104//143
f 104//143 109//329 117//331
f 40//144 122//333 59//145
f 88//334 107//149 106//148
f 105//147 53//335 106//148
f 108//152 130//336 26//337
f 26//337 25//150 108//152
f 26//153 130//338 109//154
f 110//156 84//339 1//340
f 1//340 56//157 110//156
f 78//158 80//341 110//156
f 111//159 71//342 112//160
f 115//164 71//343 54//344
f 54//344 113//162 115//164
f 116//167 69//345 68//346
f 68//346 95//165 116//167
f 93//166 92//347 116//167
f 93//348 95//169 108//152
f 117//168 130//336 108//152
f 25//172 24//349 5//170
f 5//170 97//350 96//171
f 118//173 63//351 51//174
f 121//178 126//352 21//43
f 21//43 119//176 121//178
f 48//181 79//92 49//179
f 131//353 49//179 79//92
f 8//354 122//184 43//183
f 40//182 67//355 43//183
f 53//187 105//356 85//185
f 85//185 86//357 113//186
f 113//186 54//358 53//187
f 75//86 29//189 74//84
f 65//188 128//359 74//84
f 114//190 113//360 86//106
f 86//106 49//300 131//361
f 131//361 72//191 114//190
f 114//190 86//106 131//361
f 61//195 63//362 118//193
f 118//193 41//363 87//194
f 99//197 129//364 123//196
f 103//365 123//196 129//364
f 82//98 77//90 47//198
f 95//200 94//366 31//201
f 71//204 75//203 52//367
f 29//368 75//203 111//205
f 85//208 105//369 107//370
f 107//370 100//206 85//208
f 52//371 75//210 106//209
f 4//372 83//138 75//210
f 88//140 106//209 83//138
f 7//373 73//83 125//211
f 72//82 131//374 125//211
f 125//211 60//375 7//373
f 131//374 79//376 125//211
f 126//214 121//377 124//212
f 82//378 124//212 121//377
