# Blender v2.77 (sub 0) OBJ File: ''
# www.blender.org
mtllib LH_HAA_06_com_constraints.mtl
o foo.001
v -0.333112 -0.440032 -0.252388
v -0.233884 -0.530713 -0.086830
v -0.381598 -0.438429 0.019084
v 0.409116 0.271591 0.085861
v 0.132002 0.217903 0.636462
v 0.408199 0.187704 0.442283
v -0.390147 -0.090846 -0.555282
v -0.478547 0.093583 -0.408818
v -0.434784 0.140535 -0.446451
v 0.574215 -0.062411 0.063274
v 0.541846 -0.189811 0.158670
v 0.562321 -0.158875 -0.052644
v -0.244466 -0.144081 0.664358
v -0.446886 -0.094912 0.478199
v -0.428383 -0.200284 0.456102
v -0.421202 -0.335074 0.287429
v -0.303553 -0.328234 0.490598
v 0.013255 -0.528391 0.299130
v -0.180846 -0.507337 0.288558
v -0.090133 -0.561220 0.176406
v 0.388713 -0.370211 -0.304551
v 0.224295 -0.430382 -0.432606
v 0.349784 -0.293518 -0.481558
v 0.257852 0.174004 0.652058
v 0.194650 0.121070 0.708610
v 0.289958 -0.043344 0.665414
v -0.447739 0.136054 -0.426398
v -0.524275 0.145639 -0.203425
v -0.248512 0.292620 -0.302610
v 0.371731 -0.338429 0.388546
v 0.244575 -0.370311 0.505001
v 0.229167 -0.484727 0.305004
v 0.423577 0.040106 0.532519
v 0.530794 0.020298 0.317605
v 0.512228 0.103816 0.334765
v 0.454925 -0.235007 0.374002
v 0.352586 -0.429827 0.232264
v -0.565373 0.044820 0.158048
v -0.566471 0.096197 -0.058977
v -0.568136 -0.015830 -0.153370
v 0.549684 -0.117575 -0.215810
v 0.539258 -0.205684 -0.110002
v -0.538942 0.095749 -0.255264
v 0.374880 -0.040953 0.588897
v 0.521947 -0.139039 0.288347
v 0.174331 -0.394149 -0.516810
v -0.025983 -0.534067 -0.291399
v -0.029458 -0.408707 -0.553146
v 0.155492 -0.215767 -0.693211
v 0.344021 -0.162870 -0.588345
v 0.564934 0.116035 0.092174
v 0.108246 0.221114 -0.616083
v 0.134068 0.140005 -0.724886
v 0.019442 0.100151 -0.754787
v -0.427318 -0.371825 -0.140002
v -0.358441 -0.376231 -0.353887
v -0.506536 -0.064781 0.368198
v -0.507541 -0.192271 0.284371
v -0.507910 -0.253498 -0.177988
v -0.327281 -0.231043 -0.567428
v 0.531627 0.128318 -0.254679
v 0.525596 0.162793 -0.227721
v 0.556538 0.130688 -0.139424
v -0.488142 0.133371 0.363112
v -0.370369 0.258755 0.123354
v -0.567513 0.104515 0.115552
v -0.569666 0.054683 -0.146274
v -0.068246 -0.471605 0.461695
v -0.259001 -0.314900 0.544975
v -0.308980 -0.425902 0.321939
v -0.155328 0.122877 -0.724513
v -0.131299 -0.092071 -0.745980
v -0.312964 0.038601 -0.653712
v -0.177732 0.312385 0.265246
v -0.004400 0.318617 -0.302453
v -0.104843 -0.570173 -0.054357
v -0.004570 -0.580540 -0.038886
v -0.309627 -0.324658 -0.492193
v -0.102722 -0.248902 -0.692339
v -0.157277 -0.452456 -0.444448
v -0.367126 -0.434627 0.174523
v 0.182080 -0.537782 -0.156341
v 0.463759 0.211151 -0.183674
v -0.213239 -0.495215 -0.280158
v 0.235175 0.004599 -0.713852
v 0.147552 -0.077290 -0.744115
v 0.514136 0.005054 -0.368477
v 0.443978 0.171721 -0.399166
v -0.497247 -0.294224 0.110690
v -0.566146 -0.149336 0.045534
v -0.526696 -0.213946 0.161859
v -0.227897 -0.217966 0.651449
v -0.103931 -0.185553 0.718790
v 0.166111 -0.453581 0.430159
v 0.057299 -0.388304 0.577486
v 0.092157 0.130333 0.732196
v 0.063056 0.171409 0.712537
v -0.082010 0.297744 0.432228
v -0.307711 0.132506 0.628938
v 0.415277 0.067086 -0.539822
v 0.419192 -0.153047 -0.498702
v 0.357746 -0.053165 -0.605967
v -0.454328 0.037021 0.467635
v 0.362823 -0.262774 0.491846
v 0.208034 0.120812 -0.702927
v 0.204911 0.216727 -0.589869
v 0.387710 0.129284 -0.536015
v 0.044198 -0.152204 0.742275
v 0.331816 -0.176731 0.594343
v -0.222230 -0.447612 -0.393470
v -0.269729 0.240300 -0.418976
v -0.289852 0.087941 -0.649914
v 0.028940 0.022310 -0.774703
v 0.000430 -0.020936 -0.777055
v -0.036523 0.011299 -0.775196
v -0.217293 -0.241663 0.642837
v 0.203384 -0.301600 0.599974
v 0.579183 -0.016961 -0.092910
v 0.483898 -0.332611 -0.031074
v 0.361540 -0.442818 0.151272
v 0.303183 -0.488506 -0.114227
v -0.522275 -0.047921 -0.349004
v -0.435635 -0.056173 0.503545
v 0.177973 -0.517953 -0.253443
v -0.266291 -0.177975 -0.651638
v 0.322377 -0.441719 -0.272774
v 0.540076 -0.222489 -0.011050
v -0.349138 0.252034 0.292236
v -0.418270 0.107159 0.510758
v 0.261976 -0.147965 0.659630
v -0.098800 -0.209051 -0.714490
vn -0.548500 -0.822400 -0.150800
vn -0.538300 -0.832200 -0.133200
vn -0.615200 -0.781300 -0.105300
vn 0.219900 0.954000 0.203700
vn 0.230100 0.948500 0.217800
vn 0.263100 0.937300 0.228400
vn -0.827000 0.082700 -0.556100
vn -0.792300 0.129500 -0.596200
vn -0.784400 0.213200 -0.582500
vn 0.985100 -0.167800 0.038500
vn 0.971000 -0.231300 0.060200
vn 0.978100 -0.205600 -0.034100
vn -0.609500 -0.213500 0.763500
vn -0.687300 -0.255500 0.679900
vn -0.672700 -0.333500 0.660500
vn -0.745900 -0.535500 0.396200
vn -0.741000 -0.580900 0.337000
vn -0.682000 -0.602100 0.415200
vn -0.119100 -0.944300 0.306800
vn -0.119200 -0.942800 0.311400
vn -0.119800 -0.929200 0.349500
vn 0.579700 -0.701300 -0.414800
vn 0.581700 -0.697000 -0.419400
vn 0.585100 -0.689300 -0.427300
vn 0.621300 0.139200 0.771100
vn 0.594600 0.136500 0.792300
vn 0.641500 0.135900 0.754900
vn -0.504700 0.841000 -0.194900
vn -0.502700 0.854300 -0.131700
vn -0.496200 0.849300 -0.180300
vn 0.544700 -0.747700 0.379900
vn 0.506100 -0.764800 0.398600
vn 0.520700 -0.760200 0.388500
vn 0.893500 0.109100 0.435700
vn 0.832600 -0.519000 0.193500
vn 0.814600 -0.531000 0.233300
vn 0.793800 -0.574400 0.199800
vn -0.999900 -0.012600 0.003900
vn -0.999900 -0.001500 0.012500
vn -0.999800 -0.005300 0.020200
vn 0.847800 -0.432100 -0.307500
vn 0.875000 -0.447300 -0.185500
vn 0.794000 -0.555200 -0.247600
vn -0.794000 0.529600 -0.298400
vn -0.815500 0.481500 -0.321200
vn -0.823700 0.460700 -0.330500
vn 0.843900 -0.203800 0.496300
vn 0.841300 -0.215900 0.495500
vn 0.868900 -0.159400 0.468600
vn 0.126400 -0.889200 -0.439600
vn -0.058200 -0.939900 -0.336300
vn 0.067100 -0.899500 -0.431700
vn 0.551900 -0.550500 -0.626400
vn 0.494200 -0.564600 -0.661100
vn 0.667600 -0.390000 -0.634200
vn 0.978800 0.049400 0.198900
vn 0.983200 -0.039400 0.178200
vn 0.983400 0.055500 0.172500
vn 0.076400 0.799300 -0.596000
vn -0.034800 0.797300 -0.602600
vn -0.042600 0.766300 -0.641000
vn -0.757600 -0.610400 -0.231400
vn -0.747400 -0.624100 -0.227800
vn -0.731800 -0.644300 -0.222400
vn -0.881300 -0.247000 0.402800
vn -0.881800 -0.248600 0.400800
vn -0.883100 -0.252900 0.395200
vn -0.818300 -0.398100 -0.414600
vn -0.821900 -0.388900 -0.416300
vn -0.805900 -0.428300 -0.408800
vn 0.923700 0.322900 -0.206300
vn -0.614400 0.781700 0.107000
vn -0.615700 0.784500 0.073600
vn -0.616600 0.785100 0.059000
vn -0.916600 0.380500 -0.122400
vn -0.917800 0.373900 -0.133900
vn -0.918500 0.369200 -0.141900
vn -0.415900 -0.784600 0.459900
vn -0.399100 -0.782100 0.478700
vn -0.408000 -0.789700 0.458300
vn -0.414700 0.075500 -0.906800
vn -0.427500 -0.112500 -0.897000
vn -0.543300 0.012700 -0.839400
vn -0.075800 0.996600 0.032700
vn 0.080400 0.996100 0.036600
vn -0.019300 0.999800 0.005100
vn -0.805800 0.591300 -0.033000
vn 0.096800 -0.987200 0.127100
vn -0.109700 -0.992900 0.045500
vn 0.112000 -0.993400 0.025000
vn -0.389800 -0.648700 -0.653700
vn -0.125800 -0.620500 -0.774000
vn -0.344700 -0.686900 -0.639900
vn -0.431800 -0.889200 0.151400
vn -0.452300 -0.881400 0.136600
vn -0.392400 -0.915900 0.084800
vn 0.308000 -0.944400 0.114900
vn 0.218000 -0.974400 -0.055200
vn 0.702700 0.707100 0.078600
vn 0.694800 0.715600 0.071700
vn 0.664400 0.747000 0.022900
vn -0.155400 -0.968900 -0.192500
vn -0.231500 -0.935900 -0.265600
vn 0.541700 -0.249500 -0.802700
vn 0.553900 -0.238500 -0.797700
vn 0.302600 -0.296400 -0.905900
vn 0.769200 0.436900 0.466400
vn 0.758700 0.591900 0.272200
vn 0.728400 0.657900 0.191400
vn 0.862800 0.286500 -0.416500
vn 0.854000 0.313200 -0.415600
vn 0.838200 0.375400 -0.395700
vn -0.807300 -0.588600 -0.043000
vn -0.774000 -0.632900 0.019100
vn -0.838000 -0.543700 0.047300
vn -0.966600 -0.145600 0.211000
vn -0.952400 -0.237700 0.191000
vn -0.967900 -0.142100 0.207300
vn -0.585600 -0.346200 0.732900
vn -0.412300 -0.245700 0.877300
vn 0.149200 -0.910000 0.386700
vn 0.131400 -0.866800 0.481100
vn 0.126500 -0.894400 0.429000
vn 0.755500 0.397200 0.520900
vn 0.728000 0.411200 0.548600
vn -0.328000 0.164100 0.930300
vn -0.296700 0.155300 0.942300
vn -0.251100 0.087300 0.964000
vn -0.255000 0.883200 0.393600
vn -0.350500 0.845700 0.402500
vn -0.146700 0.871200 0.468600
vn 0.840300 -0.085100 -0.535400
vn 0.810400 -0.226500 -0.540200
vn 0.806200 -0.125000 -0.578300
vn -0.920600 0.059000 0.386100
vn -0.896900 0.096500 0.431500
vn -0.925600 0.118800 0.359300
vn 0.337900 0.924700 -0.175600
vn 0.511300 0.835800 -0.199900
vn 0.361100 0.910800 -0.199800
vn 0.578800 -0.564500 0.588500
vn 0.675900 -0.565600 0.472500
vn 0.620100 -0.563000 0.546400
vn -0.959700 -0.225800 -0.167500
vn -0.960200 -0.226400 -0.163600
vn -0.962700 -0.229000 -0.144100
vn 0.411600 0.700500 -0.582900
vn 0.463700 0.699500 -0.543700
vn 0.489800 0.736800 -0.466000
vn 0.272200 -0.031400 0.961700
vn 0.224000 -0.003300 0.974600
vn 0.200100 -0.391700 0.898100
vn 0.645700 -0.191300 0.739200
vn 0.641600 -0.194000 0.742100
vn 0.661200 -0.180500 0.728200
vn -0.480300 -0.762900 -0.432700
vn -0.514000 -0.756100 -0.405200
vn -0.496100 -0.730000 -0.470000
vn -0.411300 0.776900 -0.476700
vn -0.436400 0.768000 -0.468700
vn -0.392900 0.782900 -0.482300
vn -0.023100 0.181100 -0.983200
vn -0.001800 0.055500 -0.998500
vn -0.064800 0.214000 -0.974700
vn -0.190300 -0.674300 0.713500
vn -0.190900 -0.631600 0.751500
vn -0.259300 -0.603600 0.753900
vn 0.256600 -0.509100 0.821600
vn 0.137600 -0.561700 0.815800
vn 0.219400 0.650100 0.727500
vn 0.290900 0.642600 0.708900
vn 0.177800 0.659300 0.730500
vn 0.994800 0.102000 0.003300
vn 0.995800 0.091000 0.011200
vn 0.998000 0.044700 0.044700
vn 0.773100 -0.622300 -0.122600
vn 0.657000 -0.753800 -0.014700
vn 0.676900 -0.730500 -0.090800
vn 0.119000 -0.642900 -0.756600
vn 0.175200 -0.682800 -0.709200
vn -0.089300 -0.697600 -0.710900
vn -0.967700 0.024200 -0.250800
vn -0.955600 0.066800 -0.287000
vn -0.947100 0.090900 -0.307700
vn 0.295700 0.109400 -0.949000
vn 0.243700 0.160400 -0.956500
vn 0.274100 0.170000 -0.946600
vn -0.284400 0.958400 0.023900
vn -0.142600 0.989600 -0.016700
vn 0.030000 -0.210100 -0.977200
vn -0.088500 -0.256500 -0.962500
vn -0.161400 -0.128600 -0.978500
vn 0.973800 0.044000 -0.223300
vn 0.973200 0.040000 -0.226500
vn 0.972700 0.073100 -0.220300
vn -0.709600 -0.109300 0.696100
vn -0.689500 -0.013700 0.724100
vn 0.107900 -0.975200 -0.193100
vn 0.114700 -0.972400 -0.203400
vn 0.303400 -0.740000 0.600300
vn 0.302900 -0.741600 0.598500
vn 0.315700 -0.698500 0.642200
vn -0.132600 0.916100 -0.378400
vn -0.151700 0.916300 -0.370700
vn -0.098600 0.915200 -0.390600
vn 0.630100 0.240200 -0.738400
vn 0.678900 0.076800 -0.730200
vn 0.659200 0.191700 -0.727200
vn 0.205400 0.957100 -0.204400
vn 0.238100 0.956400 -0.168900
vn -0.574100 -0.218400 -0.789100
vn 0.424500 -0.871900 -0.244200
vn 0.410400 -0.856700 -0.312600
vn 0.423400 -0.867900 -0.260000
vn -0.669000 -0.734300 -0.115200
vn -0.448300 -0.869500 -0.207500
vn 0.287900 0.919900 0.266400
vn 0.182600 0.965400 0.186000
vn -0.705700 0.376800 -0.600100
vn -0.778200 0.245400 -0.578100
vn -0.838900 0.029500 -0.543500
vn -0.806100 0.406800 -0.429800
vn 0.946600 -0.287400 -0.146100
vn 0.972600 -0.195900 -0.124900
vn 0.988900 -0.135100 -0.062000
vn 0.952200 -0.301500 0.048100
vn -0.634100 -0.448900 0.629600
vn -0.634500 -0.463600 0.618500
vn -0.600000 -0.496500 0.627300
vn -0.651600 -0.669800 0.356100
vn -0.824200 -0.492300 0.279700
vn -0.841300 -0.484700 0.239300
vn -0.844300 -0.471800 0.254200
vn -0.654200 -0.694600 0.299200
vn -0.118400 -0.954400 0.274000
vn 0.574600 -0.712200 -0.403100
vn 0.663100 0.116000 0.739500
vn 0.655300 0.134500 0.743300
vn -0.488900 0.869500 -0.070700
vn -0.476500 0.833600 -0.279400
vn -0.497100 0.858000 -0.129400
vn 0.441300 -0.793100 0.419700
vn 0.550900 -0.748100 0.370000
vn 0.798000 -0.574100 0.183300
vn 0.829500 -0.537600 0.151200
vn 0.881900 -0.464500 0.080200
vn 0.886300 -0.368700 0.280400
vn 0.771600 -0.585800 0.248100
vn -0.998400 -0.026600 0.049200
vn -1.000000 -0.001300 0.009100
vn -0.999200 -0.038700 -0.004100
vn 0.906000 -0.416000 -0.078100
vn 0.813100 -0.447200 -0.372600
vn 0.831900 -0.430100 -0.350500
vn 0.926300 -0.370000 -0.070500
vn -0.789900 0.538000 -0.294300
vn 0.882100 -0.132000 0.452200
vn 0.864300 -0.170400 0.473200
vn 0.810500 -0.264300 0.522700
vn 0.777000 -0.346200 0.525700
vn -0.159200 -0.910800 -0.380800
vn 0.124000 -0.891800 -0.435100
vn 0.146500 -0.903100 -0.403600
vn 0.491200 -0.655500 -0.573600
vn 0.481200 -0.623100 -0.616600
vn 0.976300 -0.095100 0.194400
vn 0.976000 -0.105000 0.190900
vn 0.961300 0.169000 0.217400
vn -0.014400 0.758100 -0.652000
vn 0.188000 0.808300 -0.557900
vn -0.766700 -0.597500 -0.234600
vn -0.879300 -0.240600 0.410900
vn -0.741300 -0.499800 -0.448000
vn -0.803500 -0.412900 -0.428800
vn -0.832500 -0.364700 -0.417100
vn -0.616500 0.787100 0.017900
vn -0.613000 0.782700 0.108200
vn -0.915500 0.386200 -0.112600
vn -0.342800 -0.808100 0.479000
vn -0.402400 -0.808900 0.428700
vn -0.521200 0.305500 -0.796900
vn -0.348000 0.054600 -0.935900
vn 0.081600 0.995800 0.040500
vn -0.396600 -0.619300 -0.677600
vn -0.422800 -0.606700 -0.673100
vn -0.304900 -0.950700 0.056300
vn -0.382100 -0.918400 0.102200
vn -0.476100 -0.846600 0.237900
vn -0.493600 -0.867100 0.067200
vn 0.359500 -0.930400 0.071900
vn 0.407800 -0.907100 0.103900
vn 0.490600 -0.850300 0.190600
vn 0.178300 -0.973800 0.140800
vn 0.645800 0.762800 0.033000
vn 0.639100 0.767200 0.055000
vn 0.693200 0.701200 0.166800
vn -0.334200 -0.878100 -0.342400
vn -0.074600 -0.981800 -0.174400
vn -0.240100 -0.949900 -0.200100
vn 0.313100 -0.311800 -0.897100
vn 0.592800 -0.199500 -0.780300
vn 0.822600 0.432500 -0.369100
vn 0.838800 0.340700 -0.424600
vn 0.805600 0.384600 -0.450500
vn -0.914600 -0.393800 0.091400
vn -0.904200 -0.427000 0.006600
vn -0.848100 -0.528100 -0.043200
vn -0.756400 -0.640400 0.133400
vn -0.761200 -0.621900 0.183800
vn -0.970400 -0.127300 0.205300
vn -0.969400 -0.123500 0.212100
vn 0.142000 -0.921800 0.360600
vn 0.179300 -0.929700 0.321700
vn -0.350700 0.039600 0.935600
vn -0.261100 0.103800 0.959700
vn -0.170300 0.064000 0.983300
vn -0.287300 0.925800 0.245800
vn -0.394000 0.856900 0.332300
vn -0.486400 0.791200 0.370700
vn -0.524200 0.776700 0.349100
vn -0.099900 0.886700 0.451400
vn 0.882000 -0.166500 -0.440900
vn 0.895900 -0.220400 -0.385600
vn -0.944300 0.167800 0.283200
vn -0.945000 0.144500 0.293500
vn -0.883500 -0.048200 0.465900
vn -0.885100 -0.019800 0.464900
vn -0.877200 0.176500 0.446500
vn 0.526400 -0.510800 0.679700
vn 0.490700 -0.471600 0.732700
vn 0.542300 -0.524400 0.656400
vn 0.727200 -0.522400 0.445300
vn -0.956600 -0.223000 -0.187700
vn 0.489600 0.755300 -0.435600
vn 0.362900 0.715500 -0.597000
vn 0.345500 -0.278500 0.896100
vn 0.335300 -0.095200 0.937300
vn 0.620900 -0.207900 0.755800
vn -0.456100 -0.832800 -0.313700
vn -0.489600 -0.802200 -0.341700
vn -0.454000 -0.731300 -0.508900
vn -0.454300 0.761300 -0.462700
vn -0.125400 0.296500 -0.946800
vn -0.092500 0.277900 -0.956100
vn -0.292700 -0.701600 0.649800
vn -0.219700 -0.687600 0.692100
vn -0.332600 -0.450000 0.828800
vn -0.001100 -0.572400 0.820000
vn 0.132100 0.645800 0.752000
vn 0.372900 0.602100 0.706000
vn 0.989300 0.143300 -0.026800
vn 0.699700 -0.703800 -0.123000
vn 0.059900 -0.489500 -0.870000
vn -0.922000 0.130900 -0.364500
vn -0.963100 0.006200 -0.269200
vn 0.319300 0.162300 -0.933600
vn 0.286400 0.047200 -0.956900
vn 0.157000 0.262700 -0.952000
vn -0.320200 0.944200 0.077800
vn 0.191300 -0.072800 -0.978800
vn 0.015400 -0.320800 -0.947000
vn 0.973700 0.082500 -0.212200
vn 0.973200 -0.004300 -0.230100
vn -0.754200 0.051300 0.654700
vn -0.812100 0.060700 0.580300
vn 0.290900 -0.776500 0.558900
vn -0.195100 0.914500 -0.354400
vn -0.097100 0.914200 -0.393400
vn 0.658100 0.221300 -0.719700
vn 0.617300 0.288700 -0.731900
vn 0.113400 0.959600 -0.257600
vn 0.259400 0.952300 -0.160900
vn -0.682000 -0.187800 -0.706800
vn -0.386000 -0.382100 -0.839700
vn -0.699200 -0.255700 -0.667600
vn -0.386100 -0.418800 -0.821900
vn 0.432500 -0.878400 -0.203200
vn 0.427800 -0.881900 -0.198200
usemtl None.001
s 1
f 1//1 2//2 3//3
f 4//4 5//5 6//6
f 7//7 8//8 9//9
f 10//10 11//11 12//12
f 13//13 14//14 15//15
f 15//16 16//17 17//18
f 18//19 19//20 20//21
f 21//22 22//23 23//24
f 24//25 25//26 26//27
f 27//28 28//29 29//30
f 30//31 31//32 32//33
f 33//34 34//34 35//34
f 11//35 36//36 37//37
f 38//38 39//39 40//40
f 41//41 42//42 21//43
f 43//44 27//45 8//46
f 44//47 36//48 45//49
f 46//50 47//51 48//52
f 23//53 49//54 50//55
f 34//56 10//57 51//58
f 52//59 53//60 54//61
f 55//62 56//63 1//64
f 15//65 57//66 58//67
f 59//68 60//69 56//70
f 61//71 62//71 63//71
f 64//72 65//73 66//74
f 28//75 67//76 39//77
f 68//78 69//79 70//80
f 71//81 72//82 73//83
f 74//84 4//85 75//86
f 28//87 39//87 66//87
f 20//88 76//89 77//90
f 78//91 79//92 80//93
f 19//94 81//95 2//96
f 32//97 77//90 82//98
f 4//99 51//100 83//101
f 47//51 76//102 84//103
f 85//104 50//105 86//106
f 6//107 35//108 51//109
f 87//110 88//111 61//112
f 55//113 3//114 89//115
f 90//116 91//117 58//118
f 92//119 93//120 13//13
f 94//121 95//122 68//123
f 33//124 6//107 24//125
f 96//126 97//127 93//128
f 98//129 99//130 97//131
f 100//132 101//133 102//134
f 57//135 103//136 64//137
f 83//138 62//139 88//140
f 31//141 30//142 104//143
f 40//144 59//145 90//146
f 105//147 106//148 107//149
f 25//150 96//151 108//152
f 26//153 109//154 44//155
f 110//156 56//157 78//158
f 111//159 112//160 9//161
f 113//162 114//163 115//164
f 95//165 93//166 116//167
f 117//168 108//152 95//169
f 5//170 96//171 25//172
f 118//173 51//174 10//175
f 119//176 120//177 121//178
f 49//179 46//180 48//181
f 40//182 43//183 122//184
f 85//185 113//186 53//187
f 65//188 74//84 29//189
f 114//190 72//191 115//192
f 118//193 87//194 61//195
f 123//196 13//13 99//197
f 82//98 47//198 124//199
f 95//200 31//201 117//202
f 75//203 71//204 111//205
f 100//206 102//207 85//208
f 83//138 106//209 75//210
f 72//82 125//211 73//83
f 124//212 22//213 126//214
f 3//3 55//215 1//1
f 1//1 84//216 2//2
f 24//217 6//6 5//5
f 4//4 98//218 5//5
f 9//9 112//219 73//220
f 73//220 7//7 9//9
f 122//221 8//8 7//7
f 27//222 9//9 8//8
f 42//223 41//224 12//12
f 118//225 10//10 12//12
f 11//11 127//226 12//12
f 12//12 41//224 118//225
f 15//15 17//227 69//228
f 69//228 116//229 92//119
f 92//119 13//13 15//15
f 123//196 14//14 13//13
f 15//15 69//228 92//119
f 70//230 17//18 16//17
f 15//16 58//231 16//17
f 91//232 89//233 16//17
f 16//17 81//234 70//230
f 58//231 91//232 16//17
f 18//19 68//235 19//20
f 21//22 126//236 22//23
f 26//27 44//237 33//238
f 33//238 24//25 26//27
f 65//239 29//30 28//29
f 111//240 9//241 27//28
f 27//28 29//30 111//240
f 94//242 32//33 31//32
f 37//243 30//31 32//33
f 37//37 120//244 11//35
f 119//245 127//246 11//35
f 11//35 45//247 36//36
f 36//36 30//248 37//37
f 120//244 119//245 11//35
f 67//249 40//40 39//39
f 90//250 38//38 40//40
f 66//251 39//39 38//38
f 127//252 119//176 42//42
f 21//43 23//253 101//254
f 101//254 41//41 21//43
f 42//42 12//255 127//252
f 119//176 21//43 42//42
f 43//44 28//256 27//45
f 34//257 33//258 45//49
f 44//47 109//259 36//48
f 104//260 36//48 109//259
f 45//49 33//258 44//47
f 80//261 48//52 47//51
f 46//50 22//262 47//51
f 124//263 47//51 22//262
f 50//55 101//133 23//53
f 23//53 22//264 46//265
f 46//265 49//54 23//53
f 34//56 45//266 10//57
f 11//267 10//57 45//266
f 51//58 35//268 34//56
f 54//61 71//269 52//59
f 52//59 106//270 53//60
f 55//62 59//271 56//63
f 15//65 14//272 57//66
f 78//273 56//70 60//69
f 59//68 122//274 7//275
f 7//275 60//69 59//68
f 28//276 66//74 65//73
f 64//72 128//277 65//73
f 28//75 43//278 67//76
f 17//279 70//80 69//79
f 19//280 68//78 70//80
f 73//83 112//281 71//81
f 71//81 115//282 72//82
f 74//84 98//283 4//85
f 48//181 80//93 79//92
f 78//91 60//284 125//285
f 125//285 79//92 78//91
f 76//286 20//287 2//96
f 19//94 70//288 81//95
f 81//95 3//289 2//96
f 2//96 20//287 19//94
f 82//98 121//290 32//97
f 120//291 37//292 32//97
f 32//97 18//293 77//90
f 20//88 77//90 18//293
f 121//290 120//291 32//97
f 63//294 62//295 83//101
f 83//101 51//100 63//294
f 6//296 51//100 4//99
f 84//103 110//297 80//261
f 80//261 47//51 84//103
f 77//298 76//102 47//51
f 2//299 84//103 76//102
f 49//300 86//106 50//105
f 85//104 102//301 50//105
f 62//302 61//112 88//111
f 87//110 100//303 88//111
f 107//304 88//111 100//303
f 91//305 90//306 89//115
f 59//307 55//113 89//115
f 3//114 81//308 89//115
f 89//115 90//306 59//307
f 81//308 16//309 89//115
f 58//118 57//310 38//311
f 38//311 90//116 58//118
f 68//123 18//312 94//121
f 32//313 94//121 18//312
f 33//124 35//108 6//107
f 13//314 93//128 99//315
f 108//316 96//126 93//128
f 97//127 99//315 93//128
f 98//129 74//317 128//318
f 128//318 64//319 129//320
f 129//320 99//130 128//318
f 97//131 5//321 98//129
f 98//129 128//318 99//130
f 50//55 102//134 101//133
f 100//132 87//322 101//133
f 41//323 101//133 87//322
f 66//324 38//325 64//137
f 57//135 14//326 123//327
f 103//136 129//328 64//137
f 57//135 123//327 103//136
f 64//137 38//325 57//135
f 109//329 130//330 117//331
f 117//331 31//141 104//143
f 30//142 36//332 104//143
f 104//143 109//329 117//331
f 40//144 122//333 59//145
f 88//334 107//149 106//148
f 105//147 53//335 106//148
f 108//152 130//336 26//337
f 26//337 25//150 108//152
f 26//153 130//338 109//154
f 110//156 84//339 1//340
f 1//340 56//157 110//156
f 78//158 80//341 110//156
f 111//159 71//342 112//160
f 115//164 71//343 54//344
f 54//344 113//162 115//164
f 116//167 69//345 68//346
f 68//346 95//165 116//167
f 93//166 92//347 116//167
f 93//348 95//169 108//152
f 117//168 130//336 108//152
f 25//172 24//349 5//170
f 5//170 97//350 96//171
f 118//173 63//351 51//174
f 121//178 126//352 21//43
f 21//43 119//176 121//178
f 48//181 79//92 49//179
f 131//353 49//179 79//92
f 8//354 122//184 43//183
f 40//182 67//355 43//183
f 53//187 105//356 85//185
f 85//185 86//357 113//186
f 113//186 54//358 53//187
f 75//86 29//189 74//84
f 65//188 128//359 74//84
f 114//190 113//360 86//106
f 86//106 49//300 131//361
f 131//361 72//191 114//190
f 114//190 86//106 131//361
f 61//195 63//362 118//193
f 118//193 41//363 87//194
f 99//197 129//364 123//196
f 103//365 123//196 129//364
f 82//98 77//90 47//198
f 95//200 94//366 31//201
f 71//204 75//203 52//367
f 29//368 75//203 111//205
f 85//208 105//369 107//370
f 107//370 100//206 85//208
f 52//371 75//210 106//209
f 4//372 83//138 75//210
f 88//140 106//209 83//138
f 7//373 73//83 125//211
f 72//82 131//374 125//211
f 125//211 60//375 7//373
f 131//374 79//376 125//211
f 126//214 121//377 124//212
f 82//378 124//212 121//377
