# Blender v2.77 (sub 0) OBJ File: ''
# www.blender.org
mtllib RF_HAA_com_constraints.mtl
o foo.007
v -0.090843 -0.043436 0.959752
v 0.222523 -0.776752 0.488134
v 0.184247 -0.682319 0.641139
v 0.399985 -0.573884 0.416064
v 0.227743 -0.301082 -0.857679
v 0.217814 0.484137 0.823869
v 0.225860 0.329880 0.876591
v 0.361764 0.119502 0.769105
v -0.675086 -0.345608 0.595061
v -0.016781 -0.637320 0.733485
v -0.059078 -0.804545 0.537508
v 0.185242 -0.946780 0.087079
v -0.201227 -0.930794 0.202051
v -0.269257 -0.931498 0.106224
v -0.491673 -0.788669 -0.274234
v -0.672313 -0.664646 -0.231769
v -0.544307 -0.714389 -0.375032
v -0.406428 -0.819148 -0.319444
v 0.361334 0.834342 -0.066773
v 0.433369 0.713040 0.022122
v 0.430007 0.619267 -0.311652
v 0.200011 0.924365 -0.197063
v 0.301092 0.690362 -0.519986
v 0.220774 0.850211 -0.364538
v -0.544533 -0.548606 0.589178
v -0.468490 -0.760251 0.389151
v -0.381649 -0.684727 0.579795
v 0.148627 -0.891293 0.335130
v 0.097938 -0.918103 0.288467
v 0.089401 -0.954289 -0.137400
v 0.167519 -0.929051 -0.189199
v 0.449705 -0.639312 -0.035018
v -0.282331 0.504003 -0.776035
v -0.184358 0.539457 -0.783153
v -0.317759 0.340478 -0.858522
v 0.121510 0.500387 -0.822652
v -0.094102 0.962864 -0.151611
v -0.381626 0.895092 -0.091147
v -0.194458 0.945835 0.131250
v -0.094657 0.966571 -0.020394
v -0.628343 -0.677812 0.309866
v -0.551907 -0.770733 0.217602
v -0.550028 -0.753485 0.273224
v 0.212617 -0.792142 -0.465506
v 0.136508 -0.817496 -0.497848
v 0.168229 -0.644598 -0.704770
v 0.175855 0.923087 0.218050
v 0.209893 0.849552 0.393982
v -0.344409 -0.668300 0.620772
v -0.201706 0.435866 0.851506
v -0.361312 0.002484 0.904358
v -0.548444 0.363584 0.720805
v -0.199757 0.083861 0.944525
v -0.116749 0.241350 0.935546
v 0.361457 -0.005390 -0.813081
v 0.204151 -0.290247 -0.871291
v -0.924965 -0.284454 0.086442
v -0.975225 -0.019649 0.012002
v -0.900448 -0.366188 -0.001884
v -0.907673 -0.302466 0.176124
v -0.924638 -0.178396 0.225499
v -0.165049 -0.312278 0.900973
v -0.124074 0.592733 0.770724
v 0.231483 0.293321 -0.866172
v 0.248604 0.131516 -0.884960
v 0.379238 0.639602 0.469303
v -0.651838 0.696485 0.205729
v -0.556512 0.708974 0.377209
v -0.515696 0.821848 -0.012603
v -0.778501 0.439039 0.392357
v -0.795457 0.553948 0.003559
v 0.497752 -0.375032 0.351390
v 0.452123 -0.451308 0.421270
v -0.346541 0.790183 0.437127
v -0.594519 0.601503 0.473385
v -0.496174 0.605758 0.573359
v 0.064484 0.842841 0.497627
v -0.646923 -0.036474 -0.721049
v -0.316942 0.028203 -0.907377
v -0.273604 -0.210732 -0.885130
v -0.560040 0.070499 -0.797932
v -0.317649 0.151356 -0.902439
v -0.046307 -0.445958 -0.863171
v -0.387116 -0.896181 0.016636
v 0.220833 0.622371 0.699183
v -0.953407 0.155171 0.078511
v -0.963800 -0.031002 -0.170932
v -0.394653 -0.308316 0.842286
v -0.640842 -0.071099 0.724948
v 0.252084 0.733509 0.534911
v 0.325177 0.335088 -0.782539
v 0.376193 0.243761 -0.746035
v 0.198315 0.555816 -0.767320
v -0.674005 -0.697918 0.052197
v -0.274148 -0.470943 0.800565
v -0.038986 -0.810923 -0.519649
v -0.278512 0.822882 -0.438965
v -0.924853 0.252613 0.153831
v -0.771614 -0.510248 -0.300712
v 0.501714 -0.499493 -0.247122
v 0.511450 -0.324501 -0.348663
v 0.484266 -0.170202 0.514781
v -0.725713 -0.333010 -0.552912
v -0.454995 -0.474744 -0.728068
v -0.494765 -0.694782 -0.463696
v 0.112380 0.926024 -0.260096
v -0.125241 -0.917906 -0.253340
v -0.798620 0.040111 -0.548691
v -0.794640 0.135102 -0.546664
v -0.903210 -0.055866 -0.372153
v -0.691036 0.327131 0.616431
v -0.855132 0.295120 0.357246
v -0.765475 -0.062989 0.602371
v -0.656882 0.302052 0.659026
v -0.161372 -0.749897 -0.595600
v -0.125610 -0.616756 -0.744854
v -0.901729 0.064510 0.351610
v 0.203888 -0.323403 0.883780
v 0.081198 -0.434383 0.863346
v 0.078009 0.834345 -0.483666
v 0.125241 0.809331 -0.514961
v -0.289899 0.774222 -0.505595
v -0.650238 0.701852 -0.142704
v -0.614869 0.527186 -0.545851
v -0.560537 0.437495 -0.663137
v -0.444253 0.677406 -0.550023
v -0.637185 0.299522 -0.682646
v 0.460557 0.471763 -0.362738
v -0.849702 -0.307788 0.359038
v -0.823047 -0.328038 -0.397442
v -0.872189 0.251396 -0.358216
v -0.441482 -0.187222 -0.837573
v -0.871533 0.364578 -0.218753
v 0.160233 -0.085955 0.950595
v -0.595802 0.077755 0.756935
v -0.330848 -0.876021 -0.211639
v 0.207054 0.007734 0.935174
vn -0.180900 -0.678200 0.712200
vn -0.347200 -0.680900 -0.644800
vn 0.756900 -0.401400 0.515700
vn -0.258400 0.953100 -0.157300
vn 0.265000 -0.931900 0.247600
vn 0.891600 0.433600 -0.130800
vn 0.964100 0.046600 -0.261500
vn -0.718600 0.091100 -0.689400
vn -0.981500 -0.191300 0.011600
vn 0.455200 0.363600 -0.812800
vn -0.764400 0.369900 -0.528000
vn 0.287200 -0.570300 0.769600
vn -0.182200 -0.883700 0.431200
vn -0.717100 0.097400 0.690100
vn -0.075600 0.729100 -0.680200
vn 0.089500 0.690800 0.717500
vn 0.460900 0.704000 -0.540300
vn -0.270300 0.756600 0.595400
vn 0.024200 -0.237700 0.971000
vn 0.030900 -0.758200 -0.651300
vn 0.797200 0.322500 0.510300
vn -0.969500 0.179300 -0.166800
vn 0.816900 -0.184000 0.546600
vn -0.417900 -0.871900 0.255200
vn -0.477800 0.274300 -0.834500
vn -0.172100 0.909900 0.377400
vn -0.021500 -0.997100 0.073300
vn -0.522300 -0.084600 0.848500
vn 0.031600 -0.059300 -0.997700
vn -0.433400 -0.522500 0.734300
vn 0.010800 0.424800 0.905200
vn -0.132500 -0.472100 0.871500
vn -0.669300 -0.546100 -0.503800
vn -0.384000 0.549400 0.742100
vn 0.259000 -0.962700 -0.078400
vn 0.729600 0.645000 0.227400
vn -0.928000 -0.300700 -0.219900
vn -0.971000 0.066200 0.229600
vn -0.415600 0.228700 0.880300
vn -0.808200 -0.556200 0.193500
vn -0.888600 0.095100 -0.448700
vn 0.824700 0.365900 -0.431200
vn -0.619400 -0.309800 0.721300
vn -0.271500 -0.864000 -0.424100
vn -0.680000 -0.559800 0.473500
vn 0.156100 -0.804800 0.572700
vn 0.810000 -0.327400 -0.486600
vn -0.819400 -0.568200 -0.075500
vn -0.168800 -0.979700 -0.107900
vn 0.776400 -0.604500 0.178400
vn -0.005300 0.210000 -0.977700
vn -0.627800 0.525900 0.573900
vn 0.333700 0.761900 0.555200
vn 0.698500 0.088400 0.710200
vn 0.541500 -0.134000 0.830000
vn 0.244500 0.889900 -0.385100
vn 0.031700 -0.933900 -0.356000
vn 0.467300 -0.078100 -0.880700
vn -0.064400 0.919000 -0.389100
vn -0.230700 -0.141400 0.962700
vn 0.079000 0.166300 0.982900
vn -0.377200 -0.058500 -0.924300
vn 0.174800 -0.494400 -0.851500
vn 0.969800 0.137100 0.201900
vn 0.754400 -0.635100 -0.166100
vn -0.606400 -0.236000 -0.759300
vn 0.659500 0.141300 -0.738300
vn -0.837900 0.180100 0.515300
vn -0.931000 0.364300 -0.023800
vn 0.811200 -0.356700 -0.463400
vn -0.875900 -0.178100 0.448400
vn -0.539300 0.779200 -0.319300
vn -0.429600 0.879200 0.206000
vn -0.777900 0.548500 -0.306600
vn 0.998000 0.061100 0.018800
vn -0.418700 0.548200 -0.724000
vn -0.815500 0.525800 0.242000
vn -0.691400 0.722500 0.008000
vn 0.035000 0.968100 0.248300
vn 0.138900 0.990200 -0.014100
vn 0.717800 0.635800 -0.283600
vn -0.803300 -0.160000 -0.573600
vn -0.547800 -0.831000 -0.096500
vn 0.546000 0.832300 0.096200
vn 0.618200 -0.742700 0.257400
vn -0.270700 -0.383600 -0.882900
vn 0.937500 -0.330400 0.109700
vn 0.444900 -0.784400 -0.432200
usemtl None
s off
f 49//1 11//1 10//1 95//1
f 115//2 105//2 104//2 116//2
f 3//3 2//3 4//3 73//3 118//3
f 97//4 38//4 39//4 40//4 37//4
f 29//5 12//5 28//5
f 19//6 20//6 21//6
f 128//7 101//7 55//7 92//7
f 81//8 78//8 108//8 109//8 127//8
f 58//9 87//9 59//9 57//9 60//9 61//9
f 36//10 93//10 91//10 64//10
f 124//11 125//11 127//11 109//11 131//11
f 119//12 10//12 3//12 118//12
f 26//13 13//13 29//13 28//13 11//13 49//13 27//13
f 135//14 114//14 111//14 113//14 89//14
f 34//15 126//15 122//15 97//15 120//15 121//15 93//15 36//15
f 63//16 6//16 85//16 77//16
f 24//17 23//17 93//17 121//17
f 63//18 77//18 74//18 68//18 76//18
f 134//19 1//19 62//19 119//19 118//19
f 45//20 96//20 115//20 116//20 46//20
f 85//21 6//21 7//21 8//21 66//21 90//21
f 86//22 133//22 131//22 110//22 87//22 58//22
f 8//23 137//23 118//23 73//23 72//23 102//23
f 14//24 13//24 26//24 41//24 43//24 42//24 84//24
f 81//25 127//25 125//25 35//25 82//25
f 77//26 39//26 74//26
f 12//27 29//27 13//27 14//27 30//27
f 88//28 51//28 135//28 89//28
f 56//29 83//29 80//29 79//29 65//29
f 49//30 95//30 88//30 25//30 27//30
f 63//31 50//31 54//31 6//31
f 95//32 10//32 119//32 62//32 88//32
f 17//33 16//33 99//33 130//33 103//33 104//33 105//33
f 52//34 50//34 63//34 76//34
f 12//35 30//35 31//35
f 66//36 20//36 19//36 48//36 90//36
f 130//37 99//37 59//37 87//37 110//37
f 112//38 98//38 86//38 58//38 61//38 117//38
f 135//39 51//39 53//39 54//39 50//39 52//39 114//39
f 129//40 60//40 57//40 59//40 94//40 42//40 43//40 41//40
f 131//41 109//41 108//41 110//41
f 21//42 128//42 92//42 91//42 93//42 23//42
f 25//43 88//43 89//43 113//43 9//43
f 115//44 96//44 107//44 136//44 18//44 15//44 17//44 105//44
f 41//45 26//45 27//45 25//45 9//45 129//45
f 11//46 28//46 2//46 3//46 10//46
f 55//47 101//47 100//47
f 94//48 59//48 99//48 16//48
f 14//49 84//49 136//49 107//49 30//49
f 12//50 32//50 4//50 2//50
f 36//51 64//51 65//51 79//51 82//51 35//51 33//51 34//51
f 75//52 70//52 111//52 114//52 52//52 76//52 68//52
f 77//53 85//53 90//53 48//53
f 137//54 8//54 7//54
f 134//55 118//55 137//55
f 106//56 22//56 24//56 121//56 120//56
f 45//57 31//57 30//57 107//57 96//57
f 65//58 55//58 5//58 56//58
f 37//59 106//59 120//59 97//59
f 53//60 51//60 88//60 62//60 1//60
f 54//61 53//61 1//61 134//61 137//61 7//61 6//61
f 81//62 82//62 79//62 80//62 132//62
f 116//63 83//63 56//63 5//63 46//63
f 8//64 102//64 20//64 66//64
f 44//65 100//65 32//65 12//65 31//65
f 103//66 78//66 81//66 132//66 104//66
f 55//67 65//67 64//67 91//67 92//67
f 112//68 117//68 113//68 111//68 70//68
f 86//69 98//69 71//69 133//69
f 46//70 5//70 55//70 100//70 44//70
f 113//71 117//71 61//71 60//71 129//71 9//71
f 124//72 123//72 69//72 38//72 97//72 122//72 126//72
f 69//73 67//73 68//73 74//73 39//73 38//73
f 133//74 71//74 123//74 124//74 131//74
f 72//75 100//75 101//75 128//75 21//75 20//75 102//75
f 34//76 33//76 35//76 125//76 124//76 126//76
f 71//77 98//77 112//77 70//77 75//77 68//77 67//77
f 69//78 123//78 71//78 67//78
f 47//79 40//79 39//79 77//79 48//79
f 47//80 22//80 106//80 37//80 40//80
f 21//81 23//81 24//81 22//81 19//81
f 78//82 103//82 130//82 110//82 108//82
f 94//83 16//83 17//83 15//83 18//83 136//83 84//83 42//83
f 22//84 47//84 48//84 19//84
f 12//85 2//85 28//85
f 104//86 132//86 80//86 83//86 116//86
f 32//87 100//87 72//87 73//87 4//87
f 44//88 31//88 45//88 46//88
