# Blender v2.77 (sub 0) OBJ File: ''
# www.blender.org
mtllib RF_HAA_com_constraints.mtl
o foo.021
v -0.668300 0.344409 0.620772
v -0.804545 0.059078 0.537508
v -0.637320 0.016781 0.733485
v -0.470943 0.274148 0.800565
v -0.749897 0.161372 -0.595600
v -0.694782 0.494765 -0.463696
v -0.474744 0.454995 -0.728068
v -0.616756 0.125610 -0.744854
v -0.682319 -0.184247 0.641139
v -0.776752 -0.222523 0.488134
v -0.573884 -0.399985 0.416064
v -0.323403 -0.203888 0.883780
v 0.822882 0.278512 -0.438965
v 0.895092 0.381626 -0.091147
v 0.945835 0.194458 0.131250
v 0.966571 0.094657 -0.020394
v 0.962864 0.094102 -0.151611
v -0.918103 -0.097938 0.288467
v -0.946780 -0.185242 0.087079
v -0.891293 -0.148627 0.335130
v 0.834342 -0.361334 -0.066773
v 0.713040 -0.433369 0.022122
v 0.619267 -0.430007 -0.311652
v 0.471763 -0.460557 -0.362738
v -0.324501 -0.511450 -0.348663
v -0.005390 -0.361457 -0.813081
v 0.243761 -0.376193 -0.746035
v 0.070499 0.560040 -0.797932
v -0.036474 0.646923 -0.721049
v 0.040111 0.798620 -0.548691
v 0.135102 0.794640 -0.546664
v 0.299522 0.637185 -0.682646
v -0.019649 0.975225 0.012002
v -0.031002 0.963800 -0.170932
v -0.366188 0.900448 -0.001884
v -0.284454 0.924965 0.086442
v -0.302466 0.907673 0.176124
v -0.178396 0.924638 0.225499
v 0.500387 -0.121510 -0.822652
v 0.555816 -0.198315 -0.767320
v 0.335088 -0.325177 -0.782539
v 0.293321 -0.231483 -0.866172
v 0.527186 0.614869 -0.545851
v 0.437495 0.560537 -0.663137
v 0.251396 0.872189 -0.358216
v -0.434383 -0.081198 0.863346
v -0.760251 0.468490 0.389151
v -0.930794 0.201227 0.202051
v -0.684727 0.381649 0.579795
v 0.077755 0.595802 0.756935
v 0.302052 0.656882 0.659026
v -0.062989 0.765475 0.602371
v -0.071099 0.640842 0.724948
v 0.677406 0.444253 -0.550023
v 0.834345 -0.078009 -0.483666
v 0.809331 -0.125241 -0.514961
v 0.592733 0.124074 0.770724
v 0.484137 -0.217814 0.823869
v 0.622371 -0.220833 0.699183
v 0.842841 -0.064484 0.497627
v 0.850211 -0.220774 -0.364538
v 0.690362 -0.301092 -0.519986
v 0.790183 0.346541 0.437127
v 0.708974 0.556512 0.377209
v 0.605758 0.496174 0.573359
v -0.085955 -0.160233 0.950595
v -0.043436 0.090843 0.959752
v -0.312278 0.165049 0.900973
v -0.817496 -0.136508 -0.497848
v -0.810923 0.038986 -0.519649
v -0.644598 -0.168229 -0.704770
v 0.329880 -0.225860 0.876591
v 0.119502 -0.361764 0.769105
v 0.639602 -0.379238 0.469303
v 0.733509 -0.252084 0.534911
v -0.055866 0.903210 -0.372153
v 0.007734 -0.207054 0.935174
v -0.375032 -0.497752 0.351390
v -0.170202 -0.484266 0.514781
v -0.753485 0.550028 0.273224
v -0.770733 0.551907 0.217602
v -0.896181 0.387116 0.016636
v 0.340478 0.317759 -0.858522
v 0.151356 0.317649 -0.902439
v -0.954289 -0.089401 -0.137400
v -0.308316 0.394653 0.842286
v 0.002484 0.361312 0.904358
v -0.290247 -0.204151 -0.871291
v -0.445958 0.046307 -0.863171
v -0.210732 0.273604 -0.885130
v 0.131516 -0.248604 -0.884960
v -0.548606 0.544533 0.589178
v 0.435866 0.201706 0.851506
v 0.241350 0.116749 0.935546
v -0.714389 0.544307 -0.375032
v -0.664646 0.672313 -0.231769
v -0.510248 0.771614 -0.300712
v -0.328038 0.823047 -0.397442
v -0.333010 0.725713 -0.552912
v 0.363584 0.548444 0.720805
v -0.929051 -0.167519 -0.189199
v 0.849552 -0.209893 0.393982
v 0.295120 0.855132 0.357246
v 0.252613 0.924853 0.153831
v 0.064510 0.901729 0.351610
v 0.083861 0.199757 0.944525
v -0.307788 0.849702 0.359038
v -0.697918 0.674005 0.052197
v -0.345608 0.675086 0.595061
v -0.917906 0.125241 -0.253340
v -0.876021 0.330848 -0.211639
v -0.819148 0.406428 -0.319444
v -0.788669 0.491673 -0.274234
v -0.499493 -0.501714 -0.247122
v -0.639312 -0.449705 -0.035018
v 0.504003 0.282331 -0.776035
v 0.601503 0.594519 0.473385
v 0.439039 0.778501 0.392357
v 0.926024 -0.112380 -0.260096
v 0.924365 -0.200011 -0.197063
v -0.301082 -0.227743 -0.857679
v -0.187222 0.441482 -0.837573
v -0.792142 -0.212617 -0.465506
v 0.553948 0.795457 0.003559
v 0.701852 0.650238 -0.142704
v 0.821848 0.515696 -0.012603
v 0.696485 0.651838 0.205729
v 0.923087 -0.175855 0.218050
vn 0.091200 0.720600 -0.687400
vn 0.045300 0.739800 -0.671300
vn 0.077600 0.721800 -0.687700
vn -0.677600 0.341100 -0.651500
vn -0.681700 0.348600 -0.643200
vn -0.666900 0.321800 -0.672000
vn -0.931900 -0.265000 0.247600
vn 0.433600 -0.891600 -0.130800
vn -0.869000 0.233400 -0.436300
vn -0.894700 0.216400 -0.390800
vn -0.850500 0.328300 -0.411000
vn 0.195800 0.967100 -0.162500
vn 0.218700 0.972900 -0.074300
vn 0.294700 0.951000 -0.094000
vn -0.243500 -0.021500 0.969700
vn -0.234500 -0.022900 0.971800
vn -0.249000 -0.037600 0.967800
vn 0.248200 -0.823100 0.510700
vn 0.292900 -0.806200 0.514100
vn 0.231700 -0.798300 0.555900
vn 0.516800 0.786800 0.337500
vn 0.574300 0.769300 0.280000
vn 0.504600 0.843100 0.185900
vn 0.803800 0.508200 -0.309300
vn 0.784500 0.544600 -0.296500
vn 0.804300 0.525200 -0.278100
vn 0.134800 -0.085200 0.987200
vn 0.232000 -0.048000 0.971500
vn 0.094100 -0.037300 0.994900
vn -0.589600 0.678700 0.438000
vn -0.535000 0.735600 0.415600
vn -0.750700 0.570200 0.333700
vn -0.568100 0.819500 -0.075700
vn -0.567800 0.819600 -0.076300
vn -0.570300 0.818300 -0.071700
vn -0.962700 -0.259000 -0.078400
vn 0.164800 -0.020100 -0.986100
vn 0.038400 -0.030200 -0.998800
vn 0.089800 -0.019800 -0.995800
vn 0.889500 -0.260400 -0.375400
vn 0.889100 -0.243300 -0.387700
vn 0.892900 -0.225800 -0.389500
vn -0.570600 0.781100 0.253700
vn -0.555700 0.791900 0.253100
vn -0.517800 0.834300 0.189600
vn -0.788200 -0.443800 -0.426400
vn -0.772800 -0.448300 -0.449200
vn -0.714300 -0.461500 -0.526100
vn 0.088400 -0.698500 0.710200
vn -0.134000 -0.541500 0.830000
vn -0.933800 -0.033100 -0.356300
vn -0.929100 -0.011100 -0.369600
vn -0.933900 -0.025000 -0.356800
vn 0.690400 -0.089600 0.717900
vn 0.684800 -0.091100 0.723000
vn 0.704600 -0.085600 0.704400
vn 0.044400 -0.963400 -0.264400
vn 0.044100 -0.963300 -0.264800
vn 0.057500 -0.967300 -0.247100
vn 0.090500 -0.990200 0.106800
vn 0.136300 -0.975100 0.175100
vn 0.139200 -0.944800 0.296500
vn 0.378900 -0.043200 0.924400
vn 0.425400 -0.010700 0.905000
vn 0.953500 0.258200 -0.155400
vn 0.971500 0.235600 -0.025700
vn 0.953700 0.181800 -0.239800
vn -0.679900 -0.038100 -0.732300
vn -0.642400 -0.096400 -0.760300
vn -0.759300 -0.034700 -0.649800
vn 0.765400 -0.337100 0.548200
vn 0.759800 -0.331700 0.559200
vn 0.772700 -0.344400 0.533200
vn 0.332800 -0.434900 -0.836700
vn 0.387800 -0.470800 -0.792400
vn 0.421400 -0.492100 -0.761700
vn 0.481300 -0.704500 0.521500
vn 0.425800 -0.748600 0.508200
vn 0.552600 -0.666400 0.500600
vn 0.990400 -0.130500 -0.045800
vn 0.985900 -0.109500 -0.126300
vn 0.991500 -0.123100 -0.043300
vn -0.192400 0.980700 0.034200
vn -0.187500 0.982300 -0.003900
vn -0.204700 0.977300 -0.054100
vn 0.314700 0.488500 -0.813900
vn 0.379900 0.483100 -0.788900
vn 0.261600 0.471500 -0.842200
vn 0.736800 -0.658700 0.152600
vn 0.776400 -0.610700 0.155800
vn 0.883000 -0.468500 0.030000
vn -0.167500 0.920100 0.354000
vn -0.240900 0.927200 0.286800
vn -0.187900 0.884700 0.426600
vn 0.554800 0.379400 0.740500
vn 0.546400 0.386600 0.743000
vn 0.538600 0.393200 0.745200
vn -0.888000 0.165600 0.428900
vn -0.859900 0.253600 0.443000
vn -0.894900 0.174400 0.410700
vn 0.580900 0.645500 0.495900
vn 0.495500 0.643800 0.583100
vn -0.554400 -0.321400 0.767700
vn -0.581200 -0.262600 0.770200
vn -0.536300 -0.357800 0.764400
vn -0.200100 0.590300 -0.782000
vn -0.132200 0.560600 -0.817400
vn -0.229200 0.603600 -0.763600
vn 0.723800 0.690000 0.008000
vn 0.722200 0.691700 0.007900
vn 0.742200 0.670100 0.008400
vn 0.748400 0.308600 0.587100
vn 0.639200 0.495800 0.587900
vn 0.759800 0.234800 0.606300
vn 0.029600 0.978400 0.204400
vn 0.082800 0.969600 0.230100
vn 0.124900 0.964700 0.231600
vn 0.364500 -0.827300 -0.427400
vn 0.366300 -0.823200 -0.433800
vn 0.333300 -0.854100 -0.399400
vn 0.879000 0.430800 0.204400
vn 0.882900 0.428700 0.191700
vn 0.880500 0.420000 0.220000
vn -0.363600 -0.921900 0.134100
vn -0.292200 -0.952900 0.081400
vn -0.264800 -0.962400 0.061400
vn -0.671200 0.183600 0.718200
vn -0.685900 0.177900 0.705600
vn -0.619100 0.202500 0.758700
vn -0.358300 -0.793700 0.491500
vn -0.235800 -0.826200 0.511600
vn -0.238800 -0.797900 0.553500
vn -0.795900 -0.150000 0.586600
vn -0.767800 -0.117400 0.629800
vn -0.802900 -0.153900 0.576000
vn 0.102300 0.924600 -0.366800
vn 0.204900 0.947900 -0.243900
vn -0.573900 0.669600 -0.471500
vn -0.547700 0.690400 -0.472600
vn -0.550500 0.655300 -0.517300
vn 0.126100 -0.658900 -0.741600
vn 0.127300 -0.658200 -0.742000
vn 0.157100 -0.660900 -0.733900
vn -0.167700 0.809500 -0.562700
vn -0.164900 0.818300 -0.550700
vn -0.148500 0.794200 -0.589200
vn 0.703400 -0.460400 -0.541600
vn 0.710700 -0.465800 -0.527200
vn 0.724300 -0.475800 -0.499000
vn 0.401900 0.732700 -0.549300
vn 0.381900 0.749300 -0.541100
vn 0.350700 0.782400 -0.514700
vn -0.451700 0.152100 0.879100
vn -0.400300 0.233400 0.886200
vn -0.453800 0.157900 0.877000
vn -0.745000 0.547800 0.380700
vn -0.878900 0.408000 0.247100
vn -0.887900 0.394800 0.236200
vn -0.528600 0.434700 0.729200
vn -0.596300 0.460500 0.657500
vn -0.552500 0.442000 0.706600
vn 0.535600 0.452900 -0.712800
vn 0.556100 0.505700 -0.659500
vn 0.648000 0.308400 -0.696500
vn 0.644900 -0.711800 -0.278400
vn 0.652600 -0.698000 -0.294700
vn 0.606000 -0.741600 -0.287700
vn 0.309600 0.030700 -0.950400
vn 0.465000 0.097400 -0.879900
vn 0.259300 0.015500 -0.965700
vn -0.503900 -0.162700 -0.848300
vn -0.451600 -0.255900 -0.854800
vn -0.086400 0.521900 0.848600
vn -0.065400 0.526700 0.847500
vn -0.114400 0.515100 0.849500
vn 0.675600 -0.704700 0.216800
vn 0.654000 -0.720600 0.230100
vn 0.919600 0.061600 -0.387900
vn 0.924100 0.162800 -0.345700
vn -0.411600 0.259800 -0.873500
vn -0.471900 0.246600 -0.846500
vn -0.378100 0.273000 -0.884600
vn 0.228200 0.400500 0.887400
vn 0.245300 0.371100 0.895600
vn 0.217000 0.474700 0.853000
vn -0.077900 -0.466900 -0.880900
vn -0.079500 -0.469400 -0.879400
vn -0.077700 -0.466800 -0.880900
vn 0.124200 0.775700 0.618800
vn 0.172200 0.792600 0.584900
vn 0.214800 0.820000 0.530600
vn 0.529500 0.799700 -0.283000
vn 0.530900 0.796400 -0.289600
vn 0.526200 0.806700 -0.268900
vn 0.107400 -0.994200 -0.000500
vn 0.110100 -0.992500 0.053700
vn -0.327400 -0.814200 -0.479400
vn -0.361400 -0.804400 -0.471600
vn -0.385400 -0.802100 -0.456200
vn -0.630100 -0.757200 -0.172200
vn -0.649400 -0.746400 -0.145700
vn -0.621800 -0.758100 -0.196700
vn -0.637400 -0.754400 0.157000
vn -0.633600 -0.766600 0.104100
vn -0.616100 -0.766600 0.181100
vn -0.984700 0.157700 -0.073700
vn -0.984400 0.159800 -0.073400
vn -0.996500 0.083300 0.011800
vn -0.312300 0.924200 -0.219900
vn -0.312400 0.926100 -0.211400
vn -0.270400 0.935600 -0.226800
vn -0.834900 0.524900 -0.165600
vn -0.841600 0.534700 -0.077000
vn -0.819000 0.572500 -0.038600
vn -0.157400 0.236000 0.958900
vn -0.121300 0.218900 0.968200
vn -0.129600 0.227100 0.965200
vn 0.963800 0.050700 0.261900
vn 0.943100 0.013600 0.332300
vn 0.962600 -0.047400 0.266900
vn -0.255500 0.653600 0.712400
vn -0.318200 0.616200 0.720400
vn -0.325400 0.600600 0.730300
vn -0.062800 0.322800 -0.944400
vn -0.051400 0.349400 -0.935600
vn -0.080000 0.282000 -0.956100
vn 0.708600 0.075000 -0.701600
vn 0.618800 0.277700 -0.734800
vn 0.715600 0.094500 -0.692100
vn 0.099900 0.713800 -0.693100
vn 0.098900 0.725000 -0.681600
vn -0.688900 0.362300 -0.627900
vn -0.808700 0.473900 -0.348500
vn -0.800100 0.446400 -0.400700
vn -0.803100 0.376300 -0.462000
vn -0.889800 0.184700 -0.417300
vn -0.917700 0.249600 -0.309100
vn 0.351700 0.931100 -0.096600
vn -0.222200 -0.038700 0.974200
vn -0.213500 0.000500 0.977000
vn 0.449400 0.874000 0.185000
vn 0.417500 0.882800 0.215300
vn 0.814500 0.551100 -0.181300
vn 0.759000 0.561500 -0.329500
vn 0.696900 0.622300 -0.356500
vn 0.133500 -0.058700 0.989300
vn 0.263800 -0.097000 0.959700
vn 0.080500 0.045100 0.995700
vn -0.487800 0.737300 0.467400
vn -0.674100 0.534000 0.510300
vn -0.564700 0.821200 -0.081800
vn -0.077600 -0.016000 -0.996900
vn -0.049900 -0.024000 -0.998500
vn -0.048700 -0.020800 -0.998600
vn 0.896700 -0.220600 -0.383800
vn 0.891100 -0.276000 -0.360300
vn -0.383500 0.918100 0.100000
vn -0.509400 0.847700 0.147900
vn -0.666000 0.709400 0.230500
vn -0.606600 0.748700 0.267500
vn -0.836600 -0.425400 -0.345100
vn -0.933000 -0.042800 -0.357400
vn -0.924400 -0.047700 -0.378400
vn 0.665500 -0.096300 0.740100
vn 0.022400 -0.955800 -0.293300
vn 0.455400 -0.006300 0.890300
vn 0.971400 0.236400 -0.022700
vn -0.770200 -0.050100 -0.635900
vn -0.750000 -0.035900 -0.660400
vn 0.753300 -0.325400 0.571500
vn 0.294800 -0.409300 -0.863500
vn 0.990400 -0.138300 -0.006000
vn 0.988800 -0.148600 0.011700
vn -0.191800 0.970100 0.148500
vn -0.164500 0.978100 0.127800
vn -0.218400 0.973500 -0.068100
vn 0.202400 0.443900 -0.872900
vn 0.238000 0.476800 -0.846200
vn -0.268200 0.794500 0.544800
vn -0.184100 0.856700 0.481800
vn -0.117600 0.901300 0.416900
vn 0.563700 0.371500 0.737700
vn -0.911100 0.005200 0.412200
vn -0.892900 -0.061700 0.446000
vn -0.812000 0.231400 0.535800
vn -0.837300 0.247100 0.487800
vn 0.500700 0.625900 0.598000
vn 0.581800 0.728100 0.362400
vn -0.598900 -0.219700 0.770100
vn -0.255000 0.615800 -0.745500
vn -0.257300 0.614800 -0.745600
vn 0.704400 0.709800 0.007600
vn 0.785400 0.187500 0.589900
vn 0.710900 0.473700 0.519800
vn 0.183200 0.941100 0.284300
vn -0.020200 0.976100 0.216300
vn 0.320600 -0.850500 -0.416900
vn 0.328000 -0.862700 -0.385000
vn 0.447200 -0.713300 -0.539700
vn 0.880300 0.425100 0.210400
vn 0.901100 0.410400 0.139800
vn 0.859100 0.471300 0.199400
vn -0.394200 -0.905500 0.157000
vn -0.734100 0.157800 0.660500
vn -0.131100 -0.796500 0.590300
vn -0.106400 -0.762200 0.638500
vn -0.427800 -0.746600 0.509500
vn -0.475800 -0.738100 0.478300
vn -0.283600 -0.858900 0.426400
vn -0.826900 -0.175300 0.534400
vn -0.822100 -0.176100 0.541400
vn 0.085400 0.885200 -0.457300
vn 0.046900 0.870400 -0.490100
vn -0.542100 0.637800 -0.547100
vn -0.522800 0.683800 -0.509000
vn -0.615200 0.681900 -0.395700
vn -0.459000 0.759500 -0.460800
vn 0.158600 -0.660000 -0.734300
vn 0.060000 -0.649700 -0.757800
vn -0.197600 0.833700 -0.515600
vn -0.144200 0.773700 -0.616900
vn 0.691400 -0.451700 -0.563800
vn 0.322300 0.788700 -0.523500
vn 0.442500 0.635500 -0.632800
vn -0.501500 0.100200 0.859300
vn -0.493000 0.101900 0.864100
vn -0.889000 0.395600 0.230600
vn -0.514600 0.431500 0.741000
vn -0.511400 0.433300 0.742100
vn 0.479300 0.426000 -0.767300
vn 0.617900 -0.745300 -0.250300
vn 0.743700 -0.619000 -0.252600
vn -0.473300 -0.267000 -0.839500
vn -0.019000 0.536500 0.843700
vn 0.660700 -0.707600 0.250700
vn 0.661200 -0.666300 0.344900
vn 0.926500 0.031700 -0.375000
vn -0.327200 0.299700 -0.896200
vn -0.338400 0.284200 -0.897100
vn 0.195100 0.566700 0.800500
vn 0.189500 0.498700 0.845800
vn 0.237800 0.347000 0.907200
vn 0.237300 0.352300 0.905300
vn -0.080100 -0.470300 -0.878900
vn 0.155300 0.832700 0.531400
vn 0.057900 0.698100 0.713600
vn 0.092200 0.711300 0.696800
vn 0.299600 0.800500 0.519000
vn 0.533400 0.790700 -0.300500
vn 0.036800 -0.999100 0.022200
vn -0.046200 -0.998800 0.016200
vn 0.021800 -0.999600 0.018900
vn 0.226600 -0.971200 -0.073400
vn -0.325500 -0.819500 -0.471700
vn -0.302200 -0.826700 -0.474700
vn -0.455000 -0.782200 -0.425700
vn -0.603700 -0.769200 -0.209300
vn -0.669800 -0.737000 -0.090300
vn -0.574900 -0.781000 0.243900
vn -0.615800 -0.762000 0.200600
vn -0.989900 -0.001100 0.141500
vn -0.996500 0.017000 0.081400
vn -0.964200 0.224900 -0.140600
vn -0.995900 0.089600 -0.007800
vn -0.252100 0.934800 -0.250300
vn -0.368300 0.905000 -0.212600
vn -0.824600 0.563300 0.052800
vn -0.800000 0.582800 -0.142800
vn -0.767000 0.587300 -0.258500
vn -0.892100 0.414500 -0.180100
vn -0.892100 0.414200 -0.180700
vn -0.063500 0.210600 0.975500
vn -0.164200 0.246900 0.955000
vn 0.988100 -0.025100 0.151700
vn 0.909900 0.172100 0.377400
vn 0.916800 -0.202900 0.344000
vn -0.392600 0.578300 0.715200
vn -0.238000 0.688900 0.684700
vn -0.035600 0.385600 -0.922000
vn 0.720900 0.131000 -0.680500
vn 0.705700 -0.001200 -0.708500
vn 0.705100 0.049300 -0.707400
usemtl None.022
s 1
f 29//1 30//2 31//3
f 5//4 7//5 8//6
f 18//7 19//7 20//7
f 21//8 22//8 23//8
f 5//9 110//10 112//11
f 34//12 33//13 104//14
f 66//15 68//16 12//17
f 73//18 58//19 72//20
f 118//21 127//22 124//23
f 13//24 125//25 14//26
f 77//27 94//28 67//29
f 92//30 107//31 80//32
f 35//33 96//34 108//35
f 19//36 85//36 101//36
f 42//37 91//38 84//39
f 119//40 61//41 55//42
f 108//43 107//44 37//45
f 123//46 69//47 71//48
f 77//49 73//49 72//49
f 66//50 12//50 77//50
f 110//51 70//52 69//53
f 57//54 59//55 60//56
f 25//57 27//58 24//59
f 79//60 74//61 73//62
f 94//28 58//63 93//64
f 14//65 16//66 17//67
f 8//68 71//69 70//70
f 60//71 75//72 102//73
f 39//74 41//75 42//76
f 59//77 74//78 75//79
f 120//80 119//81 17//82
f 36//83 33//84 34//85
f 32//86 44//87 83//88
f 128//89 21//90 120//91
f 38//92 37//93 107//94
f 93//95 65//96 100//97
f 2//98 47//99 48//100
f 117//101 118//21 51//102
f 46//103 9//104 12//105
f 29//106 28//107 122//108
f 125//109 127//110 126//111
f 63//112 65//113 57//114
f 33//115 105//116 104//117
f 41//118 62//119 24//120
f 15//121 126//122 63//123
f 78//124 115//125 114//126
f 1//127 3//128 4//129
f 11//130 79//131 12//132
f 9//133 3//134 2//135
f 76//136 34//12 45//137
f 95//138 97//139 6//140
f 42//141 27//142 91//143
f 99//144 76//145 30//146
f 62//147 56//148 61//149
f 43//150 32//151 45//152
f 68//153 86//154 4//155
f 47//156 81//157 48//158
f 92//159 49//160 1//161
f 44//162 43//163 54//164
f 61//165 21//166 23//167
f 83//168 116//169 39//170
f 89//171 121//172 71//69
f 87//173 53//174 86//175
f 128//89 102//176 22//177
f 55//178 13//179 17//67
f 89//180 8//181 7//182
f 87//183 93//184 100//185
f 26//186 88//187 91//188
f 52//189 51//190 103//191
f 125//192 45//193 124//194
f 24//195 22//196 79//60
f 25//197 114//198 71//199
f 115//200 101//201 123//202
f 11//203 10//204 20//205
f 82//206 110//207 48//208
f 98//209 35//210 34//211
f 113//212 82//213 108//214
f 68//215 67//216 87//217
f 15//218 60//219 128//220
f 53//221 109//222 86//223
f 122//224 84//225 90//226
f 56//227 116//228 55//229
f 31//3 32//230 29//1
f 28//231 29//1 32//230
f 5//4 6//232 7//5
f 113//233 95//234 112//11
f 6//235 5//9 112//11
f 70//236 110//10 5//9
f 112//11 95//234 6//235
f 110//10 111//237 112//11
f 104//14 124//238 45//137
f 45//137 34//12 104//14
f 46//239 12//17 68//16
f 66//15 67//240 68//16
f 73//18 74//78 58//19
f 124//23 104//241 118//21
f 103//242 118//21 104//241
f 126//243 14//26 125//25
f 13//24 54//244 125//25
f 43//245 125//25 54//244
f 67//29 66//246 77//27
f 77//27 72//247 94//28
f 94//28 106//248 67//29
f 80//32 47//156 92//30
f 92//30 109//249 107//31
f 47//156 49//250 92//30
f 35//33 97//251 96//34
f 89//252 90//253 88//254
f 84//39 83//168 42//37
f 39//170 42//37 83//168
f 91//38 88//254 90//253
f 90//253 84//39 91//38
f 56//255 55//42 61//41
f 119//40 120//256 61//41
f 36//257 35//258 37//45
f 108//43 81//259 80//260
f 80//260 107//44 108//43
f 37//45 35//258 108//43
f 123//46 101//261 69//47
f 69//53 101//262 110//51
f 85//263 110//51 101//262
f 57//54 58//264 59//55
f 25//57 26//265 27//58
f 57//266 93//64 58//63
f 94//28 72//247 58//63
f 14//65 15//267 16//66
f 69//268 70//70 71//69
f 5//269 8//68 70//70
f 89//171 71//69 8//68
f 60//71 59//270 75//72
f 39//74 40//271 41//75
f 59//77 58//19 74//78
f 17//82 16//272 120//80
f 128//273 120//80 16//272
f 36//83 37//274 38//275
f 38//275 33//84 36//83
f 34//85 35//276 36//83
f 83//88 84//277 28//278
f 28//278 32//86 83//88
f 109//279 52//280 107//94
f 105//281 38//92 107//94
f 107//94 52//280 105//281
f 93//95 57//282 65//96
f 18//283 20//284 2//98
f 2//98 1//285 49//286
f 49//286 47//99 2//98
f 48//100 18//283 2//98
f 51//102 100//287 117//101
f 117//101 64//288 127//22
f 100//287 65//113 117//101
f 127//22 118//21 117//101
f 46//103 3//289 9//104
f 122//108 7//290 99//291
f 99//291 29//106 122//108
f 125//109 124//292 127//110
f 57//114 60//293 63//112
f 63//112 64//294 65//113
f 117//101 65//113 64//294
f 103//295 104//117 105//116
f 33//115 38//296 105//116
f 23//297 24//120 62//119
f 27//298 41//118 24//120
f 40//299 62//119 41//118
f 64//300 63//123 126//122
f 15//121 14//301 126//122
f 126//122 127//302 64//300
f 78//124 11//303 115//125
f 1//127 2//304 3//128
f 73//305 77//306 12//132
f 12//132 9//307 11//130
f 10//308 11//130 9//307
f 78//309 79//131 11//130
f 73//305 12//132 79//131
f 2//135 20//310 10//311
f 10//311 9//133 2//135
f 45//137 31//312 76//136
f 30//313 76//136 31//312
f 7//314 6//140 99//315
f 95//138 96//316 97//139
f 97//139 98//317 99//315
f 99//315 6//140 97//139
f 26//318 91//143 27//142
f 42//141 41//319 27//142
f 76//145 99//144 98//320
f 29//321 99//144 30//146
f 62//147 40//322 56//148
f 31//323 45//152 32//151
f 43//150 44//324 32//151
f 4//155 3//325 46//326
f 46//326 68//153 4//155
f 82//327 48//158 81//157
f 47//156 80//32 81//157
f 1//161 4//328 92//159
f 86//329 92//159 4//328
f 54//164 116//228 44//162
f 83//330 44//162 116//228
f 23//167 62//331 61//165
f 61//165 120//332 21//166
f 89//171 88//333 121//172
f 87//173 50//334 53//174
f 74//335 22//177 102//176
f 21//90 128//89 22//177
f 102//176 75//336 74//335
f 14//65 17//67 13//179
f 119//337 55//178 17//67
f 7//182 122//338 90//339
f 90//339 89//180 7//182
f 51//340 50//341 100//185
f 87//183 106//342 93//184
f 94//343 93//184 106//342
f 100//185 50//341 87//183
f 26//186 121//344 88//187
f 103//191 105//345 52//189
f 52//189 53//346 50//347
f 50//347 51//190 52//189
f 118//348 103//191 51//190
f 125//192 43//349 45//193
f 74//61 79//60 22//196
f 78//350 114//351 25//352
f 25//352 79//60 78//350
f 23//353 22//196 24//195
f 79//60 25//352 24//195
f 71//199 121//354 25//197
f 26//355 25//197 121//354
f 114//198 123//356 71//199
f 123//202 114//357 115//200
f 115//200 19//358 101//201
f 20//205 19//359 115//360
f 115//360 11//203 20//205
f 18//361 48//208 19//362
f 82//206 111//363 110//207
f 110//207 85//364 48//208
f 19//362 48//208 85//364
f 34//211 76//365 98//209
f 98//209 97//366 35//210
f 81//367 108//214 82//213
f 96//368 95//369 113//212
f 113//212 112//370 111//371
f 111//371 82//213 113//212
f 108//214 96//368 113//212
f 106//372 87//217 67//216
f 86//373 68//215 87//217
f 128//220 16//374 15//218
f 15//218 63//375 60//219
f 60//219 102//376 128//220
f 92//377 86//223 109//222
f 53//221 52//378 109//222
f 122//224 28//379 84//225
f 13//380 55//229 116//228
f 56//227 40//381 39//382
f 39//382 116//228 56//227
f 54//164 13//380 116//228
