# Blender v2.77 (sub 0) OBJ File: ''
# www.blender.org
mtllib RF_HAA_09_com_constraints.mtl
o foo.021
v -0.032827 0.582231 -0.648944
v 0.036100 0.718758 -0.493822
v 0.121592 0.715176 -0.491998
v -0.674907 0.145235 -0.536040
v -0.427270 0.409496 -0.655261
v -0.555080 0.113049 -0.670369
v -0.826293 -0.088144 0.259620
v -0.852102 -0.166718 0.078371
v -0.802164 -0.133764 0.301617
v 0.750908 -0.325201 -0.060096
v 0.641736 -0.390032 0.019910
v 0.557340 -0.387006 -0.280487
v -0.826115 0.112717 -0.228006
v -0.737233 0.365785 -0.287500
v -0.027902 0.867420 -0.153839
v -0.017684 0.877702 0.010802
v 0.227352 0.832368 0.138448
v -0.077359 -0.144210 0.855536
v -0.281050 0.148544 0.810876
v -0.291063 -0.183499 0.795402
v 0.107552 -0.325588 0.692195
v 0.435723 -0.196033 0.741482
v 0.296892 -0.203274 0.788932
v 0.395135 0.700651 0.353121
v 0.626836 0.586654 0.185156
v 0.498553 0.715911 0.003203
v 0.740594 0.250661 -0.395068
v 0.631667 0.585214 -0.128434
v 0.805583 0.343463 -0.082032
v 0.006961 -0.186349 0.841657
v 0.217215 0.105074 0.841991
v -0.039092 0.081759 0.863777
v -0.493745 0.490080 0.530260
v -0.277009 0.764732 0.323134
v -0.678137 0.495025 0.245902
v -0.329569 0.810403 -0.001696
v -0.598181 0.605082 -0.208592
v -0.628126 0.606604 0.046977
v -0.858860 -0.080461 -0.123660
v -0.836146 -0.150767 -0.170279
v 0.263989 -0.208335 -0.779555
v 0.118364 -0.223744 -0.796464
v 0.136220 0.285884 -0.812195
v 0.833422 -0.101142 -0.234086
v 0.765190 -0.198697 -0.328084
v 0.750910 -0.070208 -0.435299
v -0.272219 0.816906 0.158512
v -0.712928 -0.191355 -0.418955
v -0.735746 -0.122857 -0.448063
v -0.580138 -0.151406 -0.634293
v -0.729831 0.035087 -0.467684
v 0.533460 0.111667 0.693652
v 0.560134 -0.198750 0.629265
v 0.758557 -0.058036 0.447864
v -0.292051 -0.460305 -0.313797
v 0.219385 -0.338574 -0.671431
v 0.424587 -0.414501 -0.326464
v -0.153182 -0.435839 0.463303
v 0.575642 -0.341314 0.422373
v 0.392279 0.181535 0.766355
v 0.869914 0.085191 -0.018355
v 0.866578 0.084692 -0.136450
v 0.660158 -0.226876 0.481420
v 0.764597 -0.188904 0.354584
v 0.450348 -0.109359 -0.740387
v 0.301579 -0.292659 -0.704285
v 0.831928 -0.180010 -0.177357
v -0.256009 0.832469 0.077798
v 0.269570 0.573466 -0.614381
v 0.393745 0.504483 -0.596823
v 0.306430 0.285983 -0.772670
v 0.830778 -0.158269 0.196245
v -0.160556 0.832174 0.202949
v 0.545182 0.446557 0.516023
v 0.327226 0.493600 0.648724
v -0.724090 0.053170 0.483757
v -0.684226 0.421641 0.350236
v -0.837715 0.181104 0.181846
v 0.541353 0.535067 0.426046
v 0.271847 0.591194 0.593123
v -0.390945 -0.073078 0.777011
v -0.614087 -0.165822 0.577025
v 0.063449 0.504036 -0.718139
v -0.168500 0.397334 -0.753816
v 0.739663 0.464126 -0.011343
v 0.711165 0.311887 0.393414
v 0.058059 0.811556 0.316449
v 0.621326 -0.270983 -0.467987
v 0.851251 0.175012 0.118125
v -0.337529 -0.447977 0.316251
v -0.575381 -0.404734 -0.031516
v -0.449544 -0.451543 -0.222410
v -0.601470 0.309968 0.558695
v -0.573588 0.015103 0.660136
v -0.423849 0.246733 0.720508
v -0.516496 -0.359986 0.374458
v -0.050279 0.812889 -0.334938
v 0.226256 0.784970 -0.322394
v -0.642950 0.489876 -0.337529
v -0.459223 0.694453 -0.270641
v -0.625304 0.445289 -0.417326
v -0.299709 0.653142 -0.497621
v 0.728398 -0.112717 -0.463465
v 0.474467 0.553382 -0.491266
v -0.277484 0.355188 0.758057
v -0.693660 0.496716 0.195842
v -0.616254 0.343484 0.521815
v 0.609665 0.399828 -0.495021
v 0.453603 0.254098 -0.698431
v -0.401362 0.041676 -0.776854
v -0.270974 -0.204969 -0.771911
v 0.002236 0.325181 0.813922
v -0.063989 0.576758 0.652453
v -0.004851 -0.325311 -0.731773
v -0.261222 -0.183736 -0.784162
v -0.056690 0.688927 0.542134
v 0.265608 0.769619 0.321521
v -0.699077 -0.200271 0.439321
v -0.806563 0.348404 0.014972
v -0.295234 0.740742 -0.357698
v -0.709802 0.442506 -0.246811
v -0.311047 0.607577 0.535555
v -0.189659 0.246244 -0.796617
v -0.788419 0.297763 -0.190475
v 0.075475 0.179781 0.850073
v 0.500234 -0.178483 -0.690588
v 0.638077 0.500861 0.339488
v 0.069979 0.536222 0.681241
vn 0.091200 0.720600 -0.687400
vn 0.045300 0.739800 -0.671300
vn 0.077600 0.721800 -0.687700
vn -0.677600 0.341100 -0.651500
vn -0.681700 0.348600 -0.643200
vn -0.666900 0.321800 -0.672000
vn -0.931900 -0.265000 0.247600
vn 0.433600 -0.891600 -0.130800
vn -0.869000 0.233400 -0.436300
vn -0.894700 0.216400 -0.390800
vn -0.850500 0.328300 -0.411000
vn 0.195800 0.967100 -0.162500
vn 0.218700 0.972900 -0.074300
vn 0.294700 0.951000 -0.094000
vn -0.243500 -0.021500 0.969700
vn -0.234500 -0.022900 0.971800
vn -0.249000 -0.037600 0.967800
vn 0.248200 -0.823100 0.510700
vn 0.292900 -0.806200 0.514100
vn 0.231600 -0.798300 0.555900
vn 0.516800 0.786800 0.337500
vn 0.574300 0.769300 0.280000
vn 0.504600 0.843100 0.185900
vn 0.803800 0.508200 -0.309300
vn 0.784500 0.544600 -0.296500
vn 0.804300 0.525200 -0.278100
vn 0.134800 -0.085200 0.987200
vn 0.232000 -0.048000 0.971500
vn 0.094100 -0.037300 0.994900
vn -0.589600 0.678700 0.438000
vn -0.535000 0.735600 0.415600
vn -0.750700 0.570200 0.333700
vn -0.568100 0.819500 -0.075700
vn -0.567800 0.819600 -0.076300
vn -0.570300 0.818300 -0.071700
vn -0.962700 -0.259000 -0.078400
vn 0.164800 -0.020100 -0.986100
vn 0.038400 -0.030200 -0.998800
vn 0.089800 -0.019800 -0.995800
vn 0.889500 -0.260400 -0.375400
vn 0.889100 -0.243300 -0.387700
vn 0.892900 -0.225800 -0.389500
vn -0.570600 0.781100 0.253700
vn -0.555700 0.791900 0.253100
vn -0.517800 0.834300 0.189600
vn -0.788200 -0.443800 -0.426400
vn -0.772800 -0.448300 -0.449200
vn -0.714300 -0.461500 -0.526100
vn 0.088400 -0.698500 0.710200
vn -0.134000 -0.541500 0.830000
vn -0.933800 -0.033100 -0.356300
vn -0.929100 -0.011100 -0.369600
vn -0.933900 -0.025000 -0.356800
vn 0.690400 -0.089600 0.717900
vn 0.684800 -0.091100 0.723000
vn 0.704600 -0.085600 0.704400
vn 0.044400 -0.963400 -0.264400
vn 0.044100 -0.963300 -0.264800
vn 0.057500 -0.967300 -0.247100
vn 0.090500 -0.990200 0.106800
vn 0.136300 -0.975100 0.175100
vn 0.139200 -0.944800 0.296500
vn 0.378900 -0.043200 0.924400
vn 0.425400 -0.010700 0.905000
vn 0.953500 0.258200 -0.155400
vn 0.971500 0.235600 -0.025700
vn 0.953700 0.181800 -0.239800
vn -0.679900 -0.038100 -0.732300
vn -0.642400 -0.096400 -0.760300
vn -0.759300 -0.034700 -0.649800
vn 0.765400 -0.337100 0.548200
vn 0.759800 -0.331700 0.559200
vn 0.772700 -0.344400 0.533200
vn 0.332800 -0.434900 -0.836700
vn 0.387800 -0.470800 -0.792400
vn 0.421400 -0.492100 -0.761700
vn 0.481300 -0.704500 0.521500
vn 0.425800 -0.748600 0.508200
vn 0.552600 -0.666400 0.500600
vn 0.990400 -0.130500 -0.045800
vn 0.985900 -0.109500 -0.126300
vn 0.991500 -0.123100 -0.043300
vn -0.192400 0.980700 0.034200
vn -0.187500 0.982300 -0.003900
vn -0.204700 0.977300 -0.054100
vn 0.314700 0.488500 -0.813900
vn 0.379900 0.483100 -0.788900
vn 0.261600 0.471500 -0.842200
vn 0.736800 -0.658700 0.152600
vn 0.776400 -0.610700 0.155800
vn 0.883000 -0.468500 0.030000
vn -0.167500 0.920100 0.354000
vn -0.240900 0.927200 0.286800
vn -0.187900 0.884700 0.426600
vn 0.554800 0.379400 0.740500
vn 0.546400 0.386600 0.743000
vn 0.538600 0.393200 0.745200
vn -0.888000 0.165600 0.428900
vn -0.859900 0.253600 0.443000
vn -0.894900 0.174400 0.410700
vn 0.580900 0.645500 0.495900
vn 0.495500 0.643800 0.583100
vn -0.554400 -0.321400 0.767700
vn -0.581200 -0.262600 0.770200
vn -0.536300 -0.357800 0.764400
vn -0.200100 0.590300 -0.782000
vn -0.132200 0.560600 -0.817400
vn -0.229200 0.603600 -0.763600
vn 0.723800 0.690000 0.008000
vn 0.722200 0.691700 0.007900
vn 0.742200 0.670100 0.008400
vn 0.748400 0.308600 0.587100
vn 0.639200 0.495800 0.587900
vn 0.759800 0.234800 0.606300
vn 0.029600 0.978400 0.204400
vn 0.082800 0.969600 0.230100
vn 0.124900 0.964700 0.231600
vn 0.364500 -0.827300 -0.427400
vn 0.366300 -0.823200 -0.433800
vn 0.333300 -0.854100 -0.399400
vn 0.879000 0.430800 0.204400
vn 0.882900 0.428700 0.191700
vn 0.880500 0.420000 0.220000
vn -0.363600 -0.921900 0.134100
vn -0.292200 -0.952900 0.081400
vn -0.264800 -0.962400 0.061400
vn -0.671200 0.183600 0.718200
vn -0.685900 0.177900 0.705600
vn -0.619100 0.202500 0.758700
vn -0.358300 -0.793700 0.491500
vn -0.235800 -0.826200 0.511600
vn -0.238800 -0.797900 0.553500
vn -0.795900 -0.150000 0.586600
vn -0.767800 -0.117400 0.629800
vn -0.802900 -0.153900 0.576000
vn 0.102300 0.924600 -0.366800
vn 0.204900 0.947900 -0.243900
vn -0.573900 0.669600 -0.471500
vn -0.547700 0.690400 -0.472600
vn -0.550500 0.655300 -0.517300
vn 0.126100 -0.658900 -0.741600
vn 0.127300 -0.658200 -0.742000
vn 0.157100 -0.660900 -0.733900
vn -0.167700 0.809500 -0.562700
vn -0.164900 0.818300 -0.550700
vn -0.148500 0.794200 -0.589200
vn 0.703400 -0.460400 -0.541600
vn 0.710700 -0.465800 -0.527200
vn 0.724300 -0.475800 -0.499000
vn 0.401900 0.732700 -0.549300
vn 0.381900 0.749300 -0.541100
vn 0.350700 0.782400 -0.514700
vn -0.451700 0.152100 0.879100
vn -0.400300 0.233400 0.886200
vn -0.453800 0.157900 0.877000
vn -0.745000 0.547800 0.380700
vn -0.878900 0.408000 0.247100
vn -0.887900 0.394800 0.236200
vn -0.528600 0.434700 0.729200
vn -0.596300 0.460500 0.657500
vn -0.552500 0.442000 0.706600
vn 0.535600 0.452900 -0.712800
vn 0.556100 0.505700 -0.659500
vn 0.648000 0.308400 -0.696500
vn 0.644900 -0.711800 -0.278400
vn 0.652600 -0.698000 -0.294700
vn 0.606000 -0.741600 -0.287700
vn 0.309600 0.030700 -0.950400
vn 0.465000 0.097400 -0.879900
vn 0.259300 0.015500 -0.965700
vn -0.503900 -0.162700 -0.848300
vn -0.451600 -0.255900 -0.854800
vn -0.086400 0.521900 0.848600
vn -0.065400 0.526700 0.847500
vn -0.114400 0.515100 0.849500
vn 0.675600 -0.704700 0.216800
vn 0.654000 -0.720600 0.230100
vn 0.919600 0.061600 -0.387900
vn 0.924100 0.162800 -0.345700
vn -0.411600 0.259800 -0.873500
vn -0.471900 0.246600 -0.846500
vn -0.378100 0.273000 -0.884600
vn 0.228200 0.400500 0.887400
vn 0.245300 0.371100 0.895600
vn 0.217000 0.474700 0.853000
vn -0.077900 -0.466900 -0.880900
vn -0.079500 -0.469400 -0.879400
vn -0.077700 -0.466800 -0.880900
vn 0.124200 0.775700 0.618800
vn 0.172200 0.792600 0.584900
vn 0.214800 0.820000 0.530600
vn 0.529500 0.799700 -0.283000
vn 0.530900 0.796400 -0.289600
vn 0.526200 0.806700 -0.268900
vn 0.107400 -0.994200 -0.000500
vn 0.110100 -0.992500 0.053700
vn -0.327400 -0.814200 -0.479400
vn -0.361400 -0.804400 -0.471600
vn -0.385400 -0.802100 -0.456200
vn -0.630000 -0.757200 -0.172200
vn -0.649400 -0.746400 -0.145700
vn -0.621800 -0.758100 -0.196700
vn -0.637400 -0.754400 0.157000
vn -0.633600 -0.766600 0.104100
vn -0.616100 -0.766600 0.181100
vn -0.984700 0.157700 -0.073700
vn -0.984400 0.159800 -0.073400
vn -0.996500 0.083300 0.011800
vn -0.312300 0.924200 -0.219900
vn -0.312400 0.926100 -0.211400
vn -0.270400 0.935600 -0.226800
vn -0.834900 0.524900 -0.165600
vn -0.841600 0.534700 -0.077000
vn -0.819000 0.572500 -0.038600
vn -0.157400 0.236000 0.958900
vn -0.121300 0.218900 0.968200
vn -0.129600 0.227100 0.965200
vn 0.963800 0.050700 0.261900
vn 0.943100 0.013600 0.332300
vn 0.962600 -0.047400 0.266900
vn -0.255500 0.653600 0.712400
vn -0.318200 0.616200 0.720400
vn -0.325400 0.600600 0.730300
vn -0.062800 0.322800 -0.944400
vn -0.051400 0.349400 -0.935600
vn -0.080000 0.282000 -0.956100
vn 0.708600 0.075000 -0.701600
vn 0.618800 0.277700 -0.734800
vn 0.715600 0.094500 -0.692100
vn 0.099900 0.713800 -0.693100
vn 0.098900 0.725000 -0.681600
vn -0.688900 0.362300 -0.627900
vn -0.808700 0.473900 -0.348500
vn -0.800100 0.446400 -0.400700
vn -0.803100 0.376300 -0.462000
vn -0.889800 0.184700 -0.417300
vn -0.917700 0.249600 -0.309100
vn 0.351700 0.931100 -0.096600
vn -0.222200 -0.038700 0.974200
vn -0.213500 0.000500 0.977000
vn 0.449400 0.874000 0.185000
vn 0.417500 0.882800 0.215300
vn 0.814500 0.551100 -0.181300
vn 0.759000 0.561500 -0.329500
vn 0.696900 0.622300 -0.356500
vn 0.133500 -0.058700 0.989300
vn 0.263800 -0.097000 0.959700
vn 0.080500 0.045100 0.995700
vn -0.487800 0.737300 0.467400
vn -0.674100 0.534000 0.510300
vn -0.564700 0.821200 -0.081800
vn -0.077600 -0.016000 -0.996900
vn -0.049900 -0.024000 -0.998500
vn -0.048700 -0.020800 -0.998600
vn 0.896700 -0.220600 -0.383800
vn 0.891100 -0.276000 -0.360300
vn -0.383500 0.918100 0.100000
vn -0.509400 0.847700 0.147900
vn -0.666000 0.709400 0.230500
vn -0.606600 0.748700 0.267500
vn -0.836600 -0.425400 -0.345100
vn -0.933000 -0.042800 -0.357400
vn -0.924400 -0.047700 -0.378400
vn 0.665500 -0.096300 0.740100
vn 0.022400 -0.955800 -0.293300
vn 0.455400 -0.006300 0.890300
vn 0.971400 0.236400 -0.022700
vn -0.770200 -0.050100 -0.635900
vn -0.750000 -0.035900 -0.660400
vn 0.753300 -0.325400 0.571500
vn 0.294800 -0.409300 -0.863500
vn 0.990400 -0.138300 -0.006000
vn 0.988800 -0.148600 0.011700
vn -0.191800 0.970100 0.148500
vn -0.164500 0.978100 0.127800
vn -0.218400 0.973500 -0.068100
vn 0.202400 0.443900 -0.872900
vn 0.238000 0.476800 -0.846200
vn -0.268200 0.794500 0.544800
vn -0.184100 0.856700 0.481800
vn -0.117600 0.901300 0.416800
vn 0.563700 0.371500 0.737700
vn -0.911100 0.005200 0.412200
vn -0.892900 -0.061700 0.446000
vn -0.812000 0.231400 0.535800
vn -0.837300 0.247100 0.487800
vn 0.500700 0.625900 0.598000
vn 0.581800 0.728100 0.362400
vn -0.598900 -0.219700 0.770100
vn -0.255000 0.615800 -0.745500
vn -0.257300 0.614800 -0.745600
vn 0.704400 0.709800 0.007600
vn 0.785400 0.187500 0.589900
vn 0.710900 0.473700 0.519800
vn 0.183200 0.941100 0.284300
vn -0.020200 0.976100 0.216300
vn 0.320600 -0.850500 -0.416900
vn 0.328000 -0.862700 -0.385000
vn 0.447200 -0.713300 -0.539700
vn 0.880300 0.425100 0.210400
vn 0.901100 0.410400 0.139800
vn 0.859100 0.471300 0.199400
vn -0.394200 -0.905500 0.157000
vn -0.734100 0.157800 0.660500
vn -0.131100 -0.796500 0.590300
vn -0.106400 -0.762200 0.638500
vn -0.427800 -0.746600 0.509500
vn -0.475800 -0.738100 0.478300
vn -0.283600 -0.858900 0.426400
vn -0.826900 -0.175300 0.534400
vn -0.822100 -0.176100 0.541400
vn 0.085400 0.885200 -0.457300
vn 0.046900 0.870400 -0.490100
vn -0.542100 0.637800 -0.547100
vn -0.522800 0.683800 -0.509000
vn -0.615200 0.681900 -0.395700
vn -0.459000 0.759500 -0.460800
vn 0.158600 -0.660000 -0.734300
vn 0.060000 -0.649700 -0.757800
vn -0.197600 0.833700 -0.515600
vn -0.144200 0.773700 -0.616900
vn 0.691400 -0.451700 -0.563800
vn 0.322300 0.788700 -0.523500
vn 0.442500 0.635500 -0.632800
vn -0.501500 0.100200 0.859300
vn -0.493000 0.101900 0.864100
vn -0.889000 0.395600 0.230600
vn -0.514600 0.431500 0.741000
vn -0.511400 0.433300 0.742100
vn 0.479300 0.426000 -0.767300
vn 0.617900 -0.745300 -0.250300
vn 0.743700 -0.619000 -0.252600
vn -0.473300 -0.267000 -0.839500
vn -0.019000 0.536500 0.843700
vn 0.660700 -0.707600 0.250700
vn 0.661200 -0.666300 0.344900
vn 0.926500 0.031700 -0.375000
vn -0.327200 0.299700 -0.896200
vn -0.338400 0.284200 -0.897100
vn 0.195100 0.566700 0.800500
vn 0.189500 0.498700 0.845800
vn 0.237800 0.347000 0.907200
vn 0.237300 0.352300 0.905300
vn -0.080100 -0.470300 -0.878900
vn 0.155300 0.832700 0.531400
vn 0.057900 0.698100 0.713600
vn 0.092200 0.711300 0.696800
vn 0.299600 0.800500 0.519000
vn 0.533400 0.790700 -0.300500
vn 0.036800 -0.999100 0.022200
vn -0.046200 -0.998800 0.016200
vn 0.021800 -0.999600 0.018900
vn 0.226600 -0.971200 -0.073400
vn -0.325500 -0.819500 -0.471700
vn -0.302200 -0.826700 -0.474700
vn -0.455000 -0.782200 -0.425700
vn -0.603700 -0.769200 -0.209300
vn -0.669800 -0.737000 -0.090300
vn -0.574900 -0.781000 0.243900
vn -0.615800 -0.762000 0.200600
vn -0.989900 -0.001100 0.141500
vn -0.996500 0.017000 0.081400
vn -0.964200 0.224900 -0.140600
vn -0.995900 0.089600 -0.007800
vn -0.252100 0.934800 -0.250300
vn -0.368300 0.905000 -0.212600
vn -0.824600 0.563300 0.052800
vn -0.800000 0.582800 -0.142800
vn -0.767000 0.587300 -0.258500
vn -0.892100 0.414500 -0.180100
vn -0.892100 0.414200 -0.180700
vn -0.063500 0.210600 0.975500
vn -0.164200 0.246900 0.955000
vn 0.988100 -0.025100 0.151700
vn 0.909900 0.172100 0.377400
vn 0.916800 -0.202900 0.344000
vn -0.392600 0.578300 0.715200
vn -0.238000 0.688900 0.684700
vn -0.035600 0.385600 -0.922000
vn 0.720900 0.131000 -0.680500
vn 0.705700 -0.001200 -0.708500
vn 0.705100 0.049300 -0.707400
usemtl None.022
s 1
f 1//1 2//2 3//3
f 4//4 5//5 6//6
f 7//7 8//7 9//7
f 10//8 11//8 12//8
f 4//9 13//10 14//11
f 15//12 16//13 17//14
f 18//15 19//16 20//17
f 21//18 22//19 23//20
f 24//21 25//22 26//23
f 27//24 28//25 29//26
f 30//27 31//28 32//29
f 33//30 34//31 35//32
f 36//33 37//34 38//35
f 8//36 39//36 40//36
f 41//37 42//38 43//39
f 44//40 45//41 46//42
f 38//43 34//44 47//45
f 48//46 49//47 50//48
f 30//49 21//49 23//49
f 18//50 20//50 30//50
f 13//51 51//52 49//53
f 52//54 53//55 54//56
f 55//57 56//58 57//59
f 58//60 59//61 21//62
f 31//28 22//63 60//64
f 29//65 61//66 62//67
f 6//68 50//69 51//70
f 54//71 63//72 64//73
f 65//74 66//75 41//76
f 53//77 59//78 63//79
f 67//80 44//81 62//82
f 68//83 16//84 15//85
f 69//86 70//87 71//88
f 72//89 10//90 67//91
f 73//92 47//93 34//94
f 60//95 74//96 75//97
f 76//98 77//99 78//100
f 79//101 24//21 80//102
f 81//103 82//104 20//105
f 1//106 83//107 84//108
f 28//109 25//110 85//111
f 86//112 74//113 52//114
f 16//115 87//116 17//117
f 66//118 88//119 57//120
f 89//121 85//122 86//123
f 90//124 91//125 92//126
f 93//127 94//128 95//129
f 96//130 58//131 20//132
f 82//133 94//134 76//135
f 97//136 15//12 98//137
f 99//138 100//139 101//140
f 41//141 56//142 42//143
f 102//144 97//145 2//146
f 88//147 103//148 45//149
f 104//150 69//151 98//152
f 19//153 105//154 95//155
f 77//156 106//157 78//158
f 33//159 107//160 93//161
f 70//162 104//163 108//164
f 45//165 10//166 12//167
f 71//168 109//169 65//170
f 110//171 111//172 50//69
f 112//173 113//174 105//175
f 72//89 64//176 11//177
f 46//178 27//179 62//67
f 110//180 6//181 5//182
f 112//183 60//184 75//185
f 114//186 115//187 42//188
f 116//189 80//190 117//191
f 28//192 98//193 26//194
f 57//195 11//196 58//60
f 55//197 92//198 50//199
f 91//200 40//201 48//202
f 96//203 118//204 9//205
f 119//206 13//207 78//208
f 120//209 36//210 15//211
f 121//212 119//213 38//214
f 19//215 32//216 112//217
f 89//218 54//219 72//220
f 113//221 122//222 105//223
f 84//224 43//225 123//226
f 103//227 109//228 46//229
f 3//3 69//230 1//1
f 83//231 1//1 69//230
f 4//4 101//232 5//5
f 121//233 99//234 14//11
f 101//235 4//9 14//11
f 51//236 13//10 4//9
f 14//11 99//234 101//235
f 13//10 124//237 14//11
f 17//14 26//238 98//137
f 98//137 15//12 17//14
f 81//239 20//17 19//16
f 18//15 32//240 19//16
f 21//18 59//78 22//19
f 26//23 17//241 24//21
f 117//242 24//21 17//241
f 85//243 29//26 28//25
f 27//24 108//244 28//25
f 104//245 28//25 108//244
f 32//29 18//246 30//27
f 30//27 23//247 31//28
f 31//28 125//248 32//29
f 35//32 77//156 33//30
f 33//30 122//249 34//31
f 77//156 107//250 33//30
f 36//33 100//251 37//34
f 110//252 123//253 115//254
f 43//39 71//168 41//37
f 65//170 41//37 71//168
f 42//38 115//254 123//253
f 123//253 43//39 42//38
f 103//255 46//42 45//41
f 44//40 67//256 45//41
f 68//257 36//258 47//45
f 38//43 106//259 35//260
f 35//260 34//44 38//43
f 47//45 36//258 38//43
f 48//46 40//261 49//47
f 49//53 40//262 13//51
f 39//263 13//51 40//262
f 52//54 22//264 53//55
f 55//57 114//265 56//58
f 52//266 60//64 22//63
f 31//28 23//247 22//63
f 29//65 89//267 61//66
f 49//268 51//70 50//69
f 4//269 6//68 51//70
f 110//171 50//69 6//68
f 54//71 53//270 63//72
f 65//74 126//271 66//75
f 53//77 22//19 59//78
f 62//82 61//272 67//80
f 72//273 67//80 61//272
f 68//83 47//274 73//275
f 73//275 16//84 68//83
f 15//85 36//276 68//83
f 71//88 43//277 83//278
f 83//278 69//86 71//88
f 122//279 116//280 34//94
f 87//281 73//92 34//94
f 34//94 116//280 87//281
f 60//95 52//282 74//96
f 7//283 9//284 76//98
f 76//98 93//285 107//286
f 107//286 77//99 76//98
f 78//100 7//283 76//98
f 80//102 75//287 79//101
f 79//101 127//288 25//22
f 75//287 74//113 79//101
f 25//22 24//21 79//101
f 81//103 94//289 82//104
f 84//108 5//290 102//291
f 102//291 1//106 84//108
f 28//109 26//292 25//110
f 52//114 54//293 86//112
f 86//112 127//294 74//113
f 79//101 74//113 127//294
f 117//295 17//117 87//116
f 16//115 73//296 87//116
f 12//297 57//120 88//119
f 56//298 66//118 57//120
f 126//299 88//119 66//118
f 127//300 86//123 85//122
f 89//121 29//301 85//122
f 85//122 25//302 127//300
f 90//124 96//303 91//125
f 93//127 76//304 94//128
f 21//305 30//306 20//132
f 20//132 82//307 96//130
f 118//308 96//130 82//307
f 90//309 58//131 96//130
f 21//305 20//132 58//131
f 76//135 9//310 118//311
f 118//311 82//133 76//135
f 98//137 3//312 97//136
f 2//313 97//136 3//312
f 5//314 101//140 102//315
f 99//138 37//316 100//139
f 100//139 120//317 102//315
f 102//315 101//140 100//139
f 114//318 42//143 56//142
f 41//141 66//319 56//142
f 97//145 102//144 120//320
f 1//321 102//144 2//146
f 88//147 126//322 103//148
f 3//323 98//152 69//151
f 104//150 70//324 69//151
f 95//155 94//325 81//326
f 81//326 19//153 95//155
f 119//327 78//158 106//157
f 77//156 35//32 106//157
f 93//161 95//328 33//159
f 105//329 33//159 95//328
f 108//164 109//228 70//162
f 71//330 70//162 109//228
f 12//167 88//331 45//165
f 45//165 67//332 10//166
f 110//171 115//333 111//172
f 112//173 128//334 113//174
f 59//335 11//177 64//176
f 10//90 72//89 11//177
f 64//176 63//336 59//335
f 29//65 62//67 27//179
f 44//337 46//178 62//67
f 5//182 84//338 123//339
f 123//339 110//180 5//182
f 80//340 128//341 75//185
f 112//183 125//342 60//184
f 31//343 60//184 125//342
f 75//185 128//341 112//183
f 114//186 111//344 115//187
f 117//191 87//345 116//189
f 116//189 113//346 128//347
f 128//347 80//190 116//189
f 24//348 117//191 80//190
f 28//192 104//349 98//193
f 59//61 58//60 11//196
f 90//350 92//351 55//352
f 55//352 58//60 90//350
f 12//353 11//196 57//195
f 58//60 55//352 57//195
f 50//199 111//354 55//197
f 114//355 55//197 111//354
f 92//198 48//356 50//199
f 48//202 92//357 91//200
f 91//200 8//358 40//201
f 9//205 8//359 91//360
f 91//360 96//203 9//205
f 7//361 78//208 8//362
f 119//206 124//363 13//207
f 13//207 39//364 78//208
f 8//362 78//208 39//364
f 15//211 97//365 120//209
f 120//209 100//366 36//210
f 106//367 38//214 119//213
f 37//368 99//369 121//212
f 121//212 14//370 124//371
f 124//371 119//213 121//212
f 38//214 37//368 121//212
f 125//372 112//217 32//216
f 105//373 19//215 112//217
f 72//220 61//374 89//218
f 89//218 86//375 54//219
f 54//219 64//376 72//220
f 33//377 105//223 122//222
f 113//221 116//378 122//222
f 84//224 83//379 43//225
f 27//380 46//229 109//228
f 103//227 126//381 65//382
f 65//382 109//228 103//227
f 108//164 27//380 109//228
