# Blender v2.77 (sub 0) OBJ File: ''
# www.blender.org
mtllib RH_HAA_08_com_constraints.mtl
o foo.022
v -0.715590 -0.235867 -0.055689
v -0.721772 -0.157848 0.219367
v -0.761534 0.007634 0.111815
v -0.068904 -0.321173 -0.581223
v -0.449378 -0.360337 -0.236467
v -0.523840 -0.191636 -0.508467
v 0.750162 0.163254 0.061503
v 0.724798 0.241294 -0.130372
v 0.677503 0.370565 -0.052601
v 0.510195 0.175190 0.551544
v 0.628257 -0.096391 0.438670
v 0.585478 0.246938 0.444662
v 0.148874 -0.389193 0.426457
v 0.163759 -0.191343 0.721416
v -0.133405 -0.229833 0.718277
v -0.135935 0.280516 0.711475
v -0.131700 0.577470 0.492601
v -0.409620 0.374415 0.546416
v -0.191273 -0.212928 -0.713658
v -0.355826 -0.139370 -0.675624
v -0.222487 0.716755 -0.196048
v -0.264273 0.577918 -0.436326
v -0.458847 0.556504 -0.278890
v -0.364173 -0.314568 0.500830
v 0.723914 -0.179354 -0.148550
v 0.578946 -0.288404 0.203274
v 0.396510 -0.409248 0.017888
v 0.302362 0.687616 0.206342
v 0.456948 0.502978 0.372631
v 0.488474 0.600687 0.057147
v 0.726140 -0.117388 0.230629
v 0.696105 -0.169292 0.269034
v 0.127098 -0.421446 -0.300018
v 0.201295 0.056242 0.748938
v -0.052626 -0.046730 0.773034
v 0.492915 -0.156309 0.553829
v 0.493903 -0.058972 0.600182
v 0.373814 -0.077976 0.680487
v -0.646449 0.367266 -0.214612
v -0.580917 0.510030 0.056995
v -0.545248 0.491609 -0.246381
v 0.433555 0.364898 -0.535323
v 0.018215 0.466278 -0.625062
v 0.228313 0.624550 -0.404931
v -0.250522 0.497650 -0.534068
v -0.039739 0.656224 -0.408872
v 0.349506 -0.135169 -0.664346
v 0.305455 0.141145 -0.697374
v 0.584229 0.021732 -0.504293
v -0.329372 -0.142659 0.674254
v -0.454471 0.012783 0.635922
v -0.544290 -0.173198 0.519518
v 0.393338 0.281647 0.615518
v -0.005620 -0.211708 -0.731254
v -0.506458 0.368428 -0.451892
v 0.272938 0.709926 -0.147041
v 0.179137 0.742789 -0.134768
v -0.077083 -0.187918 -0.738638
v -0.695482 -0.260468 -0.056937
v -0.542239 -0.315387 -0.248078
v -0.764368 0.080879 -0.130287
v -0.751592 0.134902 0.138812
v -0.380145 0.401839 -0.537731
v 0.137890 0.393746 0.656198
v 0.191018 0.271844 0.705214
v 0.676657 0.192648 -0.335445
v -0.651342 -0.059421 0.414747
v -0.609159 -0.188258 0.430154
v 0.388379 -0.264013 0.523754
v -0.591547 -0.225870 -0.403630
v -0.626045 -0.135936 -0.428894
v -0.565938 -0.351634 0.184050
v -0.507664 0.412658 0.414544
v -0.656750 0.260232 0.321588
v 0.588010 0.437582 -0.244836
v 0.534082 0.522594 -0.192493
v 0.670466 -0.059144 -0.371819
v -0.062834 0.316353 -0.704989
v 0.035418 0.206905 -0.733017
v -0.322938 0.126838 -0.687450
v -0.374919 0.627303 0.257597
v -0.299785 0.717178 0.079010
v 0.566318 -0.168354 -0.473136
v 0.036882 0.772263 0.027362
v -0.686214 -0.199292 0.260096
v -0.768714 -0.047091 -0.101523
v -0.704074 0.057282 -0.326370
v -0.680146 -0.175741 -0.303038
v -0.594008 0.100942 -0.492420
v -0.416659 0.199919 -0.617580
v -0.596868 0.217974 -0.445818
v -0.609922 0.108718 0.471667
v 0.361118 0.645094 -0.237954
v 0.303546 0.713459 -0.031062
v 0.601752 0.358426 -0.333081
v 0.657950 0.277786 0.301871
v -0.686162 0.192261 -0.310258
v 0.020326 0.272552 -0.717026
v 0.769040 -0.055372 0.004459
v 0.721426 -0.126579 -0.234821
v -0.324312 0.226416 0.667932
v -0.202807 -0.142632 0.733381
v -0.029834 0.092941 0.775282
v 0.437174 -0.186903 -0.574406
v 0.539570 -0.114567 -0.529672
v 0.036404 0.724273 0.273494
v 0.281023 0.619343 0.378901
v 0.032354 0.649438 0.414995
v 0.023770 0.468803 0.616761
v 0.732633 -0.146914 -0.174967
v -0.697634 0.341314 0.025924
v -0.732058 -0.185774 -0.125586
v 0.642395 0.425464 0.078332
v 0.673518 0.298510 0.231182
v 0.056346 0.660392 -0.409522
v 0.406578 0.296219 -0.595055
v -0.735899 0.185759 0.161927
v -0.023306 0.759747 0.160298
vn -0.968800 -0.240500 0.060000
vn -0.972000 -0.093300 0.215700
vn -0.986200 -0.049300 0.157800
vn -0.310100 -0.851000 -0.423900
vn -0.320700 -0.848100 -0.421800
vn -0.298100 -0.847800 -0.438600
vn 0.929700 0.360400 0.075600
vn 0.941500 0.336900 0.012600
vn 0.868000 0.496500 -0.008600
vn 0.782500 0.083700 0.617000
vn 0.778900 0.080100 0.622000
vn 0.785900 0.087200 0.612100
vn 0.162400 -0.823200 0.544000
vn 0.142300 -0.825300 0.546400
vn 0.101500 -0.828500 0.550600
vn -0.271600 0.551200 0.788900
vn -0.315400 0.637500 0.702900
vn -0.368300 0.630800 0.682900
vn -0.432800 -0.639800 -0.635100
vn -0.427700 0.853500 -0.297600
vn -0.331000 0.840800 -0.428300
vn -0.538300 0.817400 -0.205200
vn -0.069600 -0.902300 0.425400
vn 0.618600 -0.785600 0.011400
vn 0.531900 -0.838400 0.119300
vn 0.451900 -0.882500 0.130600
vn 0.541700 0.802000 0.251900
vn 0.649500 0.691200 0.317000
vn 0.608100 0.784800 0.119500
vn 0.881100 -0.189000 0.433600
vn -0.129400 -0.959100 -0.251800
vn 0.173100 -0.006600 0.984900
vn 0.126700 -0.081100 0.988600
vn 0.201300 -0.138300 0.969700
vn 0.651800 -0.525300 0.547000
vn 0.611800 -0.345100 0.711700
vn 0.557100 -0.361600 0.747500
vn -0.793500 0.596200 -0.122000
vn -0.799600 0.589100 -0.116700
vn -0.785000 0.605900 -0.129100
vn 0.304600 0.576800 -0.758000
vn 0.237900 0.535400 -0.810400
vn 0.247900 0.658900 -0.710300
vn -0.162000 0.735100 -0.658400
vn -0.182400 0.747100 -0.639200
vn -0.097700 0.739700 -0.665800
vn 0.570400 -0.015700 -0.821200
vn 0.440300 0.227700 -0.868500
vn 0.643600 0.114800 -0.756700
vn -0.544500 -0.240000 0.803700
vn 0.679600 0.460300 0.571300
vn 0.642800 0.426800 0.636200
vn 0.661500 0.317900 0.679300
vn 0.161200 -0.047400 -0.985800
vn 0.202000 -0.084400 -0.975700
vn 0.130700 -0.031800 -0.990900
vn -0.767100 0.462900 -0.444100
vn -0.748500 0.497000 -0.439100
vn -0.764500 0.462800 -0.448800
vn 0.296000 0.921000 -0.253300
vn 0.365200 0.827100 -0.427300
vn 0.161700 0.967700 -0.193200
vn -0.078300 -0.502500 -0.861000
vn -0.051900 -0.796200 -0.602800
vn -0.431700 -0.897200 -0.092700
vn -0.435800 -0.894500 -0.099800
vn -0.425800 -0.901000 -0.082500
vn -0.975600 0.197500 -0.096200
vn -0.980400 0.195900 0.022000
vn -0.499300 0.655100 -0.567000
vn -0.515100 0.649000 -0.559900
vn -0.578400 0.629900 -0.518300
vn 0.012900 0.413300 0.910500
vn 0.018500 0.376200 0.926400
vn 0.065200 0.313900 0.947200
vn 0.725400 0.277600 -0.629900
vn 0.873200 0.239300 -0.424600
vn -0.742300 -0.086600 0.664400
vn -0.780400 -0.184100 0.597500
vn -0.752900 -0.099800 0.650600
vn 0.610000 -0.632200 0.477800
vn 0.616200 -0.680300 0.396900
vn 0.554500 -0.698000 0.453200
vn -0.731400 -0.429400 -0.529800
vn -0.735400 -0.429400 -0.524300
vn -0.688800 -0.428500 -0.584800
vn -0.758400 -0.635900 0.143100
vn -0.764300 -0.634800 0.113900
vn -0.757400 -0.632300 0.162800
vn -0.619800 0.655500 0.431500
vn -0.760500 0.579700 0.292500
vn -0.811500 0.514100 0.277900
vn 0.786800 0.596600 -0.158300
vn 0.770400 0.628200 -0.108800
vn -0.405700 -0.539400 0.737900
vn -0.410400 -0.579900 0.703800
vn -0.411200 -0.604800 0.682000
vn 0.823100 -0.068500 -0.563800
vn 0.851700 0.054400 -0.521200
vn 0.827400 -0.187800 -0.529300
vn -0.127900 0.136700 -0.982300
vn -0.120700 0.112700 -0.986300
vn -0.170100 0.042100 -0.984500
vn -0.071300 -0.996400 0.046400
vn -0.069700 -0.995300 0.066800
vn -0.076600 -0.996700 0.025700
vn -0.560800 0.692700 0.453500
vn -0.597100 0.801600 -0.031400
vn -0.575700 0.817400 -0.018900
vn -0.009100 -0.282800 0.959100
vn -0.035700 -0.271900 0.961700
vn 0.028500 -0.297900 0.954200
vn 0.802400 -0.211100 -0.558200
vn -0.023000 0.965500 -0.259300
vn 0.126200 0.992000 0.007700
vn -0.926600 0.055700 0.371900
vn -0.924600 0.057800 0.376600
vn -0.329200 0.421700 -0.844900
vn -0.287100 0.482800 -0.827300
vn -0.280700 0.474800 -0.834100
vn -0.545500 -0.726900 0.417100
vn -0.649100 -0.681300 0.338300
vn -0.573200 -0.725500 0.381000
vn -0.945700 -0.116500 -0.303300
vn -0.931400 -0.107900 -0.347600
vn -0.920600 -0.145800 -0.362300
vn -0.646800 0.074700 -0.759000
vn -0.633000 -0.040200 -0.773100
vn -0.668400 -0.120000 -0.734100
vn 0.240700 -0.829100 -0.504600
vn 0.271900 -0.829600 -0.487700
vn 0.190700 -0.824700 -0.532400
vn -0.608700 0.367200 -0.703300
vn -0.518900 0.260300 -0.814200
vn -0.639900 0.308600 -0.703800
vn -0.709500 0.353300 0.609800
vn -0.669600 0.308300 0.675700
vn -0.658200 0.302200 0.689600
vn 0.412600 -0.567800 0.712300
vn 0.421600 -0.564700 0.709500
vn 0.438700 -0.558700 0.703900
vn 0.557400 0.819300 -0.133900
vn 0.521300 0.851900 -0.049800
vn 0.815300 0.391700 -0.426400
vn 0.856700 0.447700 -0.256100
vn 0.942600 0.244500 -0.227500
vn 0.920300 0.121400 0.371900
vn 0.941300 0.075400 0.329000
vn 0.958500 0.091300 0.270200
vn -0.839300 0.088200 -0.536400
vn -0.840200 0.075400 -0.537100
vn -0.839600 0.177000 -0.513500
vn 0.191000 0.273600 -0.942700
vn 0.195100 0.386800 -0.901300
vn -0.856400 -0.271800 0.438900
vn -0.872000 -0.248700 0.421600
vn -0.846800 -0.285300 0.449000
vn 0.983200 0.062500 -0.171500
vn 0.968600 0.032000 -0.246500
vn -0.309100 0.078100 0.947800
vn -0.361000 0.038900 0.931700
vn -0.295900 0.083500 0.951600
vn 0.574000 -0.356800 -0.737000
vn 0.590200 -0.402900 -0.699500
vn 0.596300 -0.421600 -0.683200
vn -0.165800 0.985700 -0.029700
vn -0.163100 0.986500 -0.011200
vn -0.168600 0.984500 -0.048900
vn 0.249500 0.967900 0.029800
vn 0.210900 0.966800 0.144400
vn -0.210200 0.879100 0.427800
vn -0.212500 0.883500 0.417600
vn -0.232200 0.892200 0.387300
vn 0.196400 0.718500 0.667200
vn 0.111700 0.738000 0.665500
vn 0.150700 0.721500 0.675900
vn 0.191100 0.880800 0.433200
vn 0.204600 0.888800 0.410000
vn 0.220200 0.897400 0.382300
vn 0.765200 -0.539100 -0.351900
vn 0.738400 -0.565600 -0.367300
vn 0.819900 -0.477500 -0.315700
vn 0.942500 -0.334100 -0.010200
vn 0.955100 -0.292800 -0.044400
vn 0.916200 -0.397300 0.051700
vn 0.431900 0.157700 0.888000
vn 0.504100 0.131800 0.853600
vn 0.480000 0.148300 0.864700
vn -0.952000 0.295900 -0.078100
vn -0.673000 -0.677200 -0.297500
vn -0.648500 -0.728000 -0.222400
vn -0.655200 -0.712900 -0.249900
vn 0.572300 0.660400 -0.486200
vn 0.454900 0.777300 -0.434500
vn 0.585600 0.657400 -0.474100
vn 0.364300 0.560100 0.744000
vn 0.337600 0.474100 0.813200
vn 0.381900 0.579800 0.719700
vn 0.385000 -0.873000 -0.299500
vn 0.375500 -0.870100 -0.319400
vn 0.408200 -0.864900 -0.292000
vn 0.349300 -0.898000 0.267600
vn 0.353700 -0.893000 0.278300
vn -0.990400 -0.125000 0.058500
vn -0.964300 -0.261800 0.039600
vn -0.285800 -0.850700 -0.441200
vn -0.309900 -0.856200 -0.413400
vn -0.365600 -0.852100 -0.374500
vn 0.854500 0.519200 0.019800
vn 0.920900 0.370800 0.120400
vn 0.775200 0.076300 0.627100
vn 0.208700 -0.817000 0.537500
vn -0.326200 0.480400 0.814100
vn -0.220000 0.580800 0.783800
vn -0.243700 0.857500 -0.453100
vn 0.693700 -0.717400 0.063500
vn 0.730700 0.613900 0.298700
vn 0.521900 0.769100 0.368800
vn 0.753100 0.567800 0.332300
vn 0.752900 0.571000 0.327400
vn 0.264600 -0.146100 0.953200
vn 0.087900 0.153800 0.984200
vn -0.807900 0.579100 -0.109400
vn 0.167600 0.717600 -0.676000
vn 0.502900 0.356200 -0.787600
vn -0.036900 0.745800 -0.665100
vn -0.118600 0.730000 -0.673100
vn 0.580500 -0.038800 -0.813300
vn 0.725200 0.497900 0.475600
vn 0.668400 0.492400 0.557500
vn 0.098200 -0.013800 -0.995100
vn 0.123700 -0.016300 -0.992200
vn -0.780000 0.436000 -0.448800
vn -0.792100 0.421200 -0.441800
vn 0.048900 0.950500 -0.306900
vn -0.437500 -0.893300 -0.102800
vn -0.634900 0.603900 -0.481800
vn -0.561600 0.632700 -0.533300
vn -0.464400 0.651300 -0.600200
vn -0.008400 0.455100 0.890400
vn -0.742100 -0.059500 0.667600
vn -0.735500 -0.056600 0.675100
vn 0.463400 -0.731700 0.499800
vn -0.773300 -0.428000 -0.467800
vn -0.760100 -0.629500 0.161500
vn -0.775600 -0.630200 0.035800
vn -0.875000 0.422300 0.236800
vn -0.835000 0.490200 0.249900
vn 0.753600 0.653900 -0.066900
vn -0.405600 -0.607100 0.683200
vn -0.379400 -0.442700 0.812400
vn -0.231400 -0.014600 -0.972800
vn -0.218200 -0.009300 -0.975900
vn -0.018200 0.232700 -0.972400
vn -0.178200 0.020800 -0.983800
vn -0.072700 -0.995500 0.060000
vn -0.007400 -0.999000 0.044600
vn -0.114800 -0.975600 0.187200
vn -0.594200 0.790600 0.147900
vn -0.624700 0.771500 -0.120300
vn -0.098100 -0.245200 0.964500
vn 0.814300 -0.340200 -0.470300
vn 0.820300 -0.166900 -0.547000
vn -0.028400 0.959500 -0.280300
vn -0.910200 0.100400 0.401800
vn -0.918400 0.096300 0.383800
vn -0.911900 0.100600 0.398000
vn -0.475500 0.212300 -0.853700
vn -0.210800 0.546200 -0.810700
vn -0.508600 -0.742900 0.435300
vn -0.507100 -0.710600 0.487800
vn -0.937600 -0.198300 -0.285500
vn -0.956400 -0.032700 -0.290200
vn -0.894200 -0.134600 -0.426900
vn -0.648300 -0.114200 -0.752800
vn 0.270900 -0.828500 -0.490200
vn 0.107900 -0.812700 -0.572700
vn -0.586100 0.387400 -0.711600
vn -0.617300 0.259500 0.742700
vn -0.728400 0.355200 0.585900
vn -0.618000 0.265600 0.740000
vn 0.386600 -0.576300 0.720000
vn 0.596400 0.790700 -0.138400
vn 0.478500 0.864800 -0.152600
vn 0.856500 0.457300 -0.239300
vn 0.980200 0.033700 0.195200
vn 0.878100 0.101300 0.467600
vn 0.898800 0.085800 0.429800
vn 0.942900 0.200200 0.266300
vn -0.836400 0.185000 -0.515900
vn -0.828300 -0.037900 -0.559000
vn 0.095200 0.427700 -0.898900
vn -0.878700 -0.238200 0.413600
vn 0.941000 0.025600 -0.337400
vn 0.990300 0.108200 -0.086900
vn 0.981600 -0.018100 -0.189900
vn -0.268200 0.170800 0.948100
vn -0.269900 0.020200 0.962700
vn -0.376500 0.021000 0.926200
vn -0.272400 0.029000 0.961700
vn 0.567900 -0.340400 -0.749400
vn -0.158300 0.987200 0.021300
vn 0.189500 0.963700 0.188300
vn 0.214400 0.958600 0.187300
vn -0.242800 0.903700 0.352600
vn -0.229700 0.893400 0.386100
vn -0.166900 0.873600 0.457200
vn -0.011500 0.745200 0.666700
vn 0.222700 0.696800 0.681800
vn 0.172500 0.868700 0.464400
vn 0.728000 -0.575300 -0.372900
vn 0.890200 -0.450400 0.068400
vn 0.885000 -0.460300 0.070000
vn 0.552800 0.122100 0.824300
vn 0.388900 0.200900 0.899100
vn 0.535800 0.135800 0.833400
vn -0.937700 0.161200 -0.307700
vn -0.934200 0.258500 -0.246000
vn -0.960200 0.275700 0.045200
vn -0.927200 0.329200 -0.178500
vn -0.702000 -0.636800 -0.318900
vn -0.754900 -0.604100 -0.255100
vn -0.652400 -0.727700 -0.212000
vn 0.587000 0.654800 -0.476000
vn 0.601300 0.639100 -0.479600
vn 0.427200 0.609800 0.667600
vn 0.406000 0.611100 0.679500
vn 0.465600 -0.847500 -0.254800
vn 0.417600 -0.864500 -0.279700
usemtl None.023
s 1
f 1//1 2//2 3//3
f 4//4 5//5 6//6
f 7//7 8//8 9//9
f 10//10 11//11 12//12
f 13//13 14//14 15//15
f 16//16 17//17 18//18
f 19//19 6//19 20//19
f 21//20 22//21 23//22
f 15//23 24//23 13//23
f 25//24 26//25 27//26
f 28//27 29//28 30//29
f 31//30 11//30 32//30
f 5//31 4//31 33//31
f 34//32 35//33 14//34
f 36//35 37//36 38//37
f 39//38 40//39 41//40
f 42//41 43//42 44//43
f 45//44 22//45 46//46
f 47//47 48//48 49//49
f 50//50 51//50 52//50
f 12//51 53//52 10//53
f 48//54 47//55 54//56
f 39//57 41//58 55//59
f 56//60 44//61 57//62
f 19//63 58//63 54//63
f 4//64 19//64 54//64
f 5//65 59//66 60//67
f 61//68 3//3 62//69
f 22//70 63//71 23//72
f 64//73 16//74 65//75
f 49//49 42//76 66//77
f 67//78 68//79 52//80
f 11//81 69//82 26//83
f 70//84 71//85 6//86
f 72//87 2//88 59//89
f 73//90 40//91 74//92
f 9//9 75//93 76//94
f 15//95 50//96 24//97
f 49//98 66//99 77//100
f 78//101 79//102 80//103
f 33//104 13//105 5//106
f 81//107 18//18 17//17
f 23//22 40//108 82//109
f 35//110 15//111 14//112
f 49//98 77//100 83//113
f 21//114 84//115 57//62
f 3//3 67//116 62//117
f 63//118 45//119 78//120
f 68//121 85//122 72//123
f 86//124 87//125 88//126
f 89//127 20//128 6//129
f 33//130 4//131 47//132
f 55//133 90//134 91//135
f 73//136 92//137 18//138
f 69//139 38//140 14//141
f 93//142 94//143 30//29
f 95//144 75//145 8//146
f 96//147 31//148 7//149
f 89//150 87//151 97//152
f 48//48 79//153 98//154
f 85//155 67//156 2//157
f 8//146 99//158 100//159
f 101//160 102//161 103//162
f 104//163 105//164 83//165
f 82//166 84//167 21//168
f 94//169 84//115 28//170
f 17//171 106//172 81//173
f 107//174 108//175 109//176
f 106//177 107//178 28//179
f 25//180 100//181 110//182
f 25//183 110//184 99//185
f 34//186 38//187 53//188
f 62//69 111//189 61//68
f 112//190 88//191 60//192
f 42//193 93//194 76//195
f 64//196 65//197 53//198
f 33//199 104//200 83//201
f 13//202 26//25 69//203
f 3//3 86//204 1//1
f 112//205 1//1 86//204
f 70//206 6//6 5//5
f 19//207 4//4 6//6
f 5//5 60//208 70//206
f 9//9 113//209 7//7
f 114//210 7//7 113//209
f 10//10 37//211 11//11
f 13//13 69//212 14//14
f 18//18 101//213 16//16
f 16//16 109//214 17//17
f 21//20 46//215 22//21
f 25//24 32//216 26//25
f 113//217 30//29 29//28
f 28//27 107//218 29//28
f 29//28 96//219 114//220
f 114//220 113//217 29//28
f 14//34 38//221 34//32
f 34//32 103//222 35//33
f 36//35 11//81 37//36
f 39//38 111//223 40//39
f 115//224 44//43 43//42
f 42//41 116//225 43//42
f 46//46 115//226 43//227
f 43//227 45//44 46//46
f 116//225 49//49 48//48
f 105//228 47//47 49//49
f 12//51 96//229 29//230
f 29//230 53//52 12//51
f 54//56 58//231 79//232
f 79//232 48//54 54//56
f 55//59 91//233 39//57
f 97//234 39//57 91//233
f 56//60 93//194 44//61
f 44//61 115//235 57//62
f 57//62 94//169 56//60
f 5//65 72//236 59//66
f 61//68 86//204 3//3
f 41//237 23//72 55//238
f 22//70 45//239 63//71
f 63//71 55//238 23//72
f 34//32 65//75 103//222
f 64//73 109//240 16//74
f 16//74 103//222 65//75
f 95//144 66//77 42//76
f 49//49 116//225 42//76
f 52//80 51//241 92//242
f 92//242 67//78 52//80
f 69//82 11//81 36//35
f 32//243 11//81 26//83
f 70//84 88//244 71//85
f 1//245 59//89 2//88
f 72//87 85//246 2//88
f 117//247 74//92 111//248
f 73//90 81//107 40//91
f 40//91 111//248 74//92
f 76//94 30//249 113//209
f 113//209 9//9 76//94
f 52//250 24//97 50//96
f 15//95 102//251 50//96
f 20//252 80//103 19//253
f 78//101 98//254 79//102
f 79//102 58//255 80//103
f 19//253 80//103 58//255
f 72//256 5//106 13//105
f 33//104 27//257 13//105
f 13//105 24//258 72//256
f 81//107 73//90 18//18
f 81//259 82//109 40//108
f 21//20 23//22 82//109
f 41//260 40//108 23//22
f 35//110 102//261 15//111
f 100//262 83//113 77//100
f 105//263 49//98 83//113
f 57//62 115//235 46//264
f 46//264 21//114 57//62
f 117//265 62//117 67//116
f 3//3 2//2 67//116
f 67//116 92//266 74//267
f 74//267 117//265 67//116
f 78//120 80//268 63//118
f 90//134 63//118 80//268
f 45//119 43//269 78//120
f 72//123 24//270 68//121
f 52//271 68//121 24//270
f 88//126 112//272 86//124
f 86//124 61//273 87//125
f 87//125 71//274 88//126
f 6//129 71//275 89//127
f 89//127 90//134 20//128
f 80//268 20//128 90//134
f 54//276 47//132 4//131
f 104//277 33//130 47//132
f 89//127 91//135 90//134
f 55//133 63//278 90//134
f 101//279 18//138 92//137
f 73//136 74//280 92//137
f 92//137 51//281 101//279
f 69//139 36//282 38//140
f 30//29 76//283 93//142
f 93//142 56//284 94//143
f 94//143 28//27 30//29
f 9//285 8//146 75//145
f 66//77 95//144 8//146
f 99//286 7//149 31//148
f 96//147 12//287 11//288
f 7//149 114//289 96//147
f 11//288 31//148 96//147
f 97//152 91//290 89//150
f 89//150 71//291 87//151
f 78//292 43//42 98//154
f 116//225 48//48 98//154
f 98//154 43//42 116//225
f 85//155 68//293 67//156
f 77//294 66//77 100//159
f 8//146 7//295 99//158
f 99//158 110//296 100//159
f 100//159 66//77 8//146
f 103//162 16//297 101//160
f 101//160 51//298 50//299
f 50//299 102//161 101//160
f 35//300 103//162 102//161
f 104//163 47//301 105//164
f 82//166 118//302 84//167
f 106//303 28//170 84//115
f 94//169 57//62 84//115
f 84//115 118//304 106//303
f 82//305 81//173 118//306
f 17//171 108//307 106//172
f 106//172 118//306 81//173
f 17//308 109//176 108//175
f 64//309 107//174 109//176
f 106//177 108//310 107//178
f 25//180 83//311 100//181
f 99//185 31//312 25//183
f 32//313 25//183 31//312
f 10//314 53//188 38//187
f 65//315 34//186 53//188
f 38//187 37//316 10//314
f 87//317 61//68 97//318
f 62//69 117//319 111//189
f 111//189 39//320 61//68
f 97//318 61//68 39//320
f 60//192 59//321 112//190
f 1//322 112//190 59//321
f 88//191 70//323 60//192
f 76//195 75//324 42//193
f 95//325 42//193 75//324
f 44//61 93//194 42//193
f 53//198 29//326 107//327
f 107//327 64//196 53//198
f 83//201 25//328 27//329
f 27//329 33//199 83//201
f 13//202 27//26 26//25
