# Blender v2.77 (sub 0) OBJ File: ''
# www.blender.org
mtllib RH_HAA_07_com_constraints.mtl
o foo.007
v -0.626142 -0.206384 -0.055689
v -0.631550 -0.138117 0.219367
v -0.666342 0.006679 0.111815
v -0.060291 -0.281026 -0.581223
v -0.393206 -0.315295 -0.236467
v -0.458360 -0.167682 -0.508467
v 0.656392 0.142848 0.061503
v 0.634199 0.211133 -0.130372
v 0.592815 0.324244 -0.052601
v 0.446421 0.153292 0.551544
v 0.549725 -0.084342 0.438670
v 0.512293 0.216070 0.444662
v 0.130264 -0.340544 0.426457
v 0.143289 -0.167425 0.721416
v -0.116729 -0.201104 0.718277
v -0.118943 0.245451 0.711475
v -0.115238 0.505287 0.492601
v -0.358417 0.327613 0.546416
v -0.167364 -0.186312 -0.713658
v -0.311348 -0.121948 -0.675624
v -0.194676 0.627161 -0.196048
v -0.231239 0.505679 -0.436326
v -0.401491 0.486941 -0.278890
v -0.318651 -0.275247 0.500830
v 0.633425 -0.156935 -0.148550
v 0.506577 -0.252354 0.203274
v 0.346946 -0.358092 0.017888
v 0.264566 0.601664 0.206342
v 0.399829 0.440106 0.372631
v 0.427414 0.525601 0.057147
v 0.635373 -0.102714 0.230629
v 0.609092 -0.148130 0.269034
v 0.111210 -0.368765 -0.300018
v 0.176133 0.049211 0.748938
v -0.046048 -0.040888 0.773034
v 0.431301 -0.136770 0.553829
v 0.432165 -0.051601 0.600182
v 0.327088 -0.068229 0.680487
v -0.565643 0.321357 -0.214612
v -0.508302 0.446276 0.056995
v -0.477092 0.430158 -0.246381
v 0.379361 0.319285 -0.535323
v 0.015938 0.407993 -0.625062
v 0.199774 0.546482 -0.404931
v -0.219207 0.435444 -0.534068
v -0.034772 0.574196 -0.408872
v 0.305817 -0.118273 -0.664346
v 0.267273 0.123502 -0.697374
v 0.511200 0.019015 -0.504293
v -0.288200 -0.124827 0.674254
v -0.397662 0.011185 0.635922
v -0.476254 -0.151548 0.519518
v 0.344170 0.246441 0.615518
v -0.004918 -0.185245 -0.731254
v -0.443150 0.322374 -0.451892
v 0.238821 0.621186 -0.147041
v 0.156745 0.649940 -0.134768
v -0.067448 -0.164429 -0.738638
v -0.608547 -0.227910 -0.056937
v -0.474459 -0.275964 -0.248078
v -0.668822 0.070769 -0.130287
v -0.657643 0.118040 0.138812
v -0.332627 0.351609 -0.537731
v 0.120653 0.344527 0.656198
v 0.167140 0.237863 0.705214
v 0.592075 0.168567 -0.335445
v -0.569925 -0.051993 0.414747
v -0.533014 -0.164725 0.430154
v 0.339832 -0.231011 0.523754
v -0.517604 -0.197636 -0.403630
v -0.547789 -0.118944 -0.428894
v -0.495196 -0.307680 0.184050
v -0.444206 0.361075 0.414544
v -0.574656 0.227703 0.321588
v 0.514509 0.382884 -0.244836
v 0.467321 0.457269 -0.192493
v 0.586657 -0.051751 -0.371819
v -0.054979 0.276809 -0.704989
v 0.030990 0.181042 -0.733017
v -0.282570 0.110984 -0.687450
v -0.328054 0.548890 0.257597
v -0.262312 0.627530 0.079010
v 0.495529 -0.147309 -0.473136
v 0.032271 0.675730 0.027362
v -0.600437 -0.174380 0.260096
v -0.672625 -0.041205 -0.101523
v -0.616064 0.050121 -0.326370
v -0.595128 -0.153773 -0.303038
v -0.519757 0.088324 -0.492420
v -0.364577 0.174929 -0.617580
v -0.522259 0.190727 -0.445818
v -0.533681 0.095129 0.471667
v 0.315979 0.564458 -0.237954
v 0.265602 0.624277 -0.031062
v 0.526533 0.313623 -0.333081
v 0.575706 0.243063 0.301871
v -0.600391 0.168228 -0.310258
v 0.017786 0.238483 -0.717026
v 0.672910 -0.048450 0.004459
v 0.631248 -0.110757 -0.234821
v -0.283773 0.198114 0.667932
v -0.177456 -0.124803 0.733381
v -0.026104 0.081323 0.775282
v 0.382528 -0.163540 -0.574406
v 0.472123 -0.100246 -0.529672
v 0.031853 0.633739 0.273494
v 0.245895 0.541925 0.378901
v 0.028310 0.568258 0.414995
v 0.020798 0.410203 0.616761
v 0.641054 -0.128550 -0.174967
v -0.610430 0.298650 0.025924
v -0.640551 -0.162553 -0.125586
v 0.562096 0.372281 0.078332
v 0.589328 0.261196 0.231182
v 0.049303 0.577843 -0.409522
v 0.355755 0.259192 -0.595055
v -0.643912 0.162539 0.161927
v -0.020393 0.664779 0.160298
vn -0.968900 -0.241600 0.053900
vn -0.976100 -0.086400 0.199500
vn -0.989400 -0.051700 0.135300
vn -0.316800 -0.869600 -0.378800
vn -0.329300 -0.866400 -0.375300
vn -0.306300 -0.867500 -0.392000
vn 0.929900 0.361400 0.068000
vn 0.941500 0.336900 0.011000
vn 0.866500 0.499100 -0.010100
vn 0.819700 0.087400 0.566100
vn 0.817000 0.084200 0.570500
vn 0.822900 0.091300 0.560800
vn 0.169800 -0.853200 0.493200
vn 0.145400 -0.856100 0.496000
vn 0.105300 -0.859700 0.499900
vn -0.294500 0.595500 0.747500
vn -0.337100 0.678900 0.652300
vn -0.386000 0.666500 0.637800
vn -0.454800 -0.672400 -0.584000
vn -0.437000 0.861500 -0.258400
vn -0.334100 0.860700 -0.384300
vn -0.536300 0.822800 -0.188100
vn -0.071100 -0.922100 0.380400
vn 0.615000 -0.788500 0.007900
vn 0.530800 -0.840300 0.110000
vn 0.463000 -0.880300 0.103400
vn 0.549200 0.804700 0.225600
vn 0.655100 0.700500 0.283200
vn 0.606800 0.787700 0.106600
vn 0.901100 -0.193300 0.388100
vn -0.130400 -0.966300 -0.222000
vn 0.196600 -0.007100 0.980500
vn 0.144200 -0.092100 0.985200
vn 0.228200 -0.156700 0.960900
vn 0.678400 -0.534900 0.503600
vn 0.648700 -0.368900 0.665700
vn 0.597600 -0.387900 0.701700
vn -0.794000 0.598400 -0.107600
vn -0.801600 0.589100 -0.101700
vn -0.786500 0.607100 -0.113200
vn 0.327400 0.620900 -0.712200
vn 0.259900 0.577700 -0.773800
vn 0.261800 0.703200 -0.661000
vn -0.169800 0.775000 -0.608700
vn -0.191800 0.785700 -0.588200
vn -0.103100 0.781700 -0.615100
vn 0.621500 -0.016700 -0.783200
vn 0.481100 0.253700 -0.839200
vn 0.692600 0.124900 -0.710400
vn -0.591100 -0.260600 0.763400
vn 0.705300 0.480400 0.521300
vn 0.676500 0.445500 0.586500
vn 0.700400 0.336600 0.629400
vn 0.183500 -0.054000 -0.981500
vn 0.229200 -0.095800 -0.968700
vn 0.148800 -0.036200 -0.988200
vn -0.785200 0.474800 -0.397600
vn -0.766000 0.508600 -0.393200
vn -0.783800 0.472700 -0.402600
vn 0.297700 0.927900 -0.224500
vn 0.379000 0.841200 -0.385800
vn 0.159800 0.971900 -0.172800
vn -0.086100 -0.552800 -0.828800
vn -0.054300 -0.832400 -0.551500
vn -0.431700 -0.898400 -0.080600
vn -0.436400 -0.895500 -0.087600
vn -0.426200 -0.901800 -0.072300
vn -0.975400 0.203000 -0.085800
vn -0.980100 0.197300 0.020500
vn -0.520200 0.681300 -0.515000
vn -0.533600 0.674500 -0.510200
vn -0.601100 0.648900 -0.466400
vn 0.014100 0.460900 0.887300
vn 0.020800 0.420600 0.907000
vn 0.073200 0.353400 0.932600
vn 0.761600 0.290200 -0.579400
vn 0.890700 0.246200 -0.382000
vn -0.784700 -0.093400 0.612800
vn -0.815300 -0.192300 0.546200
vn -0.792200 -0.101700 0.601700
vn 0.628600 -0.650800 0.425800
vn 0.627800 -0.693900 0.352600
vn 0.564400 -0.717300 0.408500
vn -0.758100 -0.444100 -0.477500
vn -0.758300 -0.444100 -0.477200
vn -0.718200 -0.446800 -0.533500
vn -0.760300 -0.637400 0.124800
vn -0.765900 -0.635600 0.097300
vn -0.760000 -0.634100 0.142800
vn -0.626300 0.673500 0.392700
vn -0.771900 0.581800 0.256500
vn -0.815000 0.523600 0.248000
vn 0.789100 0.598300 -0.138900
vn 0.773100 0.626500 -0.099100
vn -0.433900 -0.575100 0.693500
vn -0.436700 -0.615700 0.655900
vn -0.435300 -0.640900 0.632300
vn 0.854000 -0.078300 -0.514300
vn 0.880200 0.056200 -0.471300
vn 0.857100 -0.193600 -0.477500
vn -0.145500 0.155300 -0.977100
vn -0.137500 0.127900 -0.982200
vn -0.193600 0.047900 -0.979900
vn -0.073000 -0.996500 0.040600
vn -0.071700 -0.995500 0.062000
vn -0.078700 -0.996600 0.024200
vn -0.582700 0.707700 0.399500
vn -0.596600 0.802200 -0.023700
vn -0.578100 0.815900 -0.010900
vn -0.010400 -0.319300 0.947600
vn -0.040100 -0.307300 0.950800
vn 0.032100 -0.335900 0.941300
vn 0.832800 -0.216200 -0.509600
vn -0.023200 0.973200 -0.228800
vn 0.132100 0.991200 0.010200
vn -0.941100 0.060700 0.332500
vn -0.941100 0.055900 0.333600
vn -0.360400 0.462900 -0.809800
vn -0.313500 0.526700 -0.790100
vn -0.308600 0.517000 -0.798400
vn -0.553000 -0.744100 0.374800
vn -0.658000 -0.690700 0.300100
vn -0.586700 -0.736200 0.337500
vn -0.956400 -0.117900 -0.267300
vn -0.943400 -0.112500 -0.311900
vn -0.934900 -0.146600 -0.323100
vn -0.696500 0.080800 -0.713000
vn -0.680500 -0.039500 -0.731600
vn -0.714900 -0.128400 -0.687300
vn 0.246300 -0.855000 -0.456300
vn 0.279800 -0.853700 -0.439100
vn 0.202600 -0.853800 -0.479600
vn -0.648200 0.389700 -0.654200
vn -0.561600 0.281500 -0.778100
vn -0.680300 0.329200 -0.654800
vn -0.743100 0.369800 0.557700
vn -0.709400 0.327100 0.624400
vn -0.696900 0.318800 0.642400
vn 0.438600 -0.605300 0.664300
vn 0.450000 -0.600900 0.660700
vn 0.466600 -0.594200 0.655100
vn 0.559700 0.820200 -0.117900
vn 0.523800 0.850600 -0.045100
vn 0.832200 0.398500 -0.385500
vn 0.863400 0.450900 -0.226200
vn 0.948300 0.246400 -0.199800
vn 0.935100 0.120600 0.333300
vn 0.953000 0.077800 0.292700
vn 0.968000 0.088800 0.234500
vn -0.869100 0.089000 -0.486600
vn -0.870200 0.082300 -0.485800
vn -0.867000 0.182400 -0.463800
vn 0.214700 0.307400 -0.927000
vn 0.216400 0.428900 -0.877000
vn -0.875500 -0.279700 0.394000
vn -0.891400 -0.253000 0.376100
vn -0.867500 -0.292300 0.402500
vn 0.987000 0.065400 -0.146500
vn 0.975200 0.034000 -0.218700
vn -0.348100 0.087400 0.933400
vn -0.403600 0.043900 0.913900
vn -0.333300 0.093700 0.938100
vn 0.614400 -0.381700 -0.690500
vn 0.627400 -0.428500 -0.650200
vn 0.631800 -0.446700 -0.633400
vn -0.165600 0.985900 -0.024500
vn -0.163300 0.986500 -0.010900
vn -0.168600 0.984800 -0.042800
vn 0.247800 0.968500 0.026500
vn 0.209100 0.969300 0.129700
vn -0.213700 0.898600 0.383300
vn -0.218000 0.902100 0.372300
vn -0.236100 0.908100 0.345700
vn 0.206900 0.759700 0.616500
vn 0.120300 0.779300 0.615000
vn 0.163100 0.762400 0.626300
vn 0.197000 0.901500 0.385300
vn 0.207200 0.906200 0.368600
vn 0.224100 0.913200 0.340400
vn 0.778000 -0.545500 -0.311600
vn 0.749100 -0.576000 -0.327200
vn 0.829700 -0.483200 -0.279600
vn 0.944200 -0.329200 -0.012400
vn 0.955300 -0.292900 -0.038900
vn 0.916100 -0.398300 0.046000
vn 0.478000 0.175000 0.860700
vn 0.552500 0.144700 0.820800
vn 0.529800 0.162600 0.832400
vn -0.954200 0.292600 -0.062700
vn -0.680400 -0.682700 -0.266400
vn -0.652500 -0.732200 -0.195200
vn -0.659700 -0.718800 -0.219500
vn 0.587600 0.680100 -0.438500
vn 0.462800 0.797800 -0.386600
vn 0.601700 0.675400 -0.426200
vn 0.389900 0.598000 0.700200
vn 0.367200 0.515700 0.774100
vn 0.406400 0.617900 0.673100
vn 0.389100 -0.882300 -0.264800
vn 0.380000 -0.880700 -0.282900
vn 0.409100 -0.874600 -0.260200
vn 0.352600 -0.905300 0.236800
vn 0.356900 -0.901200 0.245700
vn -0.991200 -0.122300 0.049900
vn -0.964500 -0.261800 0.034700
vn -0.291400 -0.870800 -0.396100
vn -0.316300 -0.873900 -0.369200
vn -0.371800 -0.866500 -0.333200
vn 0.858200 0.512900 0.020900
vn 0.922500 0.371400 0.105600
vn 0.813600 0.080100 0.575900
vn 0.216100 -0.846200 0.487100
vn -0.354900 0.522800 0.775100
vn -0.237700 0.627800 0.741200
vn -0.249700 0.878900 -0.406400
vn 0.694100 -0.717800 0.055600
vn 0.736500 0.623400 0.262400
vn 0.530400 0.781700 0.328000
vn 0.763100 0.575300 0.294600
vn 0.762500 0.578400 0.289900
vn 0.298200 -0.164700 0.940200
vn 0.100500 0.172800 0.979800
vn -0.809000 0.579900 -0.095900
vn 0.177400 0.759400 -0.625900
vn 0.538600 0.386000 -0.748900
vn -0.038900 0.787800 -0.614700
vn -0.126500 0.771900 -0.623100
vn 0.631500 -0.042200 -0.774200
vn 0.745200 0.511600 0.427700
vn 0.695800 0.511400 0.504300
vn 0.112100 -0.015800 -0.993600
vn 0.141000 -0.018600 -0.989800
vn -0.798500 0.447500 -0.402700
vn -0.810800 0.431200 -0.395800
vn 0.052800 0.960600 -0.272700
vn -0.438000 -0.894400 -0.090000
vn -0.652900 0.621100 -0.433600
vn -0.579300 0.655700 -0.484200
vn -0.485400 0.680600 -0.548800
vn -0.009300 0.504300 0.863500
vn -0.784200 -0.062800 0.617300
vn -0.778100 -0.059800 0.625300
vn 0.477600 -0.754200 0.450700
vn -0.793900 -0.439500 -0.420200
vn -0.762400 -0.631400 0.141700
vn -0.775700 -0.630300 0.031400
vn -0.880800 0.425100 0.208600
vn -0.840700 0.494600 0.220400
vn 0.754000 0.654300 -0.058500
vn -0.429800 -0.643400 0.633500
vn -0.412700 -0.481500 0.773200
vn -0.262300 -0.016600 -0.964800
vn -0.247600 -0.010500 -0.968800
vn -0.020600 0.263700 -0.964400
vn -0.202400 0.023800 -0.979000
vn -0.072400 -0.996000 0.051800
vn -0.007400 -0.999200 0.039000
vn -0.115200 -0.979600 0.164500
vn -0.595700 0.792700 0.129800
vn -0.625800 0.772800 -0.105400
vn -0.111000 -0.277200 0.954400
vn 0.836200 -0.349400 -0.422700
vn 0.850700 -0.173100 -0.496300
vn -0.029700 0.968600 -0.246900
vn -0.928000 0.102300 0.358300
vn -0.934700 0.098000 0.341800
vn -0.929300 0.102500 0.354900
vn -0.520900 0.235200 -0.820500
vn -0.229100 0.593800 -0.771300
vn -0.520300 -0.759100 0.391200
vn -0.521800 -0.731200 0.439300
vn -0.946700 -0.200200 -0.252200
vn -0.966000 -0.033100 -0.256400
vn -0.913900 -0.137500 -0.381800
vn -0.696200 -0.122600 -0.707300
vn 0.278900 -0.852800 -0.441500
vn 0.112300 -0.845800 -0.521500
vn -0.624300 0.412700 -0.663300
vn -0.661600 0.278300 0.696300
vn -0.759600 0.370400 0.534600
vn -0.661900 0.284500 0.693500
vn 0.412500 -0.614900 0.672100
vn 0.597700 0.792500 -0.121400
vn 0.479800 0.867100 -0.133900
vn 0.862300 0.460400 -0.210800
vn 0.984600 0.033900 0.171500
vn 0.901500 0.104000 0.420000
vn 0.918300 0.088300 0.385800
vn 0.950800 0.201900 0.235000
vn -0.863800 0.191000 -0.466200
vn -0.860400 -0.039400 -0.508100
vn 0.105700 0.475100 -0.873600
vn -0.896900 -0.243200 0.369400
vn 0.953800 0.026000 -0.299300
vn 0.991200 0.108300 -0.076100
vn 0.985800 -0.018200 -0.166900
vn -0.301900 0.192300 0.933800
vn -0.305000 0.022800 0.952100
vn -0.420500 0.023500 0.907000
vn -0.307800 0.032700 0.950900
vn 0.609400 -0.365300 -0.703700
vn -0.158300 0.987200 0.018600
vn 0.189800 0.967800 0.165400
vn 0.215300 0.962600 0.164600
vn -0.246400 0.917200 0.313200
vn -0.234300 0.909800 0.342700
vn -0.171200 0.895800 0.410200
vn -0.012200 0.787400 0.616300
vn 0.235900 0.738200 0.632000
vn 0.177100 0.891500 0.417000
vn 0.740100 -0.584900 -0.331800
vn 0.890000 -0.451900 0.060000
vn 0.885500 -0.460600 0.061300
vn 0.602700 0.133300 0.786800
vn 0.431900 0.223100 0.873900
vn 0.585600 0.148400 0.796900
vn -0.948300 0.163000 -0.272300
vn -0.941600 0.255000 -0.219900
vn -0.960400 0.275800 0.039600
vn -0.930700 0.330100 -0.157900
vn -0.713500 -0.642600 -0.279200
vn -0.760800 -0.608800 -0.224900
vn -0.655800 -0.731500 -0.186500
vn 0.602800 0.673500 -0.427900
vn 0.618200 0.657000 -0.431500
vn 0.451400 0.644400 0.617300
vn 0.431100 0.647000 0.628900
vn 0.469200 -0.854100 -0.224600
vn 0.423300 -0.871900 -0.246200
usemtl None.007
s 1
f 1//1 2//2 3//3
f 4//4 5//5 6//6
f 7//7 8//8 9//9
f 10//10 11//11 12//12
f 13//13 14//14 15//15
f 16//16 17//17 18//18
f 19//19 6//19 20//19
f 21//20 22//21 23//22
f 15//23 24//23 13//23
f 25//24 26//25 27//26
f 28//27 29//28 30//29
f 31//30 11//30 32//30
f 5//31 4//31 33//31
f 34//32 35//33 14//34
f 36//35 37//36 38//37
f 39//38 40//39 41//40
f 42//41 43//42 44//43
f 45//44 22//45 46//46
f 47//47 48//48 49//49
f 50//50 51//50 52//50
f 12//51 53//52 10//53
f 48//54 47//55 54//56
f 39//57 41//58 55//59
f 56//60 44//61 57//62
f 19//63 58//63 54//63
f 4//64 19//64 54//64
f 5//65 59//66 60//67
f 61//68 3//3 62//69
f 22//70 63//71 23//72
f 64//73 16//74 65//75
f 49//49 42//76 66//77
f 67//78 68//79 52//80
f 11//81 69//82 26//83
f 70//84 71//85 6//86
f 72//87 2//88 59//89
f 73//90 40//91 74//92
f 9//9 75//93 76//94
f 15//95 50//96 24//97
f 49//98 66//99 77//100
f 78//101 79//102 80//103
f 33//104 13//105 5//106
f 81//107 18//18 17//17
f 23//22 40//108 82//109
f 35//110 15//111 14//112
f 49//98 77//100 83//113
f 21//114 84//115 57//62
f 3//3 67//116 62//117
f 63//118 45//119 78//120
f 68//121 85//122 72//123
f 86//124 87//125 88//126
f 89//127 20//128 6//129
f 33//130 4//131 47//132
f 55//133 90//134 91//135
f 73//136 92//137 18//138
f 69//139 38//140 14//141
f 93//142 94//143 30//29
f 95//144 75//145 8//146
f 96//147 31//148 7//149
f 89//150 87//151 97//152
f 48//48 79//153 98//154
f 85//155 67//156 2//157
f 8//146 99//158 100//159
f 101//160 102//161 103//162
f 104//163 105//164 83//165
f 82//166 84//167 21//168
f 94//169 84//115 28//170
f 17//171 106//172 81//173
f 107//174 108//175 109//176
f 106//177 107//178 28//179
f 25//180 100//181 110//182
f 25//183 110//184 99//185
f 34//186 38//187 53//188
f 62//69 111//189 61//68
f 112//190 88//191 60//192
f 42//193 93//194 76//195
f 64//196 65//197 53//198
f 33//199 104//200 83//201
f 13//202 26//25 69//203
f 3//3 86//204 1//1
f 112//205 1//1 86//204
f 70//206 6//6 5//5
f 19//207 4//4 6//6
f 5//5 60//208 70//206
f 9//9 113//209 7//7
f 114//210 7//7 113//209
f 10//10 37//211 11//11
f 13//13 69//212 14//14
f 18//18 101//213 16//16
f 16//16 109//214 17//17
f 21//20 46//215 22//21
f 25//24 32//216 26//25
f 113//217 30//29 29//28
f 28//27 107//218 29//28
f 29//28 96//219 114//220
f 114//220 113//217 29//28
f 14//34 38//221 34//32
f 34//32 103//222 35//33
f 36//35 11//81 37//36
f 39//38 111//223 40//39
f 115//224 44//43 43//42
f 42//41 116//225 43//42
f 46//46 115//226 43//227
f 43//227 45//44 46//46
f 116//225 49//49 48//48
f 105//228 47//47 49//49
f 12//51 96//229 29//230
f 29//230 53//52 12//51
f 54//56 58//231 79//232
f 79//232 48//54 54//56
f 55//59 91//233 39//57
f 97//234 39//57 91//233
f 56//60 93//194 44//61
f 44//61 115//235 57//62
f 57//62 94//169 56//60
f 5//65 72//236 59//66
f 61//68 86//204 3//3
f 41//237 23//72 55//238
f 22//70 45//239 63//71
f 63//71 55//238 23//72
f 34//32 65//75 103//222
f 64//73 109//240 16//74
f 16//74 103//222 65//75
f 95//144 66//77 42//76
f 49//49 116//225 42//76
f 52//80 51//241 92//242
f 92//242 67//78 52//80
f 69//82 11//81 36//35
f 32//243 11//81 26//83
f 70//84 88//244 71//85
f 1//245 59//89 2//88
f 72//87 85//246 2//88
f 117//247 74//92 111//248
f 73//90 81//107 40//91
f 40//91 111//248 74//92
f 76//94 30//249 113//209
f 113//209 9//9 76//94
f 52//250 24//97 50//96
f 15//95 102//251 50//96
f 20//252 80//103 19//253
f 78//101 98//254 79//102
f 79//102 58//255 80//103
f 19//253 80//103 58//255
f 72//256 5//106 13//105
f 33//104 27//257 13//105
f 13//105 24//258 72//256
f 81//107 73//90 18//18
f 81//259 82//109 40//108
f 21//20 23//22 82//109
f 41//260 40//108 23//22
f 35//110 102//261 15//111
f 100//262 83//113 77//100
f 105//263 49//98 83//113
f 57//62 115//235 46//264
f 46//264 21//114 57//62
f 117//265 62//117 67//116
f 3//3 2//2 67//116
f 67//116 92//266 74//267
f 74//267 117//265 67//116
f 78//120 80//268 63//118
f 90//134 63//118 80//268
f 45//119 43//269 78//120
f 72//123 24//270 68//121
f 52//271 68//121 24//270
f 88//126 112//272 86//124
f 86//124 61//273 87//125
f 87//125 71//274 88//126
f 6//129 71//275 89//127
f 89//127 90//134 20//128
f 80//268 20//128 90//134
f 54//276 47//132 4//131
f 104//277 33//130 47//132
f 89//127 91//135 90//134
f 55//133 63//278 90//134
f 101//279 18//138 92//137
f 73//136 74//280 92//137
f 92//137 51//281 101//279
f 69//139 36//282 38//140
f 30//29 76//283 93//142
f 93//142 56//284 94//143
f 94//143 28//27 30//29
f 9//285 8//146 75//145
f 66//77 95//144 8//146
f 99//286 7//149 31//148
f 96//147 12//287 11//288
f 7//149 114//289 96//147
f 11//288 31//148 96//147
f 97//152 91//290 89//150
f 89//150 71//291 87//151
f 78//292 43//42 98//154
f 116//225 48//48 98//154
f 98//154 43//42 116//225
f 85//155 68//293 67//156
f 77//294 66//77 100//159
f 8//146 7//295 99//158
f 99//158 110//296 100//159
f 100//159 66//77 8//146
f 103//162 16//297 101//160
f 101//160 51//298 50//299
f 50//299 102//161 101//160
f 35//300 103//162 102//161
f 104//163 47//301 105//164
f 82//166 118//302 84//167
f 106//303 28//170 84//115
f 94//169 57//62 84//115
f 84//115 118//304 106//303
f 82//305 81//173 118//306
f 17//171 108//307 106//172
f 106//172 118//306 81//173
f 17//308 109//176 108//175
f 64//309 107//174 109//176
f 106//177 108//310 107//178
f 25//180 83//311 100//181
f 99//185 31//312 25//183
f 32//313 25//183 31//312
f 10//314 53//188 38//187
f 65//315 34//186 53//188
f 38//187 37//316 10//314
f 87//317 61//68 97//318
f 62//69 117//319 111//189
f 111//189 39//320 61//68
f 97//318 61//68 39//320
f 60//192 59//321 112//190
f 1//322 112//190 59//321
f 88//191 70//323 60//192
f 76//195 75//324 42//193
f 95//325 42//193 75//324
f 44//61 93//194 42//193
f 53//198 29//326 107//327
f 107//327 64//196 53//198
f 83//201 25//328 27//329
f 27//329 33//199 83//201
f 13//202 27//26 26//25
