# Blender v2.77 (sub 0) OBJ File: ''
# www.blender.org
mtllib RH_HAA_com_constraints.mtl
o foo.022
v -0.411715 -0.178324 0.842817
v -0.253509 -0.178290 0.916726
v -0.568089 0.015979 0.794903
v -0.707423 -0.439543 0.230063
v -0.561723 -0.450421 -0.295584
v 0.158872 -0.526807 -0.375023
v 0.495637 -0.511560 0.022360
v 0.186092 -0.486491 0.533071
v -0.455216 -0.393210 0.626038
v 0.044272 0.258631 -0.916271
v 0.025408 0.340690 -0.896282
v -0.078542 0.395441 -0.881236
v 0.022769 0.582847 -0.781327
v 0.541944 0.456122 -0.669154
v 0.508222 0.370274 -0.743819
v 0.381819 0.176431 -0.871717
v -0.872043 0.426643 0.032405
v -0.919874 0.232199 0.202409
v -0.820937 0.325290 0.401985
v -0.726146 0.637537 0.071244
v 0.901783 -0.158224 -0.293526
v 0.707898 -0.210442 -0.591420
v 0.674462 -0.143209 -0.662090
v 0.730286 0.027165 -0.630366
v 0.845821 0.240810 -0.419306
v 0.838082 -0.073930 -0.464774
v -0.374731 0.896472 0.098762
v -0.029133 0.949684 0.200373
v 0.046102 0.965329 0.034202
v -0.278109 0.895944 -0.245060
v -0.096354 -0.234898 -0.923298
v -0.239091 -0.266160 -0.892072
v -0.444783 -0.174212 -0.844530
v -0.403672 0.158548 -0.859313
v -0.677799 -0.394234 -0.310098
v -0.869353 -0.325585 -0.071171
v -0.894488 -0.294834 -0.069611
v -0.915073 -0.232218 -0.156982
v -0.850183 -0.219676 -0.378797
v -0.739434 -0.282337 -0.504537
v 0.045505 0.905341 0.341868
v 0.040443 0.811797 0.518744
v 0.351279 0.774179 0.473626
v 0.377952 0.859520 0.257928
v 0.610592 0.750859 0.071434
v 0.379432 0.891824 -0.038827
v 0.571185 0.628723 0.465789
v -0.782556 -0.169920 -0.536118
v -0.654800 -0.239545 -0.635584
v -0.633072 0.460535 -0.564865
v -0.746085 0.272467 -0.557273
v -0.857702 0.240326 -0.387823
v -0.808061 0.459082 -0.268265
v -0.681560 0.614511 -0.307976
v -0.313153 0.622063 -0.667585
v -0.330341 0.722398 -0.545408
v -0.049674 0.820280 -0.511090
v 0.070433 0.825490 -0.511903
v 0.546468 -0.233629 -0.718008
v 0.436882 -0.168961 -0.830432
v 0.731847 0.308672 0.555828
v 0.637744 0.218988 0.689430
v 0.617379 -0.073715 0.750227
v 0.785321 -0.120489 0.548338
v 0.907675 -0.146735 0.288286
v 0.961300 -0.069215 0.005574
v 0.937703 0.204068 0.076879
v 0.841897 0.373137 0.288978
v 0.822437 0.347233 0.377339
v -0.742510 0.126177 -0.615525
v -0.880092 0.071602 -0.407963
v 0.467268 -0.097470 0.850609
v 0.251619 0.070302 0.936173
v 0.204699 -0.239179 0.901770
v -0.065783 -0.058412 0.966293
v 0.238772 0.339805 0.881517
v -0.037292 0.116176 0.969103
v 0.029712 0.586004 0.770951
v -0.164625 0.721838 0.615751
v -0.512025 0.468019 0.683020
v -0.405390 0.283020 0.834915
v -0.169919 0.350645 0.889344
v 0.491672 0.352059 0.769397
v -0.166756 -0.287291 0.897846
v 0.667602 0.653242 -0.240616
v 0.451398 0.806368 -0.297443
v 0.341173 0.887408 -0.183801
v -0.680363 -0.216497 0.649398
v -0.761449 -0.235322 0.537692
v -0.857767 -0.249115 0.325120
v -0.573559 0.695630 -0.348613
v -0.520824 0.249899 -0.771975
v -0.475181 0.502299 -0.672164
v 0.172362 0.492182 0.820248
v -0.086130 -0.401466 -0.726529
v 0.870131 -0.211615 0.336292
v 0.802994 0.531830 0.097915
v 0.846879 0.463206 -0.065751
v 0.735013 0.546977 -0.306045
v -0.951917 0.009542 0.139769
v -0.939490 0.168628 0.173515
v -0.960893 -0.058864 -0.126904
v -0.902215 -0.197310 0.274209
v 0.223921 0.928486 -0.168460
v 0.285391 0.780688 -0.506164
v 0.723682 -0.360505 0.254092
v 0.904893 -0.224193 -0.185687
v -0.468649 0.784129 0.321996
v 0.752190 0.448033 -0.416351
v 0.616144 -0.195386 0.692286
v -0.762402 0.135898 0.589584
v -0.634580 0.515822 0.518180
v -0.955460 0.101099 -0.162859
v 0.485474 -0.330016 0.654692
v -0.814178 -0.074276 0.518434
v 0.905998 0.301618 -0.162965
v -0.007025 -0.264635 -0.914067
v 0.915791 -0.183643 -0.218709
vn -0.968800 -0.240500 0.060000
vn -0.972000 -0.093300 0.215700
vn -0.986200 -0.049300 0.157800
vn -0.310100 -0.851000 -0.423900
vn -0.320700 -0.848100 -0.421800
vn -0.298100 -0.847800 -0.438600
vn 0.929700 0.360400 0.075600
vn 0.941500 0.336900 0.012600
vn 0.868000 0.496500 -0.008600
vn 0.782500 0.083700 0.617000
vn 0.778900 0.080100 0.622000
vn 0.785900 0.087200 0.612100
vn 0.162400 -0.823200 0.544000
vn 0.142300 -0.825300 0.546400
vn 0.101500 -0.828500 0.550600
vn -0.271600 0.551200 0.788900
vn -0.315400 0.637500 0.702900
vn -0.368300 0.630800 0.682900
vn -0.432800 -0.639800 -0.635100
vn -0.427700 0.853500 -0.297600
vn -0.331000 0.840800 -0.428300
vn -0.538300 0.817400 -0.205200
vn -0.069600 -0.902300 0.425400
vn 0.618600 -0.785600 0.011400
vn 0.531900 -0.838400 0.119300
vn 0.451900 -0.882500 0.130600
vn 0.541700 0.802000 0.251900
vn 0.649500 0.691200 0.317000
vn 0.608100 0.784800 0.119500
vn 0.881100 -0.189000 0.433600
vn -0.129400 -0.959100 -0.251800
vn 0.173100 -0.006600 0.984900
vn 0.126700 -0.081100 0.988600
vn 0.201300 -0.138300 0.969700
vn 0.651800 -0.525300 0.547000
vn 0.611800 -0.345100 0.711700
vn 0.557100 -0.361600 0.747500
vn -0.793500 0.596200 -0.122000
vn -0.799600 0.589100 -0.116700
vn -0.785000 0.605900 -0.129100
vn 0.304600 0.576800 -0.758000
vn 0.237900 0.535400 -0.810400
vn 0.247900 0.658900 -0.710300
vn -0.162000 0.735100 -0.658400
vn -0.182400 0.747100 -0.639200
vn -0.097700 0.739700 -0.665800
vn 0.570400 -0.015700 -0.821200
vn 0.440300 0.227700 -0.868500
vn 0.643600 0.114800 -0.756700
vn -0.544500 -0.240000 0.803700
vn 0.679600 0.460300 0.571300
vn 0.642800 0.426800 0.636200
vn 0.661500 0.317900 0.679300
vn 0.161200 -0.047400 -0.985800
vn 0.202000 -0.084400 -0.975700
vn 0.130700 -0.031800 -0.990900
vn -0.767100 0.462900 -0.444100
vn -0.748500 0.497000 -0.439100
vn -0.764500 0.462800 -0.448800
vn 0.296000 0.921000 -0.253300
vn 0.365200 0.827100 -0.427300
vn 0.161700 0.967700 -0.193200
vn -0.078300 -0.502500 -0.861000
vn -0.051900 -0.796200 -0.602800
vn -0.431700 -0.897200 -0.092700
vn -0.435800 -0.894500 -0.099800
vn -0.425800 -0.901000 -0.082500
vn -0.975600 0.197500 -0.096200
vn -0.980400 0.195900 0.022000
vn -0.499300 0.655100 -0.567000
vn -0.515100 0.649000 -0.559900
vn -0.578400 0.629900 -0.518300
vn 0.012900 0.413300 0.910500
vn 0.018500 0.376200 0.926400
vn 0.065200 0.313900 0.947200
vn 0.725400 0.277600 -0.629900
vn 0.873200 0.239300 -0.424600
vn -0.742300 -0.086600 0.664400
vn -0.780400 -0.184100 0.597500
vn -0.752900 -0.099800 0.650600
vn 0.610000 -0.632200 0.477800
vn 0.616200 -0.680300 0.396900
vn 0.554500 -0.698000 0.453200
vn -0.731400 -0.429400 -0.529800
vn -0.735400 -0.429400 -0.524300
vn -0.688800 -0.428500 -0.584800
vn -0.758400 -0.635900 0.143100
vn -0.764300 -0.634800 0.113900
vn -0.757400 -0.632300 0.162800
vn -0.619800 0.655500 0.431500
vn -0.760500 0.579700 0.292500
vn -0.811500 0.514100 0.277900
vn 0.786800 0.596600 -0.158300
vn 0.770400 0.628200 -0.108800
vn -0.405700 -0.539400 0.737900
vn -0.410400 -0.579900 0.703800
vn -0.411200 -0.604800 0.682000
vn 0.823100 -0.068500 -0.563800
vn 0.851700 0.054400 -0.521200
vn 0.827400 -0.187800 -0.529300
vn -0.127900 0.136700 -0.982300
vn -0.120700 0.112700 -0.986300
vn -0.170100 0.042100 -0.984500
vn -0.071300 -0.996400 0.046400
vn -0.069700 -0.995300 0.066800
vn -0.076600 -0.996700 0.025700
vn -0.560800 0.692700 0.453500
vn -0.597100 0.801600 -0.031400
vn -0.575700 0.817400 -0.018900
vn -0.009100 -0.282800 0.959100
vn -0.035700 -0.271900 0.961700
vn 0.028500 -0.297900 0.954200
vn 0.802400 -0.211100 -0.558200
vn -0.023000 0.965500 -0.259300
vn 0.126200 0.992000 0.007700
vn -0.926600 0.055700 0.371900
vn -0.924600 0.057800 0.376600
vn -0.329200 0.421700 -0.844900
vn -0.287100 0.482800 -0.827300
vn -0.280700 0.474800 -0.834100
vn -0.545500 -0.726900 0.417100
vn -0.649100 -0.681300 0.338300
vn -0.573200 -0.725500 0.381000
vn -0.945700 -0.116500 -0.303300
vn -0.931400 -0.107900 -0.347600
vn -0.920600 -0.145800 -0.362300
vn -0.646800 0.074700 -0.759000
vn -0.633000 -0.040200 -0.773100
vn -0.668400 -0.120000 -0.734100
vn 0.240700 -0.829100 -0.504600
vn 0.271900 -0.829600 -0.487700
vn 0.190700 -0.824700 -0.532400
vn -0.608700 0.367200 -0.703300
vn -0.518900 0.260300 -0.814200
vn -0.639900 0.308600 -0.703800
vn -0.709500 0.353300 0.609800
vn -0.669600 0.308300 0.675700
vn -0.658200 0.302200 0.689600
vn 0.412600 -0.567800 0.712300
vn 0.421600 -0.564700 0.709500
vn 0.438700 -0.558700 0.703900
vn 0.557400 0.819300 -0.133900
vn 0.521300 0.851900 -0.049800
vn 0.815300 0.391700 -0.426400
vn 0.856700 0.447700 -0.256100
vn 0.942600 0.244500 -0.227500
vn 0.920300 0.121400 0.371900
vn 0.941300 0.075400 0.329000
vn 0.958500 0.091300 0.270200
vn -0.839300 0.088200 -0.536400
vn -0.840200 0.075400 -0.537100
vn -0.839600 0.177000 -0.513500
vn 0.191000 0.273600 -0.942700
vn 0.195100 0.386800 -0.901300
vn -0.856400 -0.271800 0.438900
vn -0.872000 -0.248700 0.421600
vn -0.846800 -0.285300 0.449000
vn 0.983200 0.062500 -0.171500
vn 0.968600 0.032000 -0.246500
vn -0.309100 0.078100 0.947800
vn -0.361000 0.038900 0.931700
vn -0.295900 0.083500 0.951600
vn 0.574000 -0.356800 -0.737000
vn 0.590200 -0.402900 -0.699500
vn 0.596300 -0.421600 -0.683200
vn -0.165800 0.985700 -0.029700
vn -0.163100 0.986500 -0.011200
vn -0.168600 0.984500 -0.048900
vn 0.249500 0.967900 0.029800
vn 0.210900 0.966800 0.144400
vn -0.210200 0.879100 0.427800
vn -0.212500 0.883500 0.417600
vn -0.232200 0.892200 0.387300
vn 0.196400 0.718500 0.667200
vn 0.111700 0.738000 0.665500
vn 0.150700 0.721500 0.675900
vn 0.191100 0.880800 0.433200
vn 0.204600 0.888800 0.410000
vn 0.220200 0.897400 0.382300
vn 0.765200 -0.539100 -0.351900
vn 0.738400 -0.565600 -0.367300
vn 0.819900 -0.477500 -0.315700
vn 0.942500 -0.334100 -0.010200
vn 0.955100 -0.292800 -0.044400
vn 0.916200 -0.397300 0.051700
vn 0.431900 0.157700 0.888000
vn 0.504100 0.131800 0.853600
vn 0.480000 0.148300 0.864700
vn -0.952000 0.295900 -0.078100
vn -0.673000 -0.677200 -0.297500
vn -0.648500 -0.728000 -0.222400
vn -0.655200 -0.712900 -0.249900
vn 0.572300 0.660400 -0.486200
vn 0.454900 0.777300 -0.434500
vn 0.585600 0.657400 -0.474100
vn 0.364300 0.560100 0.744000
vn 0.337600 0.474100 0.813200
vn 0.381900 0.579800 0.719700
vn 0.385000 -0.873000 -0.299500
vn 0.375500 -0.870100 -0.319400
vn 0.408200 -0.864900 -0.292000
vn 0.349300 -0.898000 0.267600
vn 0.353700 -0.893000 0.278300
vn -0.990400 -0.125000 0.058500
vn -0.964300 -0.261800 0.039600
vn -0.285800 -0.850700 -0.441200
vn -0.309900 -0.856200 -0.413400
vn -0.365600 -0.852100 -0.374500
vn 0.854500 0.519200 0.019800
vn 0.920900 0.370800 0.120400
vn 0.775200 0.076300 0.627100
vn 0.208700 -0.817000 0.537500
vn -0.326200 0.480400 0.814100
vn -0.220000 0.580800 0.783800
vn -0.243700 0.857500 -0.453100
vn 0.693700 -0.717400 0.063500
vn 0.730700 0.613900 0.298700
vn 0.521900 0.769100 0.368800
vn 0.753100 0.567800 0.332300
vn 0.752900 0.571000 0.327400
vn 0.264600 -0.146100 0.953200
vn 0.087900 0.153800 0.984200
vn -0.807900 0.579100 -0.109400
vn 0.167600 0.717600 -0.676000
vn 0.502900 0.356200 -0.787600
vn -0.036900 0.745800 -0.665100
vn -0.118600 0.730000 -0.673100
vn 0.580500 -0.038800 -0.813300
vn 0.725200 0.497900 0.475600
vn 0.668400 0.492400 0.557500
vn 0.098200 -0.013800 -0.995100
vn 0.123700 -0.016300 -0.992200
vn -0.780000 0.436000 -0.448800
vn -0.792100 0.421200 -0.441800
vn 0.048900 0.950500 -0.306900
vn -0.437500 -0.893300 -0.102800
vn -0.634900 0.603900 -0.481800
vn -0.561600 0.632700 -0.533300
vn -0.464400 0.651300 -0.600200
vn -0.008400 0.455100 0.890400
vn -0.742100 -0.059500 0.667600
vn -0.735500 -0.056600 0.675100
vn 0.463400 -0.731700 0.499800
vn -0.773300 -0.428000 -0.467800
vn -0.760100 -0.629500 0.161500
vn -0.775600 -0.630200 0.035800
vn -0.875000 0.422300 0.236800
vn -0.835000 0.490200 0.249900
vn 0.753600 0.653900 -0.066900
vn -0.405600 -0.607100 0.683200
vn -0.379400 -0.442700 0.812400
vn -0.231400 -0.014600 -0.972800
vn -0.218200 -0.009300 -0.975900
vn -0.018200 0.232700 -0.972400
vn -0.178200 0.020800 -0.983800
vn -0.072700 -0.995500 0.060000
vn -0.007400 -0.999000 0.044600
vn -0.114800 -0.975600 0.187200
vn -0.594200 0.790600 0.147900
vn -0.624700 0.771500 -0.120300
vn -0.098100 -0.245200 0.964500
vn 0.814300 -0.340200 -0.470300
vn 0.820300 -0.166900 -0.547000
vn -0.028400 0.959500 -0.280300
vn -0.910200 0.100400 0.401800
vn -0.918400 0.096300 0.383800
vn -0.911900 0.100600 0.398000
vn -0.475500 0.212300 -0.853700
vn -0.210800 0.546200 -0.810700
vn -0.508600 -0.742900 0.435300
vn -0.507100 -0.710600 0.487800
vn -0.937600 -0.198300 -0.285500
vn -0.956400 -0.032700 -0.290200
vn -0.894200 -0.134600 -0.426900
vn -0.648300 -0.114200 -0.752800
vn 0.270900 -0.828500 -0.490200
vn 0.107900 -0.812700 -0.572700
vn -0.586100 0.387400 -0.711600
vn -0.617300 0.259500 0.742700
vn -0.728400 0.355200 0.585900
vn -0.618000 0.265600 0.740000
vn 0.386600 -0.576300 0.720000
vn 0.596400 0.790700 -0.138400
vn 0.478500 0.864800 -0.152600
vn 0.856500 0.457300 -0.239300
vn 0.980200 0.033700 0.195200
vn 0.878100 0.101300 0.467600
vn 0.898800 0.085800 0.429800
vn 0.942900 0.200200 0.266300
vn -0.836400 0.185000 -0.515900
vn -0.828300 -0.037900 -0.559000
vn 0.095200 0.427700 -0.898900
vn -0.878700 -0.238200 0.413600
vn 0.941000 0.025600 -0.337400
vn 0.990300 0.108200 -0.086900
vn 0.981600 -0.018100 -0.189900
vn -0.268200 0.170800 0.948100
vn -0.269900 0.020200 0.962700
vn -0.376500 0.021000 0.926200
vn -0.272400 0.029000 0.961700
vn 0.567900 -0.340400 -0.749400
vn -0.158300 0.987200 0.021300
vn 0.189500 0.963700 0.188300
vn 0.214400 0.958600 0.187300
vn -0.242800 0.903700 0.352600
vn -0.229700 0.893400 0.386100
vn -0.166900 0.873600 0.457200
vn -0.011500 0.745200 0.666700
vn 0.222700 0.696800 0.681800
vn 0.172500 0.868700 0.464400
vn 0.728000 -0.575300 -0.372900
vn 0.890200 -0.450400 0.068400
vn 0.885000 -0.460300 0.070000
vn 0.552800 0.122100 0.824300
vn 0.388900 0.200900 0.899100
vn 0.535800 0.135800 0.833400
vn -0.937700 0.161200 -0.307700
vn -0.934200 0.258500 -0.246000
vn -0.960200 0.275700 0.045200
vn -0.927200 0.329200 -0.178500
vn -0.702000 -0.636800 -0.318900
vn -0.754900 -0.604100 -0.255100
vn -0.652400 -0.727700 -0.212000
vn 0.587000 0.654800 -0.476000
vn 0.601300 0.639100 -0.479600
vn 0.427200 0.609800 0.667600
vn 0.406000 0.611100 0.679500
vn 0.465600 -0.847500 -0.254800
vn 0.417600 -0.864500 -0.279700
usemtl None.023
s 1
f 37//1 103//2 100//3
f 95//4 5//5 49//6
f 67//7 116//8 98//9
f 62//10 64//11 61//12
f 8//13 74//14 84//15
f 82//16 79//17 80//18
f 32//19 49//19 33//19
f 30//20 56//21 91//22
f 84//23 9//23 8//23
f 107//24 106//25 7//26
f 44//27 47//28 45//29
f 65//30 64//30 96//30
f 5//31 95//31 6//31
f 73//32 75//33 74//34
f 110//35 63//36 72//37
f 53//38 20//39 54//40
f 14//41 13//42 105//43
f 55//44 56//45 57//46
f 60//47 16//48 24//49
f 1//50 3//50 88//50
f 61//51 83//52 62//53
f 16//54 60//55 117//56
f 53//57 54//58 50//59
f 87//60 105//61 104//62
f 32//63 31//63 117//63
f 95//64 32//64 117//64
f 5//65 36//66 35//67
f 113//68 100//3 101//69
f 56//70 93//71 91//72
f 94//73 82//74 76//75
f 24//49 14//76 25//77
f 115//78 89//79 88//80
f 64//81 114//82 106//83
f 40//84 48//85 49//86
f 4//87 103//88 36//89
f 112//90 20//91 19//92
f 98//9 99//93 85//94
f 84//95 1//96 9//97
f 24//98 25//99 26//100
f 12//101 10//102 34//103
f 6//104 8//105 5//106
f 108//107 80//18 79//17
f 91//22 20//108 27//109
f 75//110 84//111 74//112
f 24//98 26//100 22//113
f 30//114 29//115 104//62
f 100//3 115//116 101//117
f 93//118 55//119 12//120
f 89//121 90//122 4//123
f 102//124 71//125 39//126
f 70//127 33//128 49//129
f 6//130 95//131 60//132
f 50//133 92//134 51//135
f 112//136 111//137 80//138
f 114//139 72//140 74//141
f 86//142 46//143 45//29
f 109//144 99//145 116//146
f 69//147 65//148 67//149
f 70//150 71//151 52//152
f 16//48 10//153 11//154
f 90//155 115//156 103//157
f 116//146 66//158 21//159
f 81//160 2//161 77//162
f 59//163 23//164 22//165
f 27//166 29//167 30//168
f 46//169 29//115 44//170
f 79//171 41//172 108//173
f 43//174 42//175 78//176
f 41//177 43//178 44//179
f 107//180 21//181 118//182
f 107//183 118//184 66//185
f 73//186 72//187 83//188
f 101//69 17//189 113//68
f 38//190 39//191 35//192
f 14//193 86//194 85//195
f 94//196 76//197 83//198
f 6//199 59//200 22//201
f 8//202 106//25 114//203
f 100//3 102//204 37//1
f 38//205 37//1 102//204
f 40//206 49//6 5//5
f 32//207 95//4 49//6
f 5//5 35//208 40//206
f 98//9 97//209 67//7
f 68//210 67//7 97//209
f 62//10 63//211 64//11
f 8//13 114//212 74//14
f 80//18 81//213 82//16
f 82//16 78//214 79//17
f 30//20 57//215 56//21
f 107//24 96//216 106//25
f 97//217 45//29 47//28
f 44//27 43//218 47//28
f 47//28 69//219 68//220
f 68//220 97//217 47//28
f 74//34 72//221 73//32
f 73//32 77//222 75//33
f 110//35 64//81 63//36
f 53//38 17//223 20//39
f 58//224 105//43 13//42
f 14//41 15//225 13//42
f 57//46 58//226 13//227
f 13//227 55//44 57//46
f 15//225 24//49 16//48
f 23//228 60//47 24//49
f 61//51 69//229 47//230
f 47//230 83//52 61//51
f 117//56 31//231 10//232
f 10//232 16//54 117//56
f 50//59 51//233 53//57
f 52//234 53//57 51//233
f 87//60 86//194 105//61
f 105//61 58//235 104//62
f 104//62 46//169 87//60
f 5//65 4//236 36//66
f 113//68 102//204 100//3
f 54//237 91//72 50//238
f 56//70 55//239 93//71
f 93//71 50//238 91//72
f 73//32 76//75 77//222
f 94//73 78//240 82//74
f 82//74 77//222 76//75
f 109//144 25//77 14//76
f 24//49 15//225 14//76
f 88//80 3//241 111//242
f 111//242 115//78 88//80
f 114//82 64//81 110//35
f 96//243 64//81 106//83
f 40//84 39//244 48//85
f 37//245 36//89 103//88
f 4//87 90//246 103//88
f 18//247 19//92 17//248
f 112//90 108//107 20//91
f 20//91 17//248 19//92
f 85//94 45//249 97//209
f 97//209 98//9 85//94
f 88//250 9//97 1//96
f 84//95 2//251 1//96
f 33//252 34//103 32//253
f 12//101 11//254 10//102
f 10//102 31//255 34//103
f 32//253 34//103 31//255
f 4//256 5//106 8//105
f 6//104 7//257 8//105
f 8//105 9//258 4//256
f 108//107 112//90 80//18
f 108//259 27//109 20//108
f 30//20 91//22 27//109
f 54//260 20//108 91//22
f 75//110 2//261 84//111
f 21//262 22//113 26//100
f 23//263 24//98 22//113
f 104//62 58//235 57//264
f 57//264 30//114 104//62
f 18//265 101//117 115//116
f 100//3 103//2 115//116
f 115//116 111//266 19//267
f 19//267 18//265 115//116
f 12//120 34//268 93//118
f 92//134 93//118 34//268
f 55//119 13//269 12//120
f 4//123 9//270 89//121
f 88//271 89//121 9//270
f 39//126 38//272 102//124
f 102//124 113//273 71//125
f 71//125 48//274 39//126
f 49//129 48//275 70//127
f 70//127 92//134 33//128
f 34//268 33//128 92//134
f 117//276 60//132 95//131
f 59//277 6//130 60//132
f 70//127 51//135 92//134
f 50//133 93//278 92//134
f 81//279 80//138 111//137
f 112//136 19//280 111//137
f 111//137 3//281 81//279
f 114//139 110//282 72//140
f 45//29 85//283 86//142
f 86//142 87//284 46//143
f 46//143 44//27 45//29
f 98//285 116//146 99//145
f 25//77 109//144 116//146
f 66//286 67//149 65//148
f 69//147 61//287 64//288
f 67//149 68//289 69//147
f 64//288 65//148 69//147
f 52//152 51//290 70//150
f 70//150 48//291 71//151
f 12//292 13//42 11//154
f 15//225 16//48 11//154
f 11//154 13//42 15//225
f 90//155 89//293 115//156
f 26//294 25//77 21//159
f 116//146 67//295 66//158
f 66//158 118//296 21//159
f 21//159 25//77 116//146
f 77//162 82//297 81//160
f 81//160 3//298 1//299
f 1//299 2//161 81//160
f 75//300 77//162 2//161
f 59//163 60//301 23//164
f 27//166 28//302 29//167
f 41//303 44//170 29//115
f 46//169 104//62 29//115
f 29//115 28//304 41//303
f 27//305 108//173 28//306
f 79//171 42//307 41//172
f 41//172 28//306 108//173
f 79//308 78//176 42//175
f 94//309 43//174 78//176
f 41//177 42//310 43//178
f 107//180 22//311 21//181
f 66//185 65//312 107//183
f 96//313 107//183 65//312
f 62//314 83//188 72//187
f 76//315 73//186 83//188
f 72//187 63//316 62//314
f 71//317 113//68 52//318
f 101//69 18//319 17//189
f 17//189 53//320 113//68
f 52//318 113//68 53//320
f 35//192 36//321 38//190
f 37//322 38//190 36//321
f 39//191 40//323 35//192
f 85//195 99//324 14//193
f 109//325 14//193 99//324
f 105//61 86//194 14//193
f 83//198 47//326 43//327
f 43//327 94//196 83//198
f 22//201 107//328 7//329
f 7//329 6//199 22//201
f 8//202 7//26 106//25
