# Blender v2.77 (sub 0) OBJ File: ''
# www.blender.org
mtllib RH_HAA_com_constraints.mtl
o foo.008
v -0.411715 -0.178324 0.842817
v -0.253509 -0.178290 0.916726
v -0.202274 -0.106299 0.943447
v -0.420117 0.172375 0.859535
v -0.568089 0.015979 0.794903
v -0.707423 -0.439543 0.230063
v -0.561723 -0.450421 -0.295584
v 0.158872 -0.526807 -0.375023
v 0.495637 -0.511560 0.022360
v 0.186092 -0.486491 0.533071
v -0.455216 -0.393210 0.626038
v 0.044272 0.258631 -0.916271
v 0.025408 0.340690 -0.896282
v -0.078542 0.395441 -0.881236
v 0.022769 0.582847 -0.781327
v 0.049821 0.639778 -0.729180
v 0.541944 0.456122 -0.669154
v 0.508222 0.370274 -0.743819
v 0.331803 0.351793 -0.827368
v 0.381819 0.176431 -0.871717
v -0.872043 0.426643 0.032405
v -0.919874 0.232199 0.202409
v -0.820937 0.325290 0.401985
v -0.723429 0.423268 0.483860
v -0.699157 0.646330 0.173969
v -0.726146 0.637537 0.071244
v 0.901783 -0.158224 -0.293526
v 0.707898 -0.210442 -0.591420
v 0.674462 -0.143209 -0.662090
v 0.730286 0.027165 -0.630366
v 0.845821 0.240810 -0.419306
v 0.838082 -0.073930 -0.464774
v -0.374731 0.896472 0.098762
v -0.225674 0.917550 0.207366
v -0.029133 0.949684 0.200373
v 0.046102 0.965329 0.034202
v -0.056406 0.963409 -0.063444
v -0.278109 0.895944 -0.245060
v -0.096354 -0.234898 -0.923298
v -0.239091 -0.266160 -0.892072
v -0.444783 -0.174212 -0.844530
v -0.403672 0.158548 -0.859313
v -0.307930 0.247762 -0.884393
v -0.677799 -0.394234 -0.310098
v -0.869353 -0.325585 -0.071171
v -0.894488 -0.294834 -0.069611
v -0.915073 -0.232218 -0.156982
v -0.850183 -0.219676 -0.378797
v -0.739434 -0.282337 -0.504537
v 0.045505 0.905341 0.341868
v 0.040443 0.811797 0.518744
v 0.351279 0.774179 0.473626
v 0.377952 0.859520 0.257928
v 0.678508 0.677957 0.118977
v 0.610592 0.750859 0.071434
v 0.379432 0.891824 -0.038827
v 0.571185 0.628723 0.465789
v -0.782556 -0.169920 -0.536118
v -0.654800 -0.239545 -0.635584
v -0.633072 0.460535 -0.564865
v -0.746085 0.272467 -0.557273
v -0.857702 0.240326 -0.387823
v -0.808061 0.459082 -0.268265
v -0.681560 0.614511 -0.307976
v -0.313153 0.622063 -0.667585
v -0.330341 0.722398 -0.545408
v -0.049674 0.820280 -0.511090
v 0.070433 0.825490 -0.511903
v 0.546468 -0.233629 -0.718008
v 0.436882 -0.168961 -0.830432
v 0.731847 0.308672 0.555828
v 0.637744 0.218988 0.689430
v 0.617379 -0.073715 0.750227
v 0.785321 -0.120489 0.548338
v 0.907675 -0.146735 0.288286
v 0.961300 -0.069215 0.005574
v 0.937703 0.204068 0.076879
v 0.841897 0.373137 0.288978
v 0.822437 0.347233 0.377339
v -0.742510 0.126177 -0.615525
v -0.880092 0.071602 -0.407963
v 0.467268 -0.097470 0.850609
v 0.251619 0.070302 0.936173
v 0.214796 -0.105590 0.936875
v 0.204699 -0.239179 0.901770
v -0.065783 -0.058412 0.966293
v 0.238772 0.339805 0.881517
v -0.037292 0.116176 0.969103
v 0.029712 0.586004 0.770951
v -0.164625 0.721838 0.615751
v -0.272513 0.762565 0.515377
v -0.407141 0.719180 0.507322
v -0.396054 0.560716 0.687211
v -0.512025 0.468019 0.683020
v -0.405390 0.283020 0.834915
v -0.169919 0.350645 0.889344
v 0.491672 0.352059 0.769397
v -0.166756 -0.287291 0.897846
v 0.667602 0.653242 -0.240616
v 0.451398 0.806368 -0.297443
v 0.341173 0.887408 -0.183801
v -0.680363 -0.216497 0.649398
v -0.761449 -0.235322 0.537692
v -0.857767 -0.249115 0.325120
v -0.573559 0.695630 -0.348613
v -0.529975 0.753638 -0.277197
v -0.368477 0.814441 -0.349614
v -0.520824 0.249899 -0.771975
v -0.475181 0.502299 -0.672164
v 0.172362 0.492182 0.820248
v -0.086130 -0.401466 -0.726529
v 0.870131 -0.211615 0.336292
v 0.802994 0.531830 0.097915
v 0.869019 0.417986 0.021201
v 0.846879 0.463206 -0.065751
v 0.735013 0.546977 -0.306045
v -0.951917 0.009542 0.139769
v -0.939490 0.168628 0.173515
v -0.960893 -0.058864 -0.126904
v -0.902215 -0.197310 0.274209
v -0.886868 -0.125979 0.359635
v 0.223921 0.928486 -0.168460
v 0.285391 0.780688 -0.506164
v 0.402783 -0.424117 -0.530569
v 0.723682 -0.360505 0.254092
v 0.511330 -0.470810 0.229487
v 0.904893 -0.224193 -0.185687
v -0.712675 0.653911 -0.044642
v -0.468649 0.784129 0.321996
v 0.460361 0.675820 -0.510302
v 0.752190 0.448033 -0.416351
v 0.616144 -0.195386 0.692286
v -0.762402 0.135898 0.589584
v -0.634580 0.515822 0.518180
v -0.955460 0.101099 -0.162859
v 0.562580 0.203253 -0.756416
v 0.838829 0.362113 -0.325423
v 0.573706 0.053275 -0.767825
v -0.519862 0.688407 0.438341
v 0.485474 -0.330016 0.654692
v -0.814178 -0.074276 0.518434
v 0.905998 0.301618 -0.162965
v -0.007025 -0.264635 -0.914067
v 0.915791 -0.183643 -0.218709
vn -0.393600 -0.051700 0.917800
vn -0.073700 -0.995600 0.057400
vn 0.237700 0.458500 -0.856300
vn -0.834000 0.489400 0.255000
vn 0.830400 -0.126600 -0.542600
vn -0.188800 0.982000 0.007100
vn -0.154700 0.032100 -0.987400
vn -0.659700 -0.704600 -0.261600
vn 0.199100 0.885600 0.419600
vn 0.550800 0.794000 0.257200
vn -0.734400 -0.429400 -0.525600
vn -0.770300 0.456100 -0.445700
vn -0.138900 0.735300 -0.663400
vn 0.580400 -0.374400 -0.723100
vn 0.780400 0.081600 0.620000
vn 0.932200 0.090000 0.350500
vn -0.839100 0.074900 -0.538800
vn 0.323900 -0.152900 0.933600
vn -0.432800 -0.639800 -0.635100
vn 0.122000 0.074600 0.989700
vn -0.257300 0.575700 0.776200
vn 0.669200 0.464700 0.579800
vn -0.069600 -0.902300 0.425400
vn 0.566200 0.813800 -0.131100
vn -0.547300 -0.731300 0.406900
vn -0.323600 0.834100 -0.446700
vn -0.435300 -0.894800 -0.098900
vn -0.308000 0.478600 -0.822200
vn 0.145800 0.726100 0.672000
vn -0.309200 -0.848600 -0.429200
vn 0.881100 -0.189000 0.433600
vn 0.770900 0.632200 -0.078000
vn -0.983700 -0.163400 0.074800
vn -0.129400 -0.959100 -0.251800
vn -0.758200 -0.635300 0.146600
vn 0.029300 0.948700 -0.314800
vn 0.018000 0.381400 0.924300
vn 0.272500 -0.942200 -0.194800
vn 0.595200 -0.803000 0.031000
vn 0.480000 0.146400 0.865000
vn -0.588700 0.801100 0.108000
vn 0.621100 0.639200 -0.453500
vn 0.657200 -0.433100 0.616900
vn -0.656200 0.293600 0.695100
vn -0.961500 0.251900 -0.110000
vn 0.729600 0.272600 -0.627200
vn 0.440500 0.276300 -0.854200
vn -0.341700 0.864100 0.369400
vn 0.007100 -0.279400 0.960200
vn -0.544500 -0.240000 0.803700
vn -0.933300 -0.125200 -0.336500
vn 0.149400 -0.824600 0.545600
vn 0.421400 -0.564800 0.709500
vn -0.542000 0.828700 -0.139600
vn -0.410100 -0.587100 0.698000
vn -0.856600 -0.276900 0.435400
vn 0.848000 0.477000 -0.231200
vn 0.750100 0.577800 0.321700
vn -0.604500 0.273500 -0.748200
vn -0.635200 -0.050100 -0.770700
vn -0.078300 -0.502500 -0.861000
vn -0.051900 -0.796200 -0.602800
vn -0.743900 -0.075400 0.664100
vn 0.972700 0.071800 -0.220500
vn 0.154600 -0.044300 -0.987000
vn 0.735100 -0.568700 -0.369100
vn 0.932700 0.350500 0.085000
vn 0.332600 -0.899900 0.282000
vn 0.344500 0.856100 -0.385300
vn 0.560200 -0.720400 0.408900
vn -0.179700 0.885000 0.429600
vn -0.624900 0.637900 0.450100
vn -0.920600 0.084300 0.381300
vn 0.909400 -0.412600 0.052100
vn 0.199900 -0.819500 -0.537100
vn -0.250400 0.133100 0.958900
vn -0.539800 0.642500 -0.543900
vn 0.390200 0.592400 0.704900
vn 0.492300 -0.829800 -0.262900
vn -0.815800 0.565700 -0.120100
vn 0.548000 -0.049400 -0.835000
vn 0.291000 0.649800 -0.702200
vn 0.203500 0.975200 0.087300
usemtl None.005
s 1
f 1//1 2//1 3//1 4//1 5//1
f 6//2 7//2 8//2 9//2 10//2 11//2
f 12//3 13//3 14//3 15//3 16//3 17//3 18//3 19//3 20//3
f 21//4 22//4 23//4 24//4 25//4 26//4
f 27//5 28//5 29//5 30//5 31//5 32//5
f 33//6 34//6 35//6 36//6 37//6 38//6
f 12//7 39//7 40//7 41//7 42//7 43//7 14//7 13//7
f 44//8 45//8 46//8 47//8 48//8 49//8
f 50//9 51//9 52//9 53//9
f 54//10 55//10 56//10 53//10 52//10 57//10
f 49//11 48//11 58//11 59//11
f 60//12 61//12 62//12 63//12 64//12
f 15//13 65//13 66//13 67//13 68//13 16//13
f 28//14 69//14 70//14 29//14
f 71//15 72//15 73//15 74//15
f 74//16 75//16 76//16 77//16 78//16 79//16 71//16
f 80//17 58//17 81//17 62//17 61//17
f 82//18 83//18 84//18 85//18
f 40//19 59//19 41//19
f 86//20 84//20 83//20 87//20 88//20
f 89//21 90//21 91//21 92//21 93//21 94//21 95//21 96//21
f 97//22 72//22 71//22 79//22 57//22
f 98//23 11//23 10//23
f 55//24 99//24 100//24 101//24 56//24
f 102//25 103//25 104//25 6//25 11//25
f 66//26 105//26 106//26 107//26 38//26 67//26
f 44//27 7//27 6//27 45//27
f 14//28 43//28 108//28 109//28 65//28 15//28
f 90//29 89//29 110//29 52//29 51//29
f 7//30 44//30 49//30 59//30 40//30 111//30
f 75//31 74//31 112//31
f 55//32 54//32 113//32 114//32 115//32 116//32 99//32
f 117//33 118//33 119//33 47//33 46//33 120//33 121//33
f 7//34 111//34 8//34
f 6//35 104//35 120//35 46//35 45//35
f 37//36 122//36 123//36 68//36 67//36 38//36
f 87//37 110//37 89//37 96//37 88//37
f 9//38 8//38 124//38
f 125//39 126//39 9//39 127//39 112//39
f 82//40 73//40 72//40 97//40 87//40 83//40
f 128//41 26//41 25//41 129//41 33//41
f 130//42 100//42 99//42 116//42 131//42 17//42
f 73//43 82//43 132//43 112//43 74//43
f 133//44 5//44 4//44 95//44 94//44 134//44 24//44 23//44
f 119//45 118//45 22//45 21//45 63//45 62//45 81//45 135//45
f 136//46 18//46 17//46 131//46 137//46 31//46 30//46 138//46
f 20//47 19//47 18//47 136//47
f 34//48 33//48 129//48 139//48 92//48
f 85//49 84//49 86//49 3//49 2//49 98//49
f 1//50 5//50 102//50
f 119//51 135//51 81//51 58//51 48//51 47//51
f 10//52 140//52 85//52 98//52
f 85//53 140//53 132//53 82//53
f 33//54 38//54 107//54 106//54 105//54 64//54 128//54
f 102//55 11//55 98//55 2//55 1//55
f 120//56 104//56 103//56 141//56 121//56
f 142//57 137//57 131//57 116//57 115//57
f 78//58 113//58 54//58 57//58 79//58
f 61//59 60//59 109//59 108//59 43//59 42//59 80//59
f 59//60 58//60 80//60 42//60 41//60
f 40//61 39//61 143//61
f 111//62 40//62 143//62
f 133//63 141//63 103//63 102//63 5//63
f 144//64 27//64 32//64 31//64 137//64 142//64 77//64 76//64
f 12//65 20//65 70//65 143//65 39//65
f 127//66 28//66 27//66 144//66
f 77//67 142//67 115//67 114//67 113//67 78//67
f 126//68 125//68 140//68 10//68 9//68
f 123//69 122//69 101//69 100//69 130//69
f 140//70 125//70 112//70 132//70
f 90//71 51//71 50//71 35//71 34//71 92//71 91//71
f 25//72 24//72 134//72 94//72 93//72 92//72 139//72 129//72
f 121//73 141//73 133//73 23//73 22//73 118//73 117//73
f 76//74 75//74 112//74 127//74 144//74
f 143//75 70//75 69//75 124//75 8//75 111//75
f 88//76 96//76 95//76 4//76 3//76 86//76
f 64//77 105//77 66//77 65//77 109//77 60//77
f 52//78 110//78 87//78 97//78 57//78
f 9//79 124//79 69//79 28//79 127//79
f 64//80 63//80 21//80 26//80 128//80
f 20//81 136//81 138//81 30//81 29//81 70//81
f 130//82 17//82 16//82 68//82 123//82
f 56//83 101//83 122//83 37//83 36//83 35//83 50//83 53//83
